<svg width="165" height="102" viewBox="0 0 165 102" fill="none" xmlns="http://www.w3.org/2000/svg">
<path d="M59.1499 80.1637V78.9374C60.3512 77.7361 61.419 76.6517 62.3533 75.684C63.2876 74.7163 64.0718 73.8237 64.7058 73.0061C65.3398 72.1719 65.8236 71.4128 66.1573 70.7287C66.491 70.028 66.6578 69.3523 66.6578 68.7016C66.6578 67.784 66.4076 67.0332 65.907 66.4492C65.4065 65.8653 64.6474 65.5733 63.6296 65.5733C62.9623 65.5733 62.3449 65.7652 61.7777 66.1489C61.2104 66.516 60.6932 66.9664 60.226 67.5003L59.0498 66.3241C59.7172 65.59 60.4262 65.006 61.177 64.5722C61.9278 64.1218 62.8288 63.8965 63.8799 63.8965C65.3648 63.8965 66.5327 64.3303 67.3836 65.1979C68.2345 66.0488 68.6599 67.1833 68.6599 68.6015C68.6599 69.3523 68.4931 70.1114 68.1594 70.8789C67.8424 71.6297 67.3919 72.4139 66.808 73.2314C66.2407 74.0322 65.5567 74.8748 64.7558 75.7591C63.9717 76.6266 63.1041 77.5526 62.1531 78.537C62.5869 78.5036 63.0373 78.4702 63.5045 78.4369C63.9717 78.4035 64.4138 78.3868 64.8309 78.3868H69.4608V80.1637H59.1499ZM76.8203 80.464C75.2019 80.464 73.9423 79.7466 73.0413 78.3117C72.1404 76.8769 71.6899 74.8164 71.6899 72.1302C71.6899 69.4441 72.1404 67.4002 73.0413 65.9987C73.9423 64.5973 75.2019 63.8965 76.8203 63.8965C78.422 63.8965 79.6733 64.5973 80.5743 65.9987C81.4752 67.4002 81.9257 69.4441 81.9257 72.1302C81.9257 74.8164 81.4752 76.8769 80.5743 78.3117C79.6733 79.7466 78.422 80.464 76.8203 80.464ZM76.8203 78.8123C77.2875 78.8123 77.7046 78.6871 78.0716 78.4369C78.4554 78.1699 78.7807 77.7695 79.0477 77.2356C79.3313 76.685 79.5482 75.9926 79.6983 75.1584C79.8485 74.3075 79.9236 73.2981 79.9236 72.1302C79.9236 70.9623 79.8485 69.9613 79.6983 69.127C79.5482 68.2928 79.3313 67.6171 79.0477 67.0999C78.7807 66.566 78.4554 66.1739 78.0716 65.9237C77.7046 65.6734 77.2875 65.5483 76.8203 65.5483C76.3531 65.5483 75.9277 65.6734 75.544 65.9237C75.1602 66.1739 74.8265 66.566 74.5429 67.0999C74.276 67.6171 74.0674 68.2928 73.9172 69.127C73.7671 69.9613 73.692 70.9623 73.692 72.1302C73.692 74.466 73.9756 76.1678 74.5429 77.2356C75.1269 78.2867 75.886 78.8123 76.8203 78.8123ZM84.0297 80.1637V78.9374C85.2309 77.7361 86.2987 76.6517 87.2331 75.684C88.1674 74.7163 88.9515 73.8237 89.5855 73.0061C90.2195 72.1719 90.7034 71.4128 91.0371 70.7287C91.3708 70.028 91.5376 69.3523 91.5376 68.7016C91.5376 67.784 91.2873 67.0332 90.7868 66.4492C90.2863 65.8653 89.5271 65.5733 88.5094 65.5733C87.842 65.5733 87.2247 65.7652 86.6575 66.1489C86.0902 66.516 85.573 66.9664 85.1058 67.5003L83.9296 66.3241C84.5969 65.59 85.306 65.006 86.0568 64.5722C86.8076 64.1218 87.7086 63.8965 88.7597 63.8965C90.2446 63.8965 91.4125 64.3303 92.2634 65.1979C93.1143 66.0488 93.5397 67.1833 93.5397 68.6015C93.5397 69.3523 93.3729 70.1114 93.0392 70.8789C92.7222 71.6297 92.2717 72.4139 91.6878 73.2314C91.1205 74.0322 90.4364 74.8748 89.6356 75.7591C88.8514 76.6266 87.9839 77.5526 87.0328 78.537C87.4666 78.5036 87.9171 78.4702 88.3843 78.4369C88.8514 78.4035 89.2936 78.3868 89.7107 78.3868H94.3406V80.1637H84.0297ZM97.4456 80.1637V78.4619H101.099V66.6995H98.1964V65.3731C98.9305 65.2396 99.5645 65.0811 100.098 64.8976C100.649 64.6974 101.141 64.4638 101.575 64.1968H103.151V78.4619H106.455V80.1637H97.4456Z" fill="#6A6E81"/>
<path d="M40.5791 34.186H44.1971C46.5024 34.186 48.2154 33.2094 48.2154 31.1123C48.2154 29.7035 47.3669 28.887 46.2142 28.6309V28.5668C47.1268 28.2466 47.6711 27.2861 47.6711 26.2935C47.6711 24.3724 46.0862 23.7161 43.9249 23.7161H40.5791V34.186ZM42.4361 28.0385V25.1569H43.7969C45.1576 25.1569 45.846 25.5411 45.846 26.5657C45.846 27.4622 45.2217 28.0385 43.7649 28.0385H42.4361ZM42.4361 32.7452V29.4313H44.005C45.5739 29.4313 46.4063 29.9116 46.4063 31.0162C46.4063 32.1849 45.5419 32.7452 44.005 32.7452H42.4361ZM53.3331 34.3781C54.3257 34.3781 55.2702 34.0259 56.0227 33.5296L55.3983 32.377C54.822 32.7452 54.2457 32.9533 53.5733 32.9533C52.3086 32.9533 51.4121 32.1528 51.252 30.7601H56.2468C56.2948 30.5679 56.3268 30.2158 56.3268 29.8636C56.3268 27.6703 55.2062 26.1334 53.077 26.1334C51.236 26.1334 49.4589 27.7023 49.4589 30.2638C49.4589 32.8572 51.1559 34.3781 53.3331 34.3781ZM51.236 29.5114C51.396 28.2466 52.1965 27.5582 53.125 27.5582C54.1976 27.5582 54.7259 28.2947 54.7259 29.5114H51.236ZM60.2784 34.3781C62.2636 34.3781 63.3362 33.2895 63.3362 31.9447C63.3362 30.4719 62.1515 29.9596 61.0789 29.5594C60.2304 29.2552 59.478 29.0151 59.478 28.3907C59.478 27.8944 59.8622 27.5262 60.6467 27.5262C61.271 27.5262 61.8153 27.7984 62.3756 28.1986L63.2241 27.078C62.5837 26.5817 61.7032 26.1334 60.5986 26.1334C58.8376 26.1334 57.749 27.11 57.749 28.4868C57.749 29.7995 58.8696 30.3919 59.9102 30.7761C60.7427 31.0962 61.5912 31.3844 61.5912 32.0408C61.5912 32.5851 61.191 32.9853 60.3425 32.9853C59.542 32.9853 58.8696 32.6491 58.1652 32.1048L57.3008 33.2895C58.0692 33.9138 59.2058 34.3781 60.2784 34.3781ZM67.4366 34.3781C68.061 34.3781 68.6053 34.234 69.0375 34.0899L68.7173 32.7292C68.4932 32.8252 68.173 32.9053 67.9009 32.9053C67.1485 32.9053 66.7963 32.457 66.7963 31.5285V27.7824H68.7974V26.3256H66.7963V24.1803H65.2594L65.0353 26.3256L63.8186 26.4056V27.7824H64.9392V31.5285C64.9392 33.2255 65.6116 34.3781 67.4366 34.3781ZM75.9298 34.186H77.7868V25.285H80.8126V23.7161H72.9041V25.285H75.9298V34.186ZM81.6923 34.186H83.5333V29.3833C84.0136 28.1986 84.766 27.7664 85.3904 27.7664C85.7266 27.7664 85.9347 27.8144 86.2069 27.8944L86.527 26.2935C86.2869 26.1815 86.0308 26.1334 85.6305 26.1334C84.7981 26.1334 83.9656 26.6938 83.4053 27.7183H83.3412L83.2132 26.3256H81.6923V34.186ZM89.1474 34.3781C90.0759 34.3781 90.8764 33.9138 91.5808 33.3215H91.6448L91.7729 34.186H93.2937V29.5274C93.2937 27.3341 92.3172 26.1334 90.3641 26.1334C89.1154 26.1334 87.9947 26.6137 87.1303 27.158L87.8026 28.3907C88.507 27.9745 89.2434 27.6223 90.0119 27.6223C91.0845 27.6223 91.4207 28.3267 91.4527 29.1592C88.2189 29.5114 86.8261 30.3919 86.8261 32.0728C86.8261 33.4496 87.7706 34.3781 89.1474 34.3781ZM89.7397 32.9373C89.0834 32.9373 88.6031 32.6331 88.6031 31.9287C88.6031 31.1443 89.3075 30.584 91.4527 30.3118V32.0728C90.8604 32.6171 90.3801 32.9373 89.7397 32.9373ZM98.2505 34.3781C99.099 34.3781 99.8995 33.9138 100.476 33.3375H100.54L100.668 34.186H102.188V22.8836H100.347V25.7332L100.411 26.9979C99.8034 26.4696 99.2431 26.1334 98.3466 26.1334C96.6336 26.1334 95.0167 27.7023 95.0167 30.2638C95.0167 32.8572 96.2814 34.3781 98.2505 34.3781ZM98.6988 32.8572C97.5622 32.8572 96.9218 31.9447 96.9218 30.2478C96.9218 28.5988 97.7383 27.6543 98.7468 27.6543C99.2751 27.6543 99.8034 27.8304 100.347 28.3107V31.9767C99.8194 32.5851 99.3071 32.8572 98.6988 32.8572ZM104.533 34.186H106.374V26.3256H104.533V34.186ZM105.462 24.9488C106.118 24.9488 106.566 24.5325 106.566 23.8922C106.566 23.2678 106.118 22.8516 105.462 22.8516C104.805 22.8516 104.357 23.2678 104.357 23.8922C104.357 24.5325 104.805 24.9488 105.462 24.9488ZM108.723 34.186H110.564V28.6949C111.22 28.0545 111.669 27.7183 112.357 27.7183C113.221 27.7183 113.59 28.1986 113.59 29.4953V34.186H115.431V29.2552C115.431 27.2701 114.694 26.1334 113.013 26.1334C111.941 26.1334 111.14 26.6938 110.436 27.3821H110.372L110.244 26.3256H108.723V34.186ZM120.419 37.66C122.98 37.66 124.613 36.4433 124.613 34.8904C124.613 33.5296 123.62 32.9533 121.731 32.9533H120.339C119.378 32.9533 119.058 32.6811 119.058 32.2329C119.058 31.8807 119.202 31.6886 119.442 31.4805C119.794 31.6245 120.179 31.6886 120.515 31.6886C122.18 31.6886 123.492 30.7601 123.492 29.0151C123.492 28.4708 123.3 27.9905 123.044 27.6863H124.485V26.3256H121.667C121.347 26.2135 120.947 26.1334 120.515 26.1334C118.866 26.1334 117.409 27.142 117.409 28.951C117.409 29.8796 117.905 30.632 118.434 31.0322V31.0962C117.985 31.4164 117.569 31.9447 117.569 32.5531C117.569 33.1934 117.873 33.6097 118.273 33.8658V33.9299C117.553 34.3781 117.153 34.9544 117.153 35.6108C117.153 36.9876 118.546 37.66 120.419 37.66ZM120.515 30.5359C119.746 30.5359 119.138 29.9596 119.138 28.951C119.138 27.9585 119.746 27.3982 120.515 27.3982C121.283 27.3982 121.875 27.9745 121.875 28.951C121.875 29.9596 121.267 30.5359 120.515 30.5359ZM120.707 36.4593C119.458 36.4593 118.69 36.043 118.69 35.3386C118.69 34.9704 118.882 34.6182 119.298 34.2981C119.602 34.3781 119.938 34.4101 120.371 34.4101H121.443C122.34 34.4101 122.836 34.5862 122.836 35.1946C122.836 35.8669 121.972 36.4593 120.707 36.4593Z" fill="#6A6E81"/>
<path d="M47.1318 51.2036H53.5994V49.6347H48.9888V46.5449H52.751V44.976H48.9888V42.3025H53.4394V40.7336H47.1318V51.2036ZM54.0317 51.2036H55.9528L56.7852 49.6507C57.0094 49.1704 57.2495 48.7061 57.4736 48.2579H57.5377C57.8098 48.7061 58.082 49.1864 58.3381 49.6507L59.2987 51.2036H61.2838L58.7864 47.3134L61.1077 43.3431H59.2026L58.4502 44.8319C58.2581 45.2642 58.034 45.7285 57.8418 46.1607H57.7778C57.5377 45.7285 57.2815 45.2642 57.0574 44.8319L56.1769 43.3431H54.1918L56.5291 47.1052L54.0317 51.2036ZM62.6837 54.3093H64.5247V51.8439L64.4767 50.5312C65.1171 51.0755 65.8055 51.3957 66.4939 51.3957C68.2388 51.3957 69.8558 49.8428 69.8558 47.1533C69.8558 44.7199 68.7191 43.151 66.766 43.151C65.9015 43.151 65.053 43.6153 64.3967 44.1756H64.3326L64.2046 43.3431H62.6837V54.3093ZM66.1096 49.8748C65.6454 49.8748 65.1011 49.6987 64.5247 49.2184V45.5524C65.1331 44.96 65.6774 44.6719 66.2537 44.6719C67.4384 44.6719 67.9507 45.6004 67.9507 47.1693C67.9507 48.9463 67.1502 49.8748 66.1096 49.8748ZM75.082 51.3957C76.0745 51.3957 77.0191 51.0435 77.7715 50.5472L77.1471 49.3945C76.5708 49.7627 75.9945 49.9709 75.3221 49.9709C74.0574 49.9709 73.1609 49.1704 73.0008 47.7776H77.9956C78.0436 47.5855 78.0757 47.2333 78.0757 46.8811C78.0757 44.6879 76.955 43.151 74.8258 43.151C72.9848 43.151 71.2078 44.7199 71.2078 47.2813C71.2078 49.8748 72.9047 51.3957 75.082 51.3957ZM72.9848 46.5289C73.1449 45.2642 73.9453 44.5758 74.8739 44.5758C75.9465 44.5758 76.4748 45.3122 76.4748 46.5289H72.9848ZM79.834 51.2036H81.6751V46.4008C82.1553 45.2162 82.9078 44.7839 83.5321 44.7839C83.8683 44.7839 84.0764 44.8319 84.3486 44.912L84.6688 43.3111C84.4286 43.199 84.1725 43.151 83.7723 43.151C82.9398 43.151 82.1073 43.7113 81.547 44.7359H81.483L81.3549 43.3431H79.834V51.2036ZM85.8062 51.2036H87.6472V43.3431H85.8062V51.2036ZM86.7347 41.9663C87.3911 41.9663 87.8393 41.5501 87.8393 40.9097C87.8393 40.2854 87.3911 39.8691 86.7347 39.8691C86.0783 39.8691 85.6301 40.2854 85.6301 40.9097C85.6301 41.5501 86.0783 41.9663 86.7347 41.9663ZM93.3579 51.3957C94.3505 51.3957 95.295 51.0435 96.0475 50.5472L95.4231 49.3945C94.8468 49.7627 94.2704 49.9709 93.5981 49.9709C92.3334 49.9709 91.4368 49.1704 91.2768 47.7776H96.2716C96.3196 47.5855 96.3516 47.2333 96.3516 46.8811C96.3516 44.6879 95.231 43.151 93.1018 43.151C91.2607 43.151 89.4837 44.7199 89.4837 47.2813C89.4837 49.8748 91.1807 51.3957 93.3579 51.3957ZM91.2607 46.5289C91.4208 45.2642 92.2213 44.5758 93.1498 44.5758C94.2224 44.5758 94.7507 45.3122 94.7507 46.5289H91.2607ZM98.11 51.2036H99.951V45.7124C100.607 45.0721 101.055 44.7359 101.744 44.7359C102.608 44.7359 102.976 45.2162 102.976 46.5129V51.2036H104.817V46.2728C104.817 44.2876 104.081 43.151 102.4 43.151C101.328 43.151 100.527 43.7113 99.823 44.3997H99.7589L99.6309 43.3431H98.11V51.2036ZM110.35 51.3957C111.246 51.3957 112.175 51.0755 112.911 50.4351L112.159 49.2184C111.711 49.5866 111.15 49.8908 110.542 49.8908C109.309 49.8908 108.445 48.8502 108.445 47.2813C108.445 45.6964 109.325 44.6558 110.59 44.6558C111.086 44.6558 111.486 44.864 111.903 45.2322L112.799 44.0315C112.223 43.5352 111.502 43.151 110.494 43.151C108.397 43.151 106.556 44.6558 106.556 47.2813C106.556 49.8908 108.205 51.3957 110.35 51.3957ZM117.434 51.3957C118.426 51.3957 119.371 51.0435 120.123 50.5472L119.499 49.3945C118.923 49.7627 118.346 49.9709 117.674 49.9709C116.409 49.9709 115.513 49.1704 115.353 47.7776H120.347C120.395 47.5855 120.427 47.2333 120.427 46.8811C120.427 44.6879 119.307 43.151 117.178 43.151C115.337 43.151 113.56 44.7199 113.56 47.2813C113.56 49.8748 115.257 51.3957 117.434 51.3957ZM115.337 46.5289C115.497 45.2642 116.297 44.5758 117.226 44.5758C118.298 44.5758 118.827 45.3122 118.827 46.5289H115.337Z" fill="#6A6E81"/>
<path d="M41.549 101.766H43.2427L44.1917 97.6327C44.3239 97.0201 44.444 96.4194 44.5521 95.8187H44.6002C44.6963 96.4194 44.8164 97.0201 44.9485 97.6327L45.9216 101.766H47.6514L49.153 93.9088H47.8196L47.1348 97.8729C47.0147 98.7018 46.8826 99.5428 46.7625 100.384H46.7144C46.5342 99.5428 46.366 98.6898 46.1858 97.8729L45.2248 93.9088H44.0116L43.0505 97.8729C42.8704 98.7018 42.7022 99.5548 42.534 100.384H42.4859C42.3658 99.5548 42.2337 98.7138 42.1015 97.8729L41.4168 93.9088H39.9873L41.549 101.766ZM53.3802 101.91C55.4344 101.91 56.8519 100.348 56.8519 97.8008C56.8519 95.2662 55.4344 93.7646 53.3802 93.7646C51.3381 93.7646 49.9206 95.2662 49.9206 97.8008C49.9206 100.348 51.3381 101.91 53.3802 101.91ZM53.3802 100.696C52.1429 100.696 51.3501 99.5668 51.3501 97.8008C51.3501 96.047 52.1429 94.9779 53.3802 94.9779C54.6175 94.9779 55.4104 96.047 55.4104 97.8008C55.4104 99.5668 54.6175 100.696 53.3802 100.696ZM58.4235 101.766H59.8169V98.6898H61.0182L62.712 101.766H64.2736L62.3997 98.4855C63.3366 98.1613 63.9613 97.4405 63.9613 96.2393C63.9613 94.4854 62.712 93.9088 61.0783 93.9088H58.4235V101.766ZM59.8169 97.5846V95.0259H60.9341C62.0032 95.0259 62.5919 95.3383 62.5919 96.2393C62.5919 97.1282 62.0032 97.5846 60.9341 97.5846H59.8169ZM65.5325 101.766H70.1934V100.588H66.926V93.9088H65.5325V101.766ZM71.5623 101.766H73.7366C76.0671 101.766 77.4846 100.408 77.4846 97.8008C77.4846 95.2061 76.0671 93.9088 73.6645 93.9088H71.5623V101.766ZM72.9558 100.636V95.0379H73.5684C75.1541 95.0379 76.055 95.8788 76.055 97.8008C76.055 99.735 75.1541 100.636 73.5684 100.636H72.9558ZM81.4751 101.766H82.8686V98.4855H85.7276V97.3083H82.8686V95.0861H86.2201V93.9088H81.4751V101.766ZM87.5987 101.766H88.9922V93.9088H87.5987V101.766ZM90.989 101.766H92.3224V98.3295C92.3224 97.4526 92.2023 96.5036 92.1423 95.6747H92.1903L92.9952 97.3444L95.4457 101.766H96.8752V93.9088H95.5418V97.3204C95.5418 98.1973 95.662 99.1944 95.722 99.9992H95.674L94.8691 98.3295L92.4185 93.9088H90.989V101.766ZM100.482 97.5846C100.735 96.7557 100.963 95.8669 101.179 94.99H101.227C101.455 95.8549 101.684 96.7557 101.936 97.5846L102.212 98.5456H100.206L100.482 97.5846ZM97.8513 101.766H99.2688L99.8814 99.6388H102.525L103.137 101.766H104.603L102.044 93.9088H100.41L97.8513 101.766ZM105.571 101.766H106.905V98.3295C106.905 97.4526 106.784 96.5036 106.724 95.6747H106.772L107.577 97.3444L110.028 101.766H111.457V93.9088H110.124V97.3204C110.124 98.1973 110.244 99.1944 110.304 99.9992H110.256L109.451 98.3295L107.001 93.9088H105.571V101.766ZM116.59 101.91C117.599 101.91 118.428 101.501 119.064 100.768L118.32 99.8911C117.875 100.372 117.335 100.696 116.638 100.696C115.316 100.696 114.476 99.6148 114.476 97.8249C114.476 96.0591 115.389 94.9779 116.674 94.9779C117.287 94.9779 117.755 95.2542 118.163 95.6627L118.908 94.7617C118.416 94.2332 117.623 93.7646 116.638 93.7646C114.656 93.7646 113.046 95.2902 113.046 97.8609C113.046 100.468 114.608 101.91 116.59 101.91ZM120.376 101.766H125.229V100.588H121.769V98.2693H124.592V97.0921H121.769V95.0861H125.109V93.9088H120.376V101.766Z" fill="#6A6E81"/>
<path fill-rule="evenodd" clip-rule="evenodd" d="M132.115 76.603C133.676 78.6442 136.17 79.7515 138.732 79.5781C140.973 79.5247 145.069 78.5241 146.403 77.5369C142.307 76.9099 143.295 76.0694 140.426 75.1222C138.585 74.682 136.664 74.762 134.876 75.3757C136.958 74.6686 138.959 73.7481 140.84 72.6275C142.681 74.0282 145.069 74.5085 147.31 73.9082C149.351 73.4012 152.913 71.6803 153.967 70.5463C150.138 70.8264 150.899 69.8792 148.137 69.6258C146.763 69.5724 145.389 69.8392 144.122 70.3862C145.496 69.3189 146.776 68.1316 147.964 66.8509C150.605 68.2516 153.434 66.9843 154.314 66.5173C156.115 65.5701 159.103 63.1154 159.837 61.7947C156.302 62.942 156.822 61.8614 154.167 62.2616C152.673 62.5951 151.286 63.2888 150.125 64.2894C151.299 62.7685 152.34 61.141 153.247 59.46C156.155 60.2204 158.69 58.3127 159.477 57.6456C161.091 56.2849 163.586 53.1498 164.053 51.6556C160.744 53.6167 161.065 52.416 158.49 53.4299C156.916 54.1904 155.568 55.351 154.554 56.7785C155.368 54.9108 156.048 52.9897 156.569 51.0286C159.424 51.0286 161.385 48.6806 161.972 47.8668C163.199 46.2125 164.867 42.6772 164.987 41.1563C162.292 43.7711 162.332 42.5705 160.117 44.118C158.863 45.1452 157.863 46.466 157.236 47.9735C157.583 46.0391 157.783 44.0646 157.849 42.1035C160.438 41.5966 161.838 39.0351 162.239 38.1813C163.186 36.0868 163.733 33.8455 163.866 31.5642C161.905 34.4325 161.745 33.3519 160.051 35.1796C158.917 36.6338 158.17 38.3547 157.863 40.1824C157.836 37.9945 157.623 35.8066 157.249 33.6587C159.103 32.7916 160.451 31.084 160.864 29.0828C161.345 26.9616 161.371 24.7737 160.971 22.6392C159.637 25.7076 159.224 24.747 157.903 26.8015C157.116 28.2957 156.755 29.9767 156.836 31.6576C156.702 31.0706 156.555 30.4703 156.395 29.8833C156.062 28.6693 155.675 27.4953 155.248 26.3479C156.715 25.1606 157.583 23.3729 157.596 21.4652C157.636 19.4507 157.276 17.4362 156.529 15.5685C155.888 18.6369 155.341 17.8498 154.528 19.9843C154.127 21.3585 154.074 22.826 154.381 24.2267C153.727 22.7459 152.993 21.3051 152.153 19.9043C153.153 18.5836 153.58 16.9159 153.34 15.275C153.1 13.434 152.54 11.6596 151.673 10.032C151.566 12.9003 151.032 12.2466 150.659 14.2744C150.512 15.6619 150.699 17.0627 151.192 18.3701C150.285 16.996 149.285 15.6752 148.204 14.4345C149.018 13.1538 149.271 11.5796 148.871 10.1121C148.484 8.51118 147.79 7.00366 146.83 5.66957C147.017 8.23102 146.443 7.72407 146.296 9.57845C146.31 10.9526 146.67 12.3 147.337 13.5007C146.296 12.38 145.189 11.3395 144.015 10.3522C144.669 9.11152 144.735 7.64402 144.202 6.34996C143.668 5.02921 142.854 3.82853 141.814 2.85465C142.254 5.08257 141.68 4.74905 141.747 6.41666C141.894 7.604 142.387 8.72464 143.148 9.64515C142.04 8.778 140.88 7.97754 139.679 7.24379C139.866 6.06981 139.572 4.86912 138.879 3.90857C138.132 2.85465 137.211 1.93412 136.144 1.21372C137.024 3.02808 136.477 2.81463 136.931 4.20208C137.318 5.14928 137.918 5.98976 138.692 6.65681C137.585 6.04312 136.451 5.49614 135.29 5.00253C135.33 3.89523 134.903 2.81463 134.116 2.01417C133.276 1.16035 132.248 0.493315 131.128 0.0664062C132.195 1.66731 131.635 1.6006 132.222 2.88133C132.582 3.54837 133.089 4.12204 133.729 4.5356C133.449 4.45555 133.142 4.44221 132.849 4.48223C132.021 4.73571 131.194 4.94916 130.354 5.12259C130.981 5.70959 131.755 6.10982 132.595 6.26991C133.556 6.45668 134.543 6.17652 135.263 5.52282C136.291 5.96307 137.291 6.44335 138.252 6.96364C137.825 6.80356 137.371 6.77687 136.918 6.88359C135.624 7.20377 135.93 7.44391 134.343 7.76409C135.063 8.33776 135.944 8.68461 136.851 8.778C137.891 8.89806 138.919 8.51118 139.612 7.73741C140.813 8.45782 141.96 9.25828 143.054 10.1254C142.307 9.57845 141.413 9.2983 140.493 9.31164C138.865 9.39169 139.226 9.69852 137.198 9.7252C138.092 10.4456 139.146 10.9392 140.253 11.1927C141.44 11.4995 142.694 11.3261 143.735 10.6858C144.789 11.5662 145.776 12.5268 146.696 13.5407C146.029 12.9537 145.202 12.6068 144.322 12.5401C142.414 12.4467 142.788 12.9003 140.426 12.7002C141.307 13.7275 142.441 14.5279 143.708 15.0082C145.029 15.5552 146.523 15.4751 147.777 14.7814C149.058 16.3289 150.205 17.9966 151.192 19.7309C150.539 18.5969 149.498 17.7431 148.257 17.3295C146.323 16.8226 146.616 17.3429 144.255 16.6224C144.989 17.8498 146.003 18.8904 147.217 19.6508C148.484 20.4913 150.058 20.7448 151.526 20.3045C152.38 21.8654 153.153 23.4797 153.82 25.1339C153.26 24.1734 152.406 23.413 151.379 22.9727C149.405 22.1856 149.671 22.7726 147.27 21.7053C147.937 23.0661 148.911 24.2668 150.112 25.2006C151.286 26.1879 152.807 26.6414 154.327 26.4814C154.714 27.5219 155.075 28.6026 155.421 29.7098C155.541 30.0967 155.648 30.4703 155.742 30.8572C155.248 30.1101 154.568 29.5097 153.78 29.0962C151.726 28.0689 151.966 28.7226 149.471 27.3485C150.085 28.8827 151.032 30.2702 152.246 31.3908C153.327 32.4581 154.754 33.0851 156.262 33.1518C156.609 34.9528 156.822 36.7805 156.889 38.6216C156.475 37.7144 155.862 36.9139 155.088 36.2869C153.073 34.686 153.247 35.4331 150.819 33.3519C151.259 35.1396 152.059 36.8205 153.167 38.288C154.087 39.5954 155.395 40.5827 156.916 41.103C156.862 43.2508 156.622 45.3987 156.222 47.5066C156.008 46.2392 155.461 45.0519 154.648 44.0646C152.793 41.9168 152.807 42.7572 150.592 40.0223C150.659 42.0368 151.166 44.0246 152.046 45.839C152.793 47.5199 154.087 48.894 155.728 49.7478C155.195 51.8424 154.501 53.8969 153.647 55.8847C153.634 54.6039 153.274 53.3499 152.633 52.2426C151.099 49.6811 150.966 50.5483 149.178 47.3198C148.884 49.4143 149.044 51.5355 149.645 53.5633C150.112 55.3644 151.139 56.9786 152.593 58.1526C151.526 60.2605 150.245 62.2749 148.804 64.1427C149.165 62.7552 149.138 61.2877 148.698 59.9136C147.764 57.1254 147.457 57.8991 146.416 54.4038C145.696 56.3249 145.402 58.3927 145.549 60.4472C145.616 62.355 146.323 64.196 147.55 65.6635C145.976 67.4645 144.215 69.0788 142.294 70.4929C142.974 69.0388 143.241 67.4245 143.054 65.8369C142.641 62.7819 142.201 63.529 141.8 59.7268C140.76 61.5812 140.106 63.649 139.906 65.7702C139.652 67.718 139.999 69.7058 140.907 71.4668C139.065 72.6541 137.091 73.628 135.037 74.3484C135.023 74.3618 134.756 74.4685 134.316 74.6686C135.45 73.4813 136.144 71.9604 136.317 70.3328C136.571 67.171 135.89 67.758 136.344 63.8758C134.73 65.3167 133.489 67.131 132.742 69.1588C131.928 71.16 131.875 73.4012 132.622 75.4424C128.953 77.11 122.243 80.2584 120.775 81.5792C119.895 82.3796 120.575 83.567 121.122 83.1401C122.203 82.2863 125.151 80.4852 126.285 79.7115C128.166 78.4841 130.114 77.4835 132.115 76.603ZM135.17 5.29603L135.183 5.32271L135.13 5.28269L135.17 5.29603Z" fill="#6A6E81"/>
<path fill-rule="evenodd" clip-rule="evenodd" d="M38.7152 79.605C39.8492 80.3788 42.7975 82.1798 43.8782 83.0336C44.4251 83.4605 45.1055 82.2732 44.225 81.4728C42.7575 80.152 36.0471 77.0036 32.365 75.3359C33.1121 73.2948 33.0587 71.0669 32.2449 69.0524C31.4845 67.0246 30.2571 65.2102 28.6429 63.7694C29.0965 67.6516 28.4027 67.0779 28.6696 70.2264C28.8296 71.854 29.5367 73.3748 30.6707 74.5622C30.2438 74.3754 29.977 74.2553 29.9503 74.242C27.8824 73.5082 25.9213 72.5477 24.0803 71.3604C24.9875 69.6127 25.3343 67.6249 25.0809 65.6638C24.8674 63.5426 24.227 61.4881 23.1864 59.6204C22.7862 63.4225 22.346 62.6755 21.9191 65.7305C21.7323 67.3314 21.9991 68.9457 22.6795 70.3865C20.7451 68.9723 18.9841 67.3581 17.4232 65.5571C18.6506 64.0896 19.3443 62.2485 19.4243 60.3408C19.5711 58.2863 19.2776 56.2318 18.5438 54.2974C17.5032 57.7927 17.1831 57.0056 16.2625 59.8072C15.8356 61.1813 15.7956 62.6488 16.1691 64.0362C14.715 62.1685 13.4476 60.1674 12.367 58.0462C13.8212 56.8722 14.8484 55.2713 15.3153 53.4569C15.9157 51.4291 16.0758 49.3079 15.7823 47.2134C13.9946 50.4419 13.8478 49.5881 12.3136 52.1362C11.6733 53.2435 11.3264 54.4975 11.2997 55.7782C10.4459 53.7904 9.75218 51.7359 9.21855 49.6414C10.8461 48.7876 12.1535 47.4135 12.9006 45.7325C13.7945 43.9182 14.2881 41.9304 14.3548 39.9159C12.1402 42.6508 12.1535 41.8237 10.2992 43.9582C9.47202 44.9454 8.92505 46.1328 8.72494 47.4001C8.32471 45.2923 8.08457 43.1444 8.03121 40.9965C9.55207 40.4762 10.8595 39.5023 11.78 38.1816C12.8873 36.7141 13.6877 35.0332 14.128 33.2455C11.7 35.3133 11.86 34.5662 9.85891 36.1805C9.08514 36.8075 8.47146 37.6079 8.05789 38.5151C8.1246 36.6741 8.33805 34.8464 8.68491 33.0454C10.1924 32.9787 11.6332 32.3516 12.7005 31.2844C13.9145 30.1637 14.8617 28.7896 15.4754 27.2421C12.9673 28.6028 13.2208 27.9625 11.1663 28.9897C10.3659 29.4033 9.69882 30.0036 9.20521 30.7507C9.31193 30.3638 9.41866 29.9903 9.52539 29.6034C9.85891 28.4828 10.2325 27.4155 10.6193 26.3749C12.1402 26.5484 13.6611 26.0814 14.8351 25.0942C16.0357 24.1603 17.0096 22.9597 17.6767 21.5989C15.2753 22.6528 15.5421 22.0792 13.5677 22.8663C12.5404 23.3065 11.6866 24.0669 11.1263 25.0408C11.7933 23.3866 12.5538 21.7723 13.4209 20.2114C14.8884 20.6383 16.4626 20.3982 17.73 19.5577C18.944 18.7973 19.958 17.7567 20.6917 16.5294C18.317 17.2498 18.6239 16.7295 16.6894 17.2364C15.4487 17.65 14.4082 18.5038 13.7544 19.6378C14.755 17.8901 15.9023 16.2359 17.1697 14.6883C18.4238 15.3687 19.9179 15.4487 21.2387 14.9151C22.5061 14.4348 23.64 13.6477 24.5205 12.6071C22.1725 12.8072 22.5327 12.367 20.625 12.447C19.7445 12.5004 18.904 12.8606 18.2503 13.4476C19.1708 12.4337 20.1714 11.4865 21.212 10.5927C22.2526 11.2197 23.5066 11.4065 24.694 11.0996C25.8146 10.8461 26.8552 10.3525 27.7624 9.63211C25.7346 9.60543 26.1081 9.29859 24.4672 9.21855C23.5467 9.20521 22.6528 9.48537 21.9057 10.0323C22.9997 9.16518 24.147 8.36473 25.3477 7.64432C26.0414 8.4181 27.082 8.80498 28.1092 8.68491C29.0298 8.59153 29.8969 8.24466 30.6173 7.67101C29.0164 7.35082 29.3233 7.09735 28.0425 6.79051C27.6023 6.68378 27.1353 6.71046 26.7084 6.87055C27.669 6.35026 28.6696 5.86999 29.6968 5.42974C30.4172 6.09678 31.4044 6.37694 32.365 6.17683C33.2054 6.01674 33.9926 5.61651 34.6062 5.02951C33.7658 4.85608 32.9253 4.64263 32.1115 4.38915C31.818 4.34913 31.5245 4.36247 31.231 4.44251C31.858 4.02895 32.3783 3.45529 32.7385 2.78824C33.3522 1.5342 32.7919 1.60091 33.8592 0C32.7385 0.426908 31.7113 1.09395 30.8708 1.94777C30.097 2.74822 29.6701 3.81549 29.6968 4.93613C28.5361 5.4164 27.4022 5.97671 26.2949 6.59039C27.0686 5.92335 27.669 5.08288 28.0559 4.13567C28.5095 2.74822 27.9491 2.96168 28.843 1.14732C27.7757 1.86772 26.8418 2.78824 26.1081 3.84217C25.401 4.80272 25.1075 6.0034 25.3076 7.17739C24.107 7.91114 22.9463 8.69825 21.839 9.57875C22.5995 8.65823 23.0797 7.5376 23.2398 6.35026C23.3065 4.68265 22.7195 5.01617 23.1731 2.78824C22.1325 3.76213 21.3187 4.96281 20.7851 6.28355C20.2515 7.57762 20.3182 9.04512 20.9719 10.2858C19.7979 11.2597 18.6906 12.3136 17.65 13.4343C18.3304 12.2336 18.6906 10.8862 18.6906 9.51205C18.5438 7.65767 17.9835 8.16462 18.1569 5.60317C17.1964 6.93726 16.5027 8.44478 16.1158 10.0457C15.7289 11.5132 15.969 13.0874 16.7962 14.3681C15.7156 15.6088 14.715 16.9296 13.8078 18.3037C14.3014 16.9963 14.4749 15.5955 14.3281 14.208C13.9679 12.1802 13.4209 12.8339 13.3142 9.96564C12.447 11.5932 11.8734 13.3676 11.6466 15.2086C11.3931 16.8495 11.82 18.5171 12.8339 19.8379C11.9935 21.2387 11.2597 22.6795 10.606 24.1603C10.9128 22.7595 10.8595 21.292 10.4459 19.9179C9.63212 17.7834 9.09848 18.5705 8.44478 15.5021C7.69769 17.3698 7.32414 19.3843 7.37751 21.3988C7.39085 23.2932 8.258 25.0809 9.7255 26.2815C9.29859 27.4288 8.91171 28.6028 8.57819 29.8169C8.41809 30.4039 8.27135 31.0042 8.13794 31.5912C8.23132 29.9103 7.85778 28.2293 7.07067 26.7351C5.74992 24.694 5.33635 25.6545 4.00226 22.5728C3.60204 24.7073 3.62872 26.8952 4.10899 29.0164C4.5359 31.0309 5.86999 32.7252 7.72437 33.5923C7.35082 35.7536 7.13737 37.9281 7.11069 40.116C6.81719 38.2883 6.05676 36.5674 4.92278 35.1132C3.21515 33.2988 3.0684 34.3794 1.10729 31.4978C1.2407 33.7924 1.78768 36.0337 2.73488 38.1149C3.13511 38.9687 4.5359 41.5302 7.12403 42.0371C7.19073 44.0116 7.39085 45.9727 7.73771 47.9071C7.09735 46.4129 6.11012 45.0922 4.85608 44.0516C2.65484 42.5174 2.68152 43.7181 0 41.1032C0.133409 42.6241 1.80102 46.1461 3.01504 47.8137C3.61538 48.6142 5.56315 50.9755 8.4181 50.9755C8.93839 52.95 9.60543 54.871 10.4326 56.7254C9.41866 55.2979 8.07123 54.1506 6.49701 53.3769C3.92222 52.3763 4.22906 53.5636 0.933862 51.6025C1.41413 53.0967 3.89554 56.2318 5.50978 57.5926C6.2969 58.2596 8.845 60.1674 11.74 59.4069C12.6472 61.1012 13.6877 62.7155 14.8617 64.2363C13.7011 63.2358 12.3136 62.542 10.8195 62.2085C8.16462 61.8216 8.68491 62.8889 5.14958 61.7416C5.89667 63.0623 8.87169 65.5171 10.686 66.4643C11.5799 66.9312 14.3948 68.1986 17.0363 66.7978C18.2236 68.0785 19.5044 69.2525 20.8785 70.3331C19.6111 69.7728 18.237 69.5193 16.8629 69.5727C14.088 69.8262 14.8617 70.7734 11.0329 70.4932C12.0868 71.6405 15.6489 73.3482 17.69 73.8551C19.9313 74.4555 22.3193 73.9885 24.1603 72.5744C26.0414 73.695 28.0425 74.6289 30.1237 75.3226C28.336 74.7089 26.4149 74.6289 24.5739 75.0691C21.6923 76.0297 22.6928 76.8568 18.5972 77.4838C19.9313 78.4711 24.0136 79.4716 26.2682 79.525C28.8296 79.7118 31.3244 78.5911 32.8853 76.55C34.8864 77.4838 36.8342 78.4844 38.7152 79.605ZM29.8702 5.26965L29.8169 5.30967V5.28299L29.8702 5.26965Z" fill="#6A6E81"/>
</svg>