<svg width="165" height="102" viewBox="0 0 165 102" fill="none" xmlns="http://www.w3.org/2000/svg">
<path d="M59.8301 81.2538C64.6293 76.4812 67.3356 73.6017 67.3356 71.0288C67.3798 70.6163 67.3328 70.1992 67.1977 69.807C67.0626 69.4147 66.8429 69.0571 66.554 68.7593C66.2652 68.4616 65.9144 68.2311 65.5265 68.0842C65.1385 67.9373 64.723 67.8775 64.3094 67.9093C63.6375 67.9639 62.9855 68.1638 62.3986 68.4953C61.8116 68.8268 61.3037 69.2818 60.9099 69.8289L59.7368 68.6558C60.3066 67.9174 61.0347 67.3161 61.8676 66.8962C62.7004 66.4763 63.6168 66.2485 64.5494 66.2295C65.1827 66.1788 65.8196 66.2646 66.417 66.4811C67.0144 66.6977 67.5583 67.04 68.012 67.4848C68.4657 67.9297 68.8186 68.4668 69.0469 69.0598C69.2752 69.6528 69.3735 70.2878 69.3353 70.9221C69.3353 73.9216 66.669 76.9078 62.8296 80.8538C63.7095 80.7739 64.6827 80.7072 65.4959 80.7072H70.1218V82.4802H59.8168L59.8301 81.2538Z" fill="#6A6E81"/>
<path d="M71.7349 74.4548C71.7349 69.1224 73.6545 66.2295 76.854 66.2295C80.0535 66.2295 81.9599 69.109 81.9599 74.4548C81.9599 79.8007 80.0402 82.7735 76.854 82.7735C73.6679 82.7735 71.7349 79.8007 71.7349 74.4548ZM79.9602 74.4548C79.9602 69.7756 78.7071 67.8826 76.854 67.8826C75.001 67.8826 73.8012 69.7756 73.8012 74.4548C73.8012 79.1341 75.0543 81.1204 76.9207 81.1204C78.787 81.1204 79.9602 79.1341 79.9602 74.4548Z" fill="#6A6E81"/>
<path d="M83.4395 81.2535C88.2388 76.481 90.9317 73.6014 90.9317 71.0285C90.9781 70.6168 90.9329 70.1999 90.7995 69.8076C90.6661 69.4153 90.4476 69.0574 90.1598 68.7593C89.8719 68.4613 89.5218 68.2305 89.1344 68.0835C88.747 67.9365 88.3319 67.8769 87.9188 67.909C87.2377 67.9561 86.5753 68.1524 85.9786 68.4842C85.3819 68.816 84.8655 69.275 84.466 69.8287L83.2795 68.6556C83.8527 67.9175 84.5834 67.3167 85.4183 66.897C86.2532 66.4772 87.1712 66.2491 88.1055 66.2293C88.7389 66.1785 89.3758 66.2643 89.9731 66.4809C90.5705 66.6974 91.1144 67.0397 91.5681 67.4846C92.0218 67.9294 92.3748 68.4665 92.603 69.0595C92.8313 69.6525 92.9296 70.2876 92.8914 70.9219C92.8914 73.9214 90.1585 76.9076 86.3857 80.8536C87.2656 80.7736 88.2388 80.707 89.052 80.707H93.7979V82.48H83.4928L83.4395 81.2535Z" fill="#6A6E81"/>
<path d="M96.2109 80.7737H99.8637V69.0289H96.9708V67.6958C98.1602 67.5178 99.3048 67.1152 100.344 66.5093H101.917V80.7737H105.223V82.48H96.2109V80.7737Z" fill="#6A6E81"/>
<path fill-rule="evenodd" clip-rule="evenodd" d="M132.019 76.5611C132.794 77.572 133.81 78.3725 134.975 78.8894C136.139 79.4064 137.415 79.6234 138.684 79.5207C141.352 79.401 143.963 78.7051 146.336 77.481C142.257 76.8544 143.244 76.0146 140.377 75.0547C138.542 74.6176 136.62 74.7053 134.832 75.308C136.909 74.6035 138.906 73.6831 140.791 72.5618C141.7 73.2525 142.756 73.7258 143.877 73.9454C144.997 74.1649 146.153 74.1248 147.256 73.8282C149.683 73.1715 151.951 72.0285 153.922 70.4688C150.096 70.7354 150.869 69.8022 148.096 69.5489C146.723 69.4939 145.355 69.7538 144.097 70.3088C145.47 69.2374 146.754 68.0559 147.936 66.776C148.947 67.2273 150.05 67.4324 151.156 67.3745C152.261 67.3165 153.337 66.9972 154.295 66.4428C156.432 65.2547 158.309 63.6499 159.814 61.7235C156.281 62.87 156.801 61.7902 154.149 62.1901C152.669 62.5254 151.295 63.2215 150.149 64.2165C151.311 62.6904 152.354 61.077 153.269 59.3906C154.376 59.587 155.514 59.5256 156.593 59.2111C157.673 58.8967 158.666 58.3377 159.494 57.5775C161.391 55.8967 162.944 53.864 164.067 51.5918C160.761 53.5382 161.081 52.3517 158.508 53.3515C156.936 54.118 155.583 55.269 154.575 56.6977C155.386 54.8357 156.054 52.915 156.575 50.9519C157.654 50.8654 158.701 50.5363 159.635 49.9893C160.57 49.4422 161.37 48.6913 161.974 47.7924C163.399 45.7842 164.426 43.5216 165 41.1268C162.334 43.7931 162.334 42.5399 160.134 44.0864C158.877 45.1186 157.889 46.4407 157.255 47.9391C157.599 45.9965 157.804 44.0318 157.868 42.06C158.843 41.7756 159.743 41.2774 160.502 40.6018C161.26 39.9261 161.859 39.0899 162.254 38.154C163.203 36.0517 163.755 33.7917 163.88 31.4884C161.921 34.3546 161.774 33.2881 160.068 35.1011C158.896 36.5472 158.112 38.2675 157.788 40.1003C157.757 37.9145 157.552 35.7346 157.175 33.5814C158.089 33.15 158.891 32.5126 159.518 31.7193C160.145 30.926 160.579 29.9982 160.787 29.0088C161.269 26.8931 161.306 24.7003 160.894 22.5698C159.561 25.636 159.148 24.6761 157.828 26.7158C157.043 28.2125 156.679 29.8943 156.775 31.5817C156.641 30.9818 156.495 30.3952 156.321 29.7953C156.002 28.5822 155.615 27.409 155.188 26.2625C155.914 25.6645 156.498 24.9133 156.899 24.0628C157.3 23.2123 157.508 22.2836 157.508 21.3433C157.549 19.3278 157.186 17.3244 156.441 15.4509C155.802 18.5305 155.255 17.7306 154.442 19.8636C154.041 21.2424 153.99 22.6996 154.295 24.1029C153.647 22.6212 152.903 21.1828 152.069 19.7969C152.57 19.1439 152.933 18.3961 153.137 17.5987C153.341 16.8014 153.381 15.971 153.255 15.1577C153.016 13.3261 152.452 11.5519 151.589 9.9185C151.482 12.7847 150.936 12.1315 150.576 14.1578C150.434 15.5439 150.612 16.944 151.096 18.2505C150.191 16.8521 149.193 15.5159 148.109 14.2511C148.516 13.6177 148.787 12.9066 148.904 12.163C149.021 11.4194 148.982 10.6596 148.789 9.93184C148.403 8.33405 147.71 6.82642 146.75 5.49255C146.936 8.05214 146.363 7.54555 146.23 9.39859C146.234 10.7727 146.592 12.1225 147.27 13.318C146.232 12.1984 145.124 11.1475 143.95 10.1718C144.273 9.55961 144.456 8.88402 144.489 8.19289C144.521 7.50176 144.401 6.81199 144.137 6.17244C143.602 4.8908 142.803 3.7368 141.79 2.78632C142.244 5.01262 141.657 4.67935 141.724 6.34574C141.874 7.53231 142.36 8.6514 143.124 9.57189C142.013 8.70265 140.851 7.90131 139.644 7.17228C139.74 6.5936 139.718 6.00168 139.581 5.43151C139.443 4.86135 139.193 4.32453 138.844 3.85281C138.104 2.80439 137.178 1.90069 136.111 1.18657C136.991 2.99961 136.445 2.78632 136.898 4.17276C137.282 5.11805 137.885 5.95871 138.658 6.6257C137.557 6.01081 136.422 5.4589 135.258 4.97263C135.275 4.42134 135.18 3.8723 134.979 3.35893C134.777 2.84557 134.473 2.3786 134.085 1.98644C133.251 1.12502 132.242 0.452264 131.126 0.0134277C132.192 1.61317 131.619 1.54651 132.219 2.82631C132.573 3.49551 133.092 4.06415 133.725 4.47938C133.435 4.41975 133.136 4.41975 132.845 4.47938C132.024 4.74573 131.187 4.95946 130.339 5.11927C130.963 5.71107 131.746 6.10928 132.592 6.26576C133.064 6.36355 133.552 6.3468 134.016 6.2169C134.48 6.08701 134.906 5.84775 135.258 5.51921C136.285 5.95914 137.285 6.43906 138.244 6.95898C137.818 6.80227 137.356 6.7699 136.911 6.86566C135.578 7.18561 135.938 7.4389 134.338 7.75885C135.063 8.32276 135.931 8.67359 136.845 8.77202C137.356 8.8316 137.875 8.76835 138.357 8.58751C138.839 8.40667 139.271 8.11346 139.618 7.73219C140.812 8.45549 141.961 9.25246 143.057 10.1185C142.308 9.55426 141.395 9.25001 140.457 9.25194C138.831 9.33193 139.124 9.63855 137.165 9.66521C138.061 10.3816 139.11 10.8833 140.231 11.1316C140.808 11.2867 141.41 11.3265 142.002 11.2487C142.595 11.171 143.166 10.9772 143.684 10.6784C144.728 11.5626 145.716 12.511 146.643 13.5179C145.982 12.937 145.148 12.5903 144.27 12.5314C142.364 12.4381 142.724 12.878 140.377 12.6781C141.255 13.7154 142.384 14.5096 143.657 14.9844C144.308 15.2554 145.012 15.3758 145.716 15.3366C146.42 15.2973 147.106 15.0994 147.723 14.7577C148.986 16.3035 150.123 17.9486 151.122 19.6769C150.471 18.545 149.428 17.6911 148.189 17.2773C146.256 16.7574 146.55 17.2773 144.19 16.5708C144.916 17.7962 145.921 18.833 147.123 19.5969C147.75 20.0124 148.46 20.286 149.204 20.3989C149.948 20.5117 150.707 20.4609 151.429 20.2502C152.315 21.8081 153.103 23.4199 153.789 25.0761C153.23 24.1167 152.38 23.3603 151.362 22.9164C149.389 22.1299 149.656 22.7031 147.256 21.65C147.926 23.0144 148.897 24.2088 150.096 25.1427C150.675 25.6293 151.347 25.9926 152.072 26.2104C152.796 26.4281 153.557 26.4958 154.309 26.4092C154.695 27.449 155.055 28.5288 155.402 29.6487L155.722 30.7952C155.238 30.0531 154.573 29.4473 153.789 29.0354C151.736 27.9956 151.976 28.6488 149.483 27.289C150.099 28.8112 151.046 30.1773 152.255 31.2884C153.325 32.3493 154.75 32.9762 156.255 33.0481C156.596 34.8525 156.805 36.6792 156.881 38.5139C156.465 37.6067 155.845 36.8082 155.068 36.181C153.069 34.5812 153.229 35.3278 150.802 33.2614C151.243 35.0433 152.041 36.717 153.149 38.1806C154.072 39.4875 155.382 40.4714 156.895 40.9935C156.844 43.1422 156.612 45.2828 156.202 47.3925C155.972 46.1411 155.416 44.9727 154.588 44.0064C152.735 41.86 152.749 42.6732 150.589 40.007C150.658 42.0311 151.158 44.0171 152.056 45.8327C152.795 47.5125 154.089 48.8869 155.722 49.7254C155.203 51.8291 154.508 53.885 153.642 55.8711C153.628 54.5921 153.283 53.3385 152.642 52.2317C151.109 49.6721 150.976 50.5253 149.176 47.2992C148.883 49.3883 149.042 51.5159 149.643 53.5382C150.108 55.3432 151.14 56.9509 152.589 58.1241C151.495 60.1991 150.21 62.1674 148.749 64.0032C149.108 62.6165 149.071 61.1572 148.643 59.7905C147.71 56.9909 147.403 57.7775 146.363 54.2847C145.633 56.2095 145.333 58.2707 145.483 60.3237C145.554 62.2347 146.258 64.068 147.483 65.5362C145.908 67.3312 144.142 68.9494 142.217 70.3621C142.903 68.9088 143.171 67.2931 142.99 65.6962C142.564 62.6434 142.124 63.3899 141.724 59.5905C140.687 61.4532 140.043 63.5084 139.831 65.6296C139.578 67.5845 139.927 69.5701 140.831 71.322C138.989 72.5061 137.016 73.4724 134.952 74.2015L134.245 74.5215C135.369 73.337 136.067 71.8131 136.231 70.1888C136.498 67.0293 135.805 67.6159 136.231 63.7365C134.61 65.1899 133.374 67.0218 132.632 69.069C131.813 71.0697 131.77 73.3041 132.512 75.3347C128.846 77.0011 122.14 80.1606 120.661 81.4803C119.781 82.2669 120.461 83.4534 121.007 83.0268C122.087 82.1736 125.007 80.3605 126.166 79.6006C128.053 78.4679 130.007 77.4528 132.019 76.5611V76.5611Z" fill="#6A6E81"/>
<path fill-rule="evenodd" clip-rule="evenodd" d="M38.6871 79.5606C39.8203 80.3338 42.7664 82.1335 43.8463 82.9867C44.3929 83.4133 45.0728 82.2268 44.1929 81.4269C42.7265 80.0938 36.0209 76.961 32.3414 75.2946C33.0893 73.2604 33.0465 71.0197 32.2215 69.0156C31.4799 66.9684 30.2433 65.1365 28.622 63.6831C29.0753 67.5625 28.3954 66.9892 28.622 70.1487C28.7847 71.7722 29.4891 73.2936 30.6217 74.468L29.9019 74.1614C27.8412 73.4276 25.8727 72.4568 24.0361 71.2686C24.9432 69.5227 25.2878 67.5389 25.0226 65.5895C24.8139 63.4863 24.174 61.4487 23.1429 59.6038C22.743 63.4032 22.3031 62.6566 21.8898 65.7094C21.7054 67.3008 21.9686 68.912 22.6497 70.362C20.7224 68.9567 18.9604 67.3377 17.3972 65.5361C18.6175 64.0661 19.316 62.233 19.3835 60.3236C19.5308 58.2762 19.2353 56.221 18.517 54.2979C17.4772 57.7907 17.1839 56.9642 16.224 59.7904C15.8003 61.1629 15.768 62.6265 16.1307 64.0164C14.6765 62.1494 13.4084 60.1446 12.3447 58.0307C13.7981 56.862 14.8321 55.2525 15.2908 53.4448C15.8778 51.4246 16.0368 49.3042 15.7574 47.2191C13.9577 50.4452 13.8244 49.592 12.2913 52.1383C11.6521 53.2466 11.3036 54.4985 11.2782 55.7777C10.4263 53.7909 9.73101 51.7405 9.19851 49.6454C10.8382 48.8059 12.1378 47.4262 12.8779 45.7393C13.771 43.9276 14.2664 41.9458 14.331 39.9269C12.1314 42.5932 12.1314 41.8333 10.3317 43.9263C9.50643 44.9113 8.95881 46.0986 8.74526 47.3657C8.34818 45.254 8.11638 43.1145 8.05201 40.9668C9.57023 40.4487 10.886 39.4642 11.8114 38.1539C12.9194 36.6855 13.7177 35.0074 14.1577 33.2213C11.7181 35.2877 11.8914 34.5545 9.87838 36.1542C9.10587 36.782 8.4898 37.5806 8.0787 38.4872C8.14681 36.6518 8.35629 34.8245 8.70527 33.0214C10.2101 32.9495 11.6349 32.3225 12.7046 31.2616C13.9156 30.152 14.863 28.7855 15.4775 27.2623C12.9712 28.5954 13.2245 27.9822 11.1715 29.0087C10.3777 29.4168 9.70272 30.0229 9.21182 30.7684C9.30514 30.3818 9.41181 30.0085 9.53179 29.6219C9.86507 28.5154 10.2383 27.4356 10.6249 26.3958C11.3809 26.4733 12.1448 26.395 12.8694 26.1657C13.594 25.9364 14.2638 25.561 14.8376 25.0626C16.0364 24.1338 17.0075 22.9438 17.6771 21.5832C15.2775 22.6364 15.5442 22.0498 13.5711 22.8363C12.5458 23.3074 11.6963 24.0915 11.1449 25.076C11.8088 23.4215 12.5746 21.8098 13.4378 20.2501C14.1591 20.4673 14.9197 20.5214 15.6644 20.4084C16.4091 20.2954 17.1194 20.0182 17.7438 19.5969C18.9556 18.8362 19.9699 17.7991 20.7033 16.5707C18.3304 17.2906 18.637 16.7706 16.704 17.2772C15.4655 17.691 14.422 18.5449 13.7711 19.6768C14.7582 17.9156 15.8955 16.243 17.1705 14.6776C17.7897 15.0135 18.476 15.207 19.1795 15.2439C19.8829 15.2808 20.5857 15.1602 21.2366 14.8909C22.4862 14.4261 23.5998 13.6562 24.4761 12.6513C22.1298 12.8513 22.4897 12.398 20.5833 12.4913C19.7037 12.5539 18.8695 12.9054 18.2104 13.4912C19.1478 12.4891 20.1498 11.5495 21.2099 10.6783C21.7269 10.9901 22.3016 11.1945 22.8994 11.2792C23.4972 11.364 24.106 11.3274 24.6894 11.1715C25.8118 10.9287 26.8619 10.4265 27.7555 9.70511C25.7292 9.70511 26.0891 9.37183 24.4627 9.30517C23.546 9.29162 22.649 9.57192 21.9031 10.105C22.999 9.23903 24.1477 8.44206 25.3426 7.71876C25.6888 8.10003 26.121 8.39324 26.6032 8.57408C27.0855 8.75492 27.6039 8.81818 28.1155 8.75859C29.0304 8.66653 29.8999 8.31502 30.6217 7.74542C29.022 7.42547 29.2886 7.17218 28.0355 6.86556C27.5933 6.75603 27.1283 6.78393 26.7024 6.94555C27.6622 6.42563 28.662 5.94571 29.6886 5.50578C30.0415 5.83387 30.467 6.07377 30.9304 6.20584C31.3938 6.33791 31.8819 6.35841 32.3548 6.26566C33.1958 6.10604 33.9732 5.70808 34.5944 5.11918C33.7546 4.94587 32.928 4.73257 32.1015 4.47928C31.8119 4.41305 31.5112 4.41305 31.2216 4.47928C31.8521 4.0606 32.3696 3.49279 32.7281 2.82621C33.3146 1.49309 32.7281 1.59974 33.8212 0C32.698 0.427649 31.6797 1.09138 30.835 1.94635C30.449 2.33987 30.1463 2.80708 29.9447 3.32012C29.7432 3.83316 29.647 4.38153 29.6619 4.93254C28.5008 5.4242 27.3661 5.97596 26.2624 6.58561C27.0347 5.91862 27.6378 5.07796 28.0222 4.13267C28.4754 2.79955 27.9288 2.97286 28.8087 1.14648C27.7425 1.86083 26.8163 2.7645 26.0758 3.81272C25.726 4.28652 25.4738 4.82521 25.3342 5.39739C25.1946 5.96958 25.1703 6.56383 25.2626 7.14552C24.0625 7.88202 22.9094 8.69234 21.8098 9.5718C22.5685 8.64825 23.0534 7.53066 23.2096 6.34565C23.2762 4.67925 22.6897 5.01253 23.1429 2.78622C22.1067 3.7691 21.2891 4.95918 20.7433 6.27899C20.4814 6.91951 20.3635 7.60979 20.3981 8.30093C20.4326 8.99207 20.6188 9.66716 20.9433 10.2783C19.773 11.2577 18.6644 12.3084 17.6238 13.4245C18.2915 12.2251 18.649 10.8778 18.6637 9.50514C18.517 7.6521 17.9571 8.17202 18.1437 5.5991C17.188 6.93582 16.4957 8.44247 16.1041 10.0384C15.9121 10.7655 15.8722 11.5244 15.9869 12.2676C16.1015 13.0108 16.3684 13.7223 16.7706 14.3577C15.6943 15.6284 14.6971 16.9641 13.7844 18.3571C14.2793 17.0532 14.4619 15.6515 14.3177 14.2644C13.9444 12.238 13.3978 12.9313 13.3045 10.0384C12.4324 11.6678 11.8675 13.4437 11.6381 15.2775C11.5138 16.0879 11.5536 16.9149 11.7551 17.7096C11.9566 18.5043 12.3158 19.2503 12.8113 19.9035C11.9842 21.2956 11.2451 22.7382 10.5983 24.2228C10.9056 22.819 10.8506 21.3601 10.4383 19.9835C9.6251 17.8505 9.10519 18.6503 8.43863 15.5575C7.6878 17.4292 7.32499 19.4338 7.37215 21.4499C7.37917 22.3859 7.59315 23.3087 7.9988 24.1523C8.40444 24.9958 8.99167 25.7392 9.71841 26.3291C9.29181 27.4756 8.90523 28.6487 8.57195 29.8619C8.41197 30.4618 8.26531 31.0483 8.132 31.6483C8.22397 29.9596 7.85535 28.2777 7.06552 26.7824C5.7324 24.7427 5.34578 25.7025 4.01266 22.6364C3.60109 24.7668 3.63743 26.9597 4.11933 29.0753C4.32746 30.0648 4.76193 30.9925 5.38874 31.7859C6.01555 32.5792 6.81764 33.2166 7.73208 33.6479C7.34779 35.8002 7.14268 37.9807 7.11885 40.1669C6.81664 38.3448 6.06522 36.6266 4.93252 35.1677C3.22612 33.3546 3.07949 34.4345 1.10647 31.5549C1.23624 33.8591 1.79224 36.1192 2.74622 38.2205C3.15386 39.1391 3.75968 39.9561 4.52027 40.613C5.28086 41.2699 6.17736 41.7503 7.1455 42.0199C7.20319 43.9921 7.40816 45.9573 7.75872 47.899C7.12283 46.3833 6.12496 45.0467 4.85253 44.0063C2.65289 42.4598 2.67957 43.6597 0 41.0467C0.568403 43.441 1.59117 45.7038 3.01282 47.7123C3.62044 48.6297 4.42777 49.3976 5.37434 49.9587C6.32091 50.5197 7.38219 50.8592 8.47862 50.9518C8.99079 52.9174 9.65949 54.8387 10.4783 56.6976C9.46962 55.2726 8.11671 54.1261 6.54558 53.3648C3.97266 52.3649 4.2793 53.5514 0.986495 51.5917C2.10929 53.8639 3.66216 55.8966 5.55908 57.5774C6.38777 58.3376 7.3805 58.8966 8.46019 59.211C9.53988 59.5255 10.6775 59.5869 11.7848 59.3905C12.6991 61.0769 13.742 62.6903 14.9043 64.2164C13.7556 63.2259 12.3829 62.5304 10.9049 62.19C8.23867 61.7901 8.77192 62.8699 5.23915 61.7234C6.74469 63.6498 8.62141 65.2546 10.7582 66.4427C11.7174 66.9932 12.7923 67.3112 13.8966 67.3714C15.0009 67.4316 16.1039 67.2322 17.1172 66.7893C18.3027 68.0614 19.5864 69.2382 20.9566 70.3087C19.6985 69.755 18.3308 69.4952 16.9572 69.5488C14.1844 69.8021 14.9576 70.7486 11.1315 70.4687C13.0997 72.0335 15.3685 73.177 17.7971 73.8281C18.9 74.1247 20.0561 74.1648 21.1769 73.9453C22.2977 73.7257 23.3533 73.2524 24.2627 72.5617C26.1476 73.683 28.1449 74.6034 30.2218 75.3079C28.4335 74.7053 26.5118 74.6175 24.676 75.0546C21.8098 76.0145 22.7963 76.8543 18.7037 77.4809C21.0831 78.7022 23.6973 79.3978 26.3691 79.5206C27.6389 79.6233 28.9143 79.4063 30.0786 78.8893C31.243 78.3724 32.2593 77.5719 33.0347 76.561C34.9771 77.447 36.8646 78.4486 38.6871 79.5606V79.5606Z" fill="#6A6E81"/>
<path d="M51.6318 13.6777H54.698C56.6711 13.6777 58.1241 14.2776 58.1241 16.0374C58.1413 16.4787 58.0227 16.9147 57.7843 17.2866C57.5459 17.6585 57.1992 17.9483 56.791 18.117V18.1837C57.323 18.2684 57.805 18.5466 58.1445 18.9648C58.484 19.3831 58.6571 19.9119 58.6307 20.45C58.6307 22.3697 57.0576 23.2629 54.938 23.2629H51.6318V13.6777ZM54.5514 17.6771C55.8845 17.6771 56.4577 17.1438 56.4577 16.344C56.4577 15.5441 55.8312 15.0109 54.578 15.0109H53.3249V17.6771H54.5514ZM54.7647 21.9831C56.1778 21.9831 56.9643 21.4765 56.9643 20.3967C56.9643 19.3168 56.2044 18.9569 54.7647 18.9569H53.3249V21.9831H54.7647Z" fill="#6A6E81"/>
<path d="M59.6171 19.6769C59.579 19.2088 59.6353 18.7379 59.7828 18.292C59.9302 17.8461 60.1657 17.4343 60.4753 17.0812C60.7849 16.7281 61.1623 16.4407 61.5851 16.2362C62.0079 16.0318 62.4675 15.9143 62.9366 15.8909C64.8829 15.8909 65.9094 17.304 65.9094 19.3037C65.9134 19.5807 65.8911 19.8574 65.8427 20.1302H61.2702C61.2753 20.4021 61.3344 20.6703 61.4441 20.9192C61.5538 21.1681 61.7118 21.3927 61.909 21.58C62.1062 21.7672 62.3387 21.9135 62.5929 22.0102C62.8471 22.1069 63.118 22.1521 63.3898 22.1432C63.9896 22.1321 64.5732 21.9468 65.0696 21.61L65.6294 22.6631C64.9046 23.1544 64.052 23.4231 63.1765 23.4363C62.6878 23.4513 62.2014 23.3626 61.7494 23.1762C61.2973 22.9899 60.8898 22.7099 60.5537 22.3549C60.2175 21.9998 59.9603 21.5777 59.7988 21.1161C59.6374 20.6546 59.5755 20.1641 59.6171 19.6769V19.6769ZM64.443 18.9837C64.443 17.8639 63.9631 17.1973 62.9765 17.1973C62.5143 17.2177 62.0773 17.414 61.7551 17.7462C61.4329 18.0783 61.2498 18.521 61.2435 18.9837H64.443Z" fill="#6A6E81"/>
<path d="M66.656 22.4498L67.4558 21.3567C68.0016 21.8532 68.705 22.1411 69.4422 22.1699C70.2288 22.1699 70.5887 21.7966 70.5887 21.3033C70.5887 20.8101 69.8155 20.4368 69.0556 20.1435C68.2957 19.8502 67.1359 19.2503 67.1359 18.0505C67.1359 16.8507 68.1357 15.8909 69.8021 15.8909C70.6766 15.902 71.5219 16.2072 72.2017 16.7574L71.4286 17.7839C70.9809 17.4118 70.4237 17.1964 69.8421 17.1707C69.1223 17.1707 68.7757 17.5039 68.7757 17.9572C68.7757 18.4105 69.4688 18.7437 70.2421 19.0237C71.2286 19.397 72.3084 19.8636 72.3084 21.21C72.3084 22.5565 71.3219 23.4363 69.5089 23.4363C68.4735 23.441 67.4674 23.0931 66.656 22.4498V22.4498Z" fill="#6A6E81"/>
<path d="M73.5081 20.8367V17.344H72.4683V16.1442L73.5881 16.0642L73.788 14.1045H75.2011V16.0109H77.0275V17.344H75.2011V20.7834C75.2011 21.6233 75.5211 22.0366 76.2143 22.0366C76.4711 22.031 76.7244 21.9767 76.9609 21.8766L77.2542 23.1297C76.7823 23.2932 76.287 23.3787 75.7877 23.383C74.1213 23.4363 73.5081 22.3832 73.5081 20.8367Z" fill="#6A6E81"/>
<path d="M81.3335 13.6777H87.1326V15.1175H83.0399V17.7837H86.5327V19.2235H83.0399V23.2229H81.3335V13.6777Z" fill="#6A6E81"/>
<path d="M87.8257 19.6767C87.7737 19.1966 87.8234 18.7109 87.9715 18.2513C88.1196 17.7917 88.3629 17.3684 88.6855 17.009C89.008 16.6496 89.4027 16.3622 89.8437 16.1654C90.2847 15.9686 90.7622 15.8669 91.2451 15.8669C91.728 15.8669 92.2055 15.9686 92.6465 16.1654C93.0876 16.3622 93.4822 16.6496 93.8048 17.009C94.1273 17.3684 94.3706 17.7917 94.5188 18.2513C94.6669 18.7109 94.7166 19.1966 94.6646 19.6767C94.7166 20.1568 94.6669 20.6425 94.5188 21.1022C94.3706 21.5618 94.1273 21.9851 93.8048 22.3445C93.4822 22.7039 93.0876 22.9913 92.6465 23.1881C92.2055 23.3848 91.728 23.4865 91.2451 23.4865C90.7622 23.4865 90.2847 23.3848 89.8437 23.1881C89.4027 22.9913 89.008 22.7039 88.6855 22.3445C88.3629 21.9851 88.1196 21.5618 87.9715 21.1022C87.8234 20.6425 87.7737 20.1568 87.8257 19.6767ZM92.9448 19.6767C92.9448 18.2236 92.2916 17.2638 91.2384 17.2638C90.1853 17.2638 89.5454 18.2236 89.5454 19.6767C89.5454 21.1298 90.1853 22.063 91.2384 22.063C92.2916 22.063 92.9448 21.1165 92.9448 19.6767V19.6767Z" fill="#6A6E81"/>
<path d="M96.1978 16.0106H97.5309L97.6509 17.3438C97.8278 16.9398 98.1109 16.5914 98.47 16.3355C98.8292 16.0797 99.251 15.9259 99.6906 15.8907C99.9738 15.8737 100.257 15.924 100.517 16.0373L100.224 17.5037C99.9838 17.4207 99.7312 17.3801 99.4773 17.3838C98.904 17.3838 98.2108 17.7837 97.7709 18.8635V23.2628H96.1978V16.0106Z" fill="#6A6E81"/>
<path d="M100.903 19.6769C100.865 19.2099 100.921 18.74 101.068 18.2949C101.214 17.8499 101.449 17.4387 101.757 17.0858C102.065 16.7328 102.441 16.4452 102.862 16.24C103.284 16.0348 103.742 15.916 104.21 15.8909C106.169 15.8909 107.196 17.304 107.196 19.3037C107.203 19.5814 107.176 19.859 107.116 20.1302H102.543C102.55 20.4027 102.611 20.6712 102.722 20.9202C102.833 21.1691 102.992 21.3936 103.191 21.5807C103.389 21.7679 103.622 21.9139 103.877 22.0104C104.132 22.107 104.404 22.1521 104.676 22.1432C105.272 22.1318 105.851 21.9465 106.343 21.61L106.916 22.6631C106.185 23.1527 105.329 23.4211 104.45 23.4363C103.962 23.4493 103.477 23.3593 103.027 23.1721C102.576 22.9848 102.17 22.7046 101.836 22.3498C101.501 21.9949 101.245 21.5734 101.084 21.1129C100.924 20.6523 100.862 20.163 100.903 19.6769V19.6769ZM105.729 18.9837C105.729 17.8639 105.236 17.1973 104.263 17.1973C103.8 17.2145 103.361 17.4098 103.038 17.7426C102.715 18.0754 102.533 18.52 102.53 18.9837H105.729Z" fill="#6A6E81"/>
<path d="M109.902 19.5171L107.769 16.011H109.582L110.395 17.3441C110.595 17.744 110.835 18.1706 111.049 18.5706C111.235 18.1706 111.435 17.744 111.608 17.3441L112.302 16.011H114.048L111.915 19.6504L114.208 23.2098H112.462L111.582 21.7967L110.849 20.4636C110.649 20.8769 110.422 21.3035 110.222 21.7967L109.462 23.2098H107.702L109.902 19.5171Z" fill="#6A6E81"/>
<path d="M24.6223 30.2085H30.4081V31.6483H26.3287V34.1012H29.8082V35.541H26.3687V38.3672H30.5947V39.807H24.6623L24.6223 30.2085Z" fill="#6A6E81"/>
<path d="M31.635 36.2074C31.635 33.8611 33.1148 32.4346 34.6879 32.4346C35.0397 32.4344 35.3881 32.5037 35.713 32.6387C36.0379 32.7737 36.3328 32.9717 36.5809 33.2212L36.4742 32.008V29.3418H38.1673V39.7001H36.7675L36.6609 38.9269H36.5942C36.0628 39.495 35.3314 39.8344 34.5545 39.8734C32.7948 40.0068 31.635 38.5936 31.635 36.2074ZM36.4742 37.7804V34.421C36.0814 34.039 35.5558 33.824 35.0078 33.8211C34.0879 33.8211 33.3414 34.6876 33.3414 36.194C33.3414 37.7005 33.928 38.5936 34.9678 38.5936C35.2645 38.5829 35.5547 38.5039 35.8159 38.3629C36.0772 38.2219 36.3025 38.0226 36.4742 37.7804V37.7804Z" fill="#6A6E81"/>
<path d="M40.1267 37.1272V32.6079H41.8065V36.9006C41.8065 38.087 42.1531 38.527 42.9263 38.527C43.6995 38.527 43.9794 38.2337 44.526 37.5271V32.6079H46.2191V39.8068H44.886L44.7526 38.7536C44.4885 39.1248 44.1412 39.4291 43.7384 39.6421C43.3356 39.8551 42.8886 39.9708 42.433 39.9801C40.8066 40.0067 40.1267 38.9402 40.1267 37.1272Z" fill="#6A6E81"/>
<path d="M47.7388 36.2073C47.7075 35.7184 47.7777 35.2283 47.9452 34.7679C48.1127 34.3075 48.3738 33.8868 48.712 33.5323C49.0501 33.1779 49.4581 32.8973 49.9101 32.7084C50.3622 32.5194 50.8484 32.4262 51.3382 32.4346C52.1201 32.4262 52.8766 32.7116 53.4579 33.2345L52.6314 34.341C52.4765 34.1773 52.2908 34.0458 52.0848 33.9543C51.8789 33.8628 51.6569 33.813 51.4316 33.8077C50.2718 33.8077 49.4719 34.7542 49.4719 36.2073C49.4719 37.6604 50.2584 38.6069 51.3916 38.6069C51.9403 38.577 52.4623 38.3607 52.8713 37.9937L53.5646 39.1002C52.9119 39.663 52.0801 39.9749 51.2183 39.9801C50.7332 39.9901 50.2515 39.897 49.805 39.7069C49.3586 39.5168 48.9577 39.2341 48.6288 38.8774C48.2998 38.5208 48.0504 38.0983 47.8969 37.638C47.7435 37.1777 47.6897 36.69 47.7388 36.2073V36.2073Z" fill="#6A6E81"/>
<path d="M54.3111 37.874C54.3111 36.3276 55.5775 35.5277 58.5504 35.2078C58.5504 34.4479 58.2038 33.808 57.2172 33.808C56.49 33.8545 55.7894 34.0989 55.1909 34.5146L54.5777 33.3814C55.4575 32.7997 56.4828 32.4764 57.5372 32.4482C59.3236 32.4482 60.2034 33.5414 60.2034 35.5544V39.8204H58.8703L58.7503 39.0339H58.6837C58.0841 39.6094 57.3001 39.9541 56.4707 40.007C56.1839 40.0285 55.8958 39.9883 55.6258 39.8891C55.3558 39.7899 55.1102 39.634 54.9056 39.4319C54.701 39.2298 54.542 38.9861 54.4394 38.7174C54.3369 38.4487 54.2931 38.1611 54.3111 37.874V37.874ZM58.5504 37.874V36.261C56.5773 36.5009 55.8841 37.0208 55.8841 37.7407C55.8841 38.4606 56.3241 38.6606 56.924 38.6606C57.2339 38.6449 57.5375 38.5673 57.8169 38.4322C58.0962 38.297 58.3457 38.1073 58.5504 37.874V37.874Z" fill="#6A6E81"/>
<path d="M62.1232 37.3406V33.9411H61.0967V32.6747L62.2165 32.608L62.4165 30.635H63.8296V32.608H65.656V33.9411H63.8296V37.3406C63.8296 38.1938 64.1495 38.6071 64.8294 38.6071C65.0898 38.5966 65.3467 38.5425 65.5893 38.4471L65.8826 39.6869C65.4113 39.8542 64.9161 39.9443 64.4161 39.9535C62.7364 40.0068 62.1232 38.927 62.1232 37.3406Z" fill="#6A6E81"/>
<path d="M66.8559 30.3817C66.8452 30.1794 66.8955 29.9785 67.0001 29.805C67.1048 29.6315 67.259 29.4934 67.443 29.4085C67.6269 29.3236 67.8321 29.2957 68.032 29.3286C68.2319 29.3615 68.4174 29.4535 68.5644 29.5928C68.7115 29.7322 68.8135 29.9124 68.8571 30.1103C68.9007 30.3081 68.884 30.5145 68.8091 30.7027C68.7342 30.891 68.6047 31.0525 68.4371 31.1664C68.2695 31.2802 68.0716 31.3412 67.869 31.3415C67.7377 31.3529 67.6054 31.3363 67.4809 31.2928C67.3564 31.2493 67.2425 31.18 67.1468 31.0893C67.0511 30.9986 66.9756 30.8886 66.9255 30.7667C66.8754 30.6447 66.8516 30.5135 66.8559 30.3817V30.3817ZM67.0159 32.608H68.7089V39.8068H67.0159V32.608Z" fill="#6A6E81"/>
<path d="M70.2416 36.2076C70.1996 35.7322 70.257 35.2534 70.4102 34.8014C70.5633 34.3495 70.8087 33.9343 71.131 33.5824C71.4532 33.2304 71.8452 32.9494 72.2819 32.7571C72.7186 32.5649 73.1905 32.4656 73.6677 32.4656C74.1449 32.4656 74.6169 32.5649 75.0536 32.7571C75.4903 32.9494 75.8823 33.2304 76.2045 33.5824C76.5267 33.9343 76.7722 34.3495 76.9253 34.8014C77.0784 35.2534 77.1358 35.7322 77.0939 36.2076C77.1358 36.6829 77.0784 37.1617 76.9253 37.6137C76.7722 38.0656 76.5267 38.4808 76.2045 38.8327C75.8823 39.1847 75.4903 39.4657 75.0536 39.658C74.6169 39.8502 74.1449 39.9495 73.6677 39.9495C73.1905 39.9495 72.7186 39.8502 72.2819 39.658C71.8452 39.4657 71.4532 39.1847 71.131 38.8327C70.8087 38.4808 70.5633 38.0656 70.4102 37.6137C70.257 37.1617 70.1996 36.6829 70.2416 36.2076V36.2076ZM75.3608 36.2076C75.3608 34.7545 74.7209 33.8079 73.6677 33.8079C72.6146 33.8079 71.9747 34.7545 71.9747 36.2076C71.9747 37.6607 72.6012 38.6072 73.6677 38.6072C74.7342 38.6072 75.3608 37.6473 75.3608 36.2076V36.2076Z" fill="#6A6E81"/>
<path d="M78.6138 32.6081H80.0136L80.1335 33.568C80.4315 33.2314 80.7937 32.9577 81.1989 32.7631C81.6041 32.5686 82.0442 32.4569 82.4932 32.4348C84.0396 32.4348 84.7061 33.4746 84.7061 35.2877V39.807H83.1331V35.5143C83.1331 34.3145 82.7998 33.8746 81.9999 33.8746C81.6784 33.9025 81.3663 33.9977 81.0838 34.1538C80.8014 34.31 80.5549 34.5237 80.3602 34.7811V39.807H78.6671L78.6138 32.6081Z" fill="#6A6E81"/>
<path d="M89.6118 30.2085H92.638C94.771 30.2085 96.3441 30.9417 96.3441 33.1814C96.3441 35.421 94.771 36.2875 92.6914 36.2875H91.3582V39.807H89.6518L89.6118 30.2085ZM92.5713 34.9277C93.9844 34.9277 94.6777 34.3545 94.6777 33.1814C94.6777 32.0082 93.9311 31.5816 92.5047 31.5816H91.3182V34.9277H92.5713Z" fill="#6A6E81"/>
<path d="M97.864 32.6082H99.1971L99.3171 33.8746C99.4971 33.474 99.7813 33.1291 100.14 32.8758C100.499 32.6226 100.919 32.4703 101.357 32.4349C101.64 32.4179 101.923 32.4682 102.183 32.5815L101.89 34.0479C101.65 33.9649 101.397 33.9243 101.143 33.928C100.57 33.928 99.877 34.3146 99.4371 35.4077V39.807H97.7573L97.864 32.6082Z" fill="#6A6E81"/>
<path d="M102.57 36.2076C102.528 35.7322 102.585 35.2534 102.738 34.8014C102.891 34.3495 103.137 33.9343 103.459 33.5824C103.781 33.2304 104.173 32.9494 104.61 32.7571C105.047 32.5649 105.519 32.4656 105.996 32.4656C106.473 32.4656 106.945 32.5649 107.382 32.7571C107.818 32.9494 108.21 33.2304 108.533 33.5824C108.855 33.9343 109.1 34.3495 109.253 34.8014C109.407 35.2534 109.464 35.7322 109.422 36.2076C109.464 36.6829 109.407 37.1617 109.253 37.6137C109.1 38.0656 108.855 38.4808 108.533 38.8327C108.21 39.1847 107.818 39.4657 107.382 39.658C106.945 39.8502 106.473 39.9495 105.996 39.9495C105.519 39.9495 105.047 39.8502 104.61 39.658C104.173 39.4657 103.781 39.1847 103.459 38.8327C103.137 38.4808 102.891 38.0656 102.738 37.6137C102.585 37.1617 102.528 36.6829 102.57 36.2076V36.2076ZM107.689 36.2076C107.689 34.7545 107.036 33.8079 105.983 33.8079C104.929 33.8079 104.303 34.7545 104.303 36.2076C104.303 37.6607 104.929 38.6072 105.983 38.6072C107.036 38.6072 107.689 37.6473 107.689 36.2076V36.2076Z" fill="#6A6E81"/>
<path d="M109.956 32.6079H111.675L112.822 36.3406C113.008 37.0472 113.222 37.7804 113.422 38.5136C113.635 37.7804 113.835 37.0472 114.035 36.3406L115.181 32.6079H116.808L114.368 39.8068H112.462L109.956 32.6079Z" fill="#6A6E81"/>
<path d="M117.794 30.3818C117.823 30.1348 117.941 29.9069 118.127 29.7415C118.312 29.576 118.552 29.4846 118.801 29.4846C119.05 29.4846 119.289 29.576 119.475 29.7415C119.661 29.9069 119.779 30.1348 119.807 30.3818C119.779 30.6287 119.661 30.8566 119.475 31.0221C119.289 31.1875 119.05 31.2789 118.801 31.2789C118.552 31.2789 118.312 31.1875 118.127 31.0221C117.941 30.8566 117.823 30.6287 117.794 30.3818V30.3818ZM117.954 32.6081H119.634V39.8069H117.954V32.6081Z" fill="#6A6E81"/>
<path d="M121.22 36.2075C121.22 33.8612 122.7 32.4348 124.273 32.4348C124.625 32.4345 124.973 32.5039 125.298 32.6388C125.623 32.7738 125.918 32.9718 126.166 33.2213V32.0615V29.3953H127.859V39.7536H126.459L126.339 38.9804C125.805 39.5439 125.075 39.8824 124.3 39.9269C122.38 40.0069 121.22 38.5938 121.22 36.2075ZM126.099 37.7806V34.4211C125.707 34.0391 125.181 33.8241 124.633 33.8212C123.713 33.8212 122.967 34.6877 122.967 36.1942C122.967 37.7006 123.553 38.5938 124.593 38.5938C124.89 38.583 125.18 38.5041 125.441 38.363C125.702 38.222 125.928 38.0227 126.099 37.7806V37.7806Z" fill="#6A6E81"/>
<path d="M129.313 36.2075C129.274 35.7401 129.331 35.2698 129.478 34.8247C129.626 34.3796 129.862 33.9687 130.171 33.6166C130.481 33.2645 130.859 32.9785 131.281 32.7754C131.704 32.5724 132.164 32.4565 132.632 32.4348C134.578 32.4348 135.605 33.8346 135.605 35.8476C135.609 36.1202 135.587 36.3925 135.538 36.6608H130.952C130.959 36.9333 131.02 37.2018 131.131 37.4508C131.242 37.6997 131.401 37.9242 131.6 38.1113C131.798 38.2985 132.031 38.4445 132.286 38.541C132.541 38.6376 132.813 38.6827 133.085 38.6738C133.68 38.6695 134.26 38.4886 134.752 38.1539L135.325 39.2071C134.596 39.7001 133.739 39.9689 132.859 39.9803C132.37 39.9935 131.884 39.9031 131.432 39.7151C130.981 39.5271 130.574 39.2456 130.239 38.8893C129.904 38.533 129.649 38.1098 129.489 37.6476C129.329 37.1854 129.269 36.6946 129.313 36.2075V36.2075ZM134.138 35.5277C134.138 34.4078 133.658 33.7279 132.672 33.7279C132.207 33.7484 131.768 33.9467 131.446 34.2816C131.123 34.6166 130.942 35.0627 130.939 35.5277H134.138Z" fill="#6A6E81"/>
<path d="M137.071 32.6081H138.404L138.524 33.8746H138.591C138.768 33.4723 139.052 33.1258 139.411 32.8722C139.77 32.6186 140.192 32.4674 140.63 32.4348C140.909 32.418 141.188 32.4682 141.444 32.5815L141.15 34.0479C140.91 33.9638 140.658 33.9231 140.404 33.9279C139.83 33.9279 139.151 34.3145 138.711 35.4077V39.807H137.018L137.071 32.6081Z" fill="#6A6E81"/>
<path d="M61.51 46.7527H63.2564L66.2559 52.0852L67.2291 54.1248H67.2957C67.2158 53.1383 67.0691 51.9252 67.0691 50.8587V46.7527H68.6955V56.3511H66.9491L63.9629 51.0187L62.9764 48.979C63.0431 49.9922 63.1898 51.152 63.1898 52.2185V56.4178H61.5633L61.51 46.7527Z" fill="#6A6E81"/>
<path d="M70.6821 46.9123C70.6821 46.6436 70.7889 46.3859 70.9789 46.1959C71.1689 46.0059 71.4266 45.8992 71.6953 45.8992C71.964 45.8992 72.2217 46.0059 72.4117 46.1959C72.6017 46.3859 72.7085 46.6436 72.7085 46.9123C72.7085 47.1811 72.6017 47.4388 72.4117 47.6288C72.2217 47.8188 71.964 47.9255 71.6953 47.9255C71.4266 47.9255 71.1689 47.8188 70.9789 47.6288C70.7889 47.4388 70.6821 47.1811 70.6821 46.9123V46.9123ZM70.8421 49.1387H72.4685V56.3508H70.7888L70.8421 49.1387Z" fill="#6A6E81"/>
<path d="M74.0544 57.6573C74.0731 57.3317 74.178 57.0169 74.3584 56.7452C74.5388 56.4734 74.7881 56.2545 75.0809 56.1109V56.1109C74.8719 55.9874 74.7006 55.8091 74.5854 55.5953C74.4703 55.3815 74.4158 55.1403 74.4277 54.8978C74.45 54.6291 74.5337 54.3692 74.6724 54.1381C74.8111 53.907 75.0011 53.7108 75.2276 53.5647V53.5647C74.9346 53.3404 74.6968 53.052 74.5328 52.7215C74.3687 52.391 74.2826 52.0273 74.2811 51.6583C74.291 51.2987 74.3736 50.9448 74.5239 50.6179C74.6741 50.291 74.889 49.9979 75.1555 49.7563C75.4221 49.5147 75.7348 49.3295 76.0748 49.2119C76.4148 49.0943 76.7751 49.0467 77.1339 49.072C77.4917 49.0763 77.8468 49.1348 78.1871 49.2453H80.7734V50.4985H79.4403C79.7044 50.8473 79.8451 51.2741 79.8402 51.7116C79.8435 52.0531 79.7751 52.3915 79.6394 52.7049C79.5037 53.0183 79.3037 53.2997 79.0524 53.5309C78.8011 53.7621 78.504 53.938 78.1804 54.0471C77.8569 54.1563 77.514 54.1963 77.1739 54.1646C76.8362 54.1654 76.5015 54.102 76.1874 53.9779C76.0793 54.0551 75.9913 54.1571 75.931 54.2755C75.8706 54.3938 75.8397 54.525 75.8408 54.6578C75.8408 55.0711 76.1341 55.3244 77.014 55.3244H78.2804C80.0135 55.3244 80.9466 55.8576 80.9466 57.0974C80.9466 58.3372 79.4536 59.6303 77.1073 59.6303C75.3209 59.5237 74.0544 58.9105 74.0544 57.6573ZM79.2536 57.2707C79.2536 56.7108 78.8004 56.5508 77.9872 56.5508H77.0006C76.6684 56.5617 76.3363 56.5258 76.0141 56.4442C75.8533 56.5504 75.7191 56.6922 75.622 56.8587C75.5249 57.0251 75.4674 57.2118 75.4542 57.404C75.4542 58.0439 76.1608 58.4305 77.3073 58.4305C78.4537 58.4305 79.2536 57.884 79.2536 57.3374V57.2707ZM78.3737 51.5516C78.4 51.3718 78.3873 51.1883 78.3364 51.0138C78.2855 50.8392 78.1976 50.6777 78.0787 50.5402C77.9599 50.4026 77.8127 50.2923 77.6474 50.2167C77.4821 50.141 77.3024 50.1019 77.1206 50.1019C76.9388 50.1019 76.7591 50.141 76.5938 50.2167C76.4285 50.2923 76.2814 50.4026 76.1625 50.5402C76.0436 50.6777 75.9557 50.8392 75.9048 51.0138C75.8539 51.1883 75.8412 51.3718 75.8675 51.5516C75.7944 51.753 75.7709 51.969 75.799 52.1814C75.8271 52.3937 75.906 52.5962 76.0289 52.7716C76.1519 52.947 76.3153 53.0902 76.5053 53.1891C76.6953 53.288 76.9064 53.3396 77.1206 53.3396C77.3348 53.3396 77.5459 53.288 77.7359 53.1891C77.9259 53.0902 78.0894 52.947 78.2123 52.7716C78.3353 52.5962 78.4141 52.3937 78.4422 52.1814C78.4703 51.969 78.4468 51.753 78.3737 51.5516Z" fill="#6A6E81"/>
<path d="M81.3066 52.7516C81.2686 52.2835 81.3249 51.8126 81.4723 51.3667C81.6197 50.9208 81.8553 50.509 82.1649 50.1559C82.4745 49.8028 82.8519 49.5154 83.2747 49.3109C83.6975 49.1065 84.157 48.989 84.6261 48.9656C86.5725 48.9656 87.599 50.3787 87.599 52.3917C87.6031 52.6643 87.5808 52.9366 87.5323 53.2049H82.9464C82.9533 53.4774 83.014 53.7459 83.1251 53.9949C83.2362 54.2438 83.3955 54.4683 83.5938 54.6554C83.7921 54.8426 84.0254 54.9886 84.2804 55.0851C84.5353 55.1817 84.8069 55.2268 85.0794 55.2179C85.6763 55.2147 86.2579 55.0286 86.7458 54.6847L87.319 55.7512C86.5901 56.2442 85.7327 56.513 84.8528 56.5244C84.3645 56.5355 83.8793 56.4437 83.4289 56.2549C82.9785 56.0662 82.5728 55.7847 82.2383 55.4288C81.9038 55.073 81.648 54.6507 81.4875 54.1894C81.327 53.7282 81.2654 53.2383 81.3066 52.7516ZM86.1325 52.0584C86.1325 50.9519 85.6526 50.272 84.6661 50.272C84.2038 50.2924 83.7668 50.4888 83.4446 50.8209C83.1224 51.153 82.9394 51.5957 82.9331 52.0584H86.1325Z" fill="#6A6E81"/>
<path d="M89.0654 49.1386H90.4652L90.5718 50.4718H90.6385C90.8166 50.0687 91.1 49.721 91.4589 49.4653C91.8178 49.2096 92.239 49.0553 92.6782 49.0187C92.9566 49.0084 93.234 49.0584 93.4914 49.1653L93.1981 50.6317C92.956 50.5589 92.7043 50.523 92.4515 50.5251C91.8783 50.5251 91.1984 50.9117 90.7585 52.0048V56.4041H89.0654V49.1386Z" fill="#6A6E81"/>
<path d="M94.2249 46.9123C94.2249 46.6436 94.3316 46.3859 94.5216 46.1959C94.7116 46.0059 94.9693 45.8992 95.238 45.8992C95.5067 45.8992 95.7644 46.0059 95.9544 46.1959C96.1444 46.3859 96.2512 46.6436 96.2512 46.9123C96.2512 47.1811 96.1444 47.4388 95.9544 47.6288C95.7644 47.8188 95.5067 47.9255 95.238 47.9255C94.9693 47.9255 94.7116 47.8188 94.5216 47.6288C94.3316 47.4388 94.2249 47.1811 94.2249 46.9123V46.9123ZM94.3848 49.1387H96.0779V56.3508H94.3848V49.1387Z" fill="#6A6E81"/>
<path d="M97.7044 54.4047C97.7044 52.8716 99.0375 52.0584 101.944 51.7385C101.944 50.9786 101.61 50.4053 100.611 50.4053C99.886 50.455 99.1873 50.694 98.5842 51.0986L97.971 49.9787C98.8468 49.387 99.8739 49.0585 100.931 49.0322C102.717 49.0322 103.597 50.1387 103.597 52.1517V56.4177H102.264L102.144 55.6178C101.537 56.1981 100.742 56.5431 99.904 56.591C99.6092 56.6197 99.3117 56.583 99.0327 56.4834C98.7537 56.3839 98.5001 56.224 98.29 56.0152C98.0799 55.8064 97.9185 55.5538 97.8173 55.2754C97.716 54.997 97.6775 54.6997 97.7044 54.4047ZM101.944 54.4047V52.7916C99.9706 53.0449 99.2774 53.5648 99.2774 54.2847C99.2774 55.0046 99.7174 55.2046 100.317 55.2046C100.629 55.1895 100.934 55.1108 101.213 54.9732C101.493 54.8356 101.742 54.6421 101.944 54.4047V54.4047Z" fill="#6A6E81"/>
<path d="M10.585 93.6516H12.0114L12.6913 97.651C12.8246 98.4908 12.9579 99.3307 13.0779 100.171C13.2379 99.3307 13.4112 98.4908 13.5845 97.651L14.5443 93.6516H15.7575L16.7173 97.651C16.904 98.4775 17.0773 99.3307 17.2506 100.171C17.3705 99.3307 17.5038 98.4908 17.6238 97.651L18.3037 93.6516H19.6369L18.1304 101.504H16.4774L15.5442 97.331C15.4109 96.7311 15.2909 96.1179 15.1976 95.518C15.0909 96.1179 14.9709 96.7311 14.8376 97.331L13.8911 101.464H12.1981L10.585 93.6516Z" fill="#6A6E81"/>
<path d="M20.3831 97.5443C20.3831 95.0114 21.8095 93.5449 23.8492 93.5449C25.8888 93.5449 27.3153 95.038 27.3153 97.5443C27.3153 100.051 25.9022 101.65 23.8492 101.65C21.7962 101.65 20.3831 100.091 20.3831 97.5443ZM25.8755 97.5443C25.8755 95.7979 25.0756 94.7181 23.8492 94.7181C22.6227 94.7181 21.8228 95.7979 21.8228 97.5443C21.8228 99.2907 22.6094 100.437 23.8492 100.437C25.089 100.437 25.8755 99.304 25.8755 97.5443Z" fill="#6A6E81"/>
<path d="M28.7686 93.6516H31.4348C33.0612 93.6516 34.3143 94.2382 34.3143 95.9846C34.3469 96.4794 34.2103 96.9707 33.9268 97.3777C33.6434 97.7846 33.23 98.0832 32.7546 98.2242L34.6209 101.504H33.0612L31.3682 98.4375H30.1683V101.504H28.8352L28.7686 93.6516ZM31.2748 97.331C32.3413 97.331 32.9279 96.8778 32.9279 95.9979C32.9279 95.118 32.3413 94.7848 31.2748 94.7848H30.155V97.331H31.2748Z" fill="#6A6E81"/>
<path d="M35.7542 93.6516H37.1539V100.317H40.4734V101.49H35.8208L35.7542 93.6516Z" fill="#6A6E81"/>
<path d="M41.6599 93.6515H43.7662C44.2878 93.5947 44.8155 93.657 45.3095 93.8337C45.8035 94.0105 46.2509 94.2971 46.618 94.6719C46.9851 95.0467 47.2623 95.5 47.4288 95.9975C47.5953 96.4951 47.6466 97.0239 47.5789 97.5442C47.5789 100.21 46.1658 101.544 43.8329 101.544H41.6599V93.6515ZM43.6596 100.384C45.246 100.384 46.1525 99.4772 46.1525 97.5442C46.1525 95.6112 45.246 94.7847 43.6596 94.7847H43.0597V100.384H43.6596Z" fill="#6A6E81"/>
<path d="M51.3252 93.6516H53.8048C55.4312 93.6516 56.6176 94.1449 56.6176 95.5846C56.6316 95.9467 56.5343 96.3043 56.3389 96.6094C56.1434 96.9145 55.8592 97.1524 55.5245 97.291C55.9589 97.3597 56.3522 97.5874 56.6281 97.9298C56.904 98.2723 57.0428 98.705 57.0176 99.1441C57.0176 100.717 55.6845 101.45 54.0047 101.45H51.3385L51.3252 93.6516ZM53.7114 96.8911C54.8046 96.8911 55.2712 96.4645 55.2712 95.7979C55.2712 95.1314 54.7513 94.7314 53.7381 94.7314H52.7116V96.8911H53.7114ZM53.8981 100.424C55.0446 100.424 55.6978 100.011 55.6978 99.0907C55.6978 98.1709 55.0713 97.9043 53.8981 97.9043H52.7116V100.384L53.8981 100.424Z" fill="#6A6E81"/>
<path d="M58.3369 98.0642V93.6516H59.67V98.1709C59.67 99.8773 60.3099 100.437 61.2564 100.437C62.203 100.437 62.8829 99.8773 62.8829 98.1709V93.6516H64.216V98.0642C64.216 100.637 63.0828 101.65 61.2564 101.65C59.4301 101.65 58.3369 100.637 58.3369 98.0642Z" fill="#6A6E81"/>
<path d="M65.4561 100.491L66.2693 99.5441C66.8147 100.085 67.5417 100.403 68.3089 100.437C69.2021 100.437 69.6421 100.037 69.6421 99.4241C69.6421 98.8109 69.1355 98.5709 68.4289 98.2777L67.3491 97.8111C66.9065 97.665 66.5201 97.3853 66.2432 97.0104C65.9662 96.6356 65.8123 96.184 65.8027 95.7181C65.8256 95.3957 65.9138 95.0813 66.062 94.794C66.2101 94.5067 66.415 94.2525 66.6644 94.0468C66.9137 93.8411 67.2022 93.6882 67.5124 93.5974C67.8226 93.5065 68.148 93.4797 68.4689 93.5184C69.371 93.5207 70.2366 93.8746 70.8819 94.5049L70.1753 95.3981C69.7184 94.9487 69.1095 94.687 68.4689 94.6649C67.7224 94.6649 67.2291 95.0248 67.2291 95.5981C67.2291 96.1713 67.829 96.4379 68.4823 96.7046L69.5487 97.1445C70.0152 97.2821 70.4233 97.5694 70.7101 97.9622C70.9968 98.355 71.1462 98.8313 71.1352 99.3175C71.1352 100.651 70.082 101.65 68.3089 101.65C67.7804 101.655 67.2561 101.555 66.7664 101.356C66.2767 101.157 65.8313 100.863 65.4561 100.491V100.491Z" fill="#6A6E81"/>
<path d="M72.4683 93.6516H73.8014V101.504H72.4683V93.6516Z" fill="#6A6E81"/>
<path d="M75.6812 93.6516H77.1076L79.5605 98.0776L80.3604 99.744C80.3604 98.9308 80.1738 97.9443 80.1738 97.0777V93.6516H81.5069V101.504H80.0804L77.6275 97.0911L76.8276 95.4247C76.8943 96.2512 77.0143 97.1977 77.0143 98.0909V101.517H75.6812V93.6516Z" fill="#6A6E81"/>
<path d="M83.4397 93.6516H88.1589V94.8381H84.8261V96.8378H87.6524V98.0109H84.8261V100.331H88.2789V101.504H83.4397V93.6516Z" fill="#6A6E81"/>
<path d="M89.2388 100.491L90.052 99.5441C90.5974 100.085 91.3245 100.403 92.0917 100.437C92.9715 100.437 93.4248 100.037 93.4248 99.4241C93.4248 98.8109 92.9315 98.5709 92.2116 98.2777L91.1318 97.8111C90.6842 97.6696 90.2921 97.3918 90.01 97.0165C89.728 96.6413 89.5702 96.1873 89.5587 95.7181C89.5817 95.3957 89.6699 95.0813 89.818 94.794C89.9661 94.5067 90.1711 94.2525 90.4204 94.0468C90.6698 93.8411 90.9583 93.6882 91.2685 93.5974C91.5787 93.5065 91.9041 93.4797 92.225 93.5184C93.127 93.5207 93.9926 93.8746 94.6379 94.5049L93.9314 95.3981C93.4663 94.9682 92.8583 94.7259 92.225 94.7182C91.4784 94.7182 90.9852 95.0782 90.9852 95.6514C90.9852 96.2246 91.5851 96.4913 92.2383 96.7579L93.3048 97.1978C93.7624 97.3329 94.1641 97.6123 94.45 97.9943C94.7359 98.3762 94.8906 98.8404 94.8912 99.3175C94.8704 99.6606 94.7791 99.9957 94.6232 100.302C94.4674 100.608 94.2501 100.879 93.9851 101.098C93.72 101.317 93.4127 101.479 93.0824 101.574C92.7521 101.669 92.4058 101.695 92.065 101.65C91.0066 101.653 89.9903 101.236 89.2388 100.491V100.491Z" fill="#6A6E81"/>
<path d="M95.4644 100.491L96.2775 99.5441C96.823 100.085 97.55 100.403 98.3172 100.437C99.2104 100.437 99.6504 100.037 99.6504 99.4241C99.6504 98.8109 99.1438 98.5709 98.4372 98.2777L97.3574 97.8111C96.9073 97.6719 96.5122 97.3951 96.2277 97.0196C95.9431 96.6442 95.7834 96.189 95.771 95.7181C95.7939 95.3957 95.8821 95.0813 96.0303 94.794C96.1784 94.5067 96.3833 94.2525 96.6326 94.0468C96.882 93.8411 97.1705 93.6882 97.4807 93.5974C97.7909 93.5065 98.1163 93.4797 98.4372 93.5184C99.3393 93.5207 100.205 93.8746 100.85 94.5049L100.144 95.3981C99.6785 94.9682 99.0706 94.7259 98.4372 94.7182C97.6907 94.7182 97.1974 95.0782 97.1974 95.6514C97.1974 96.2246 97.7973 96.4913 98.4505 96.7579L99.517 97.1978C99.9746 97.3329 100.376 97.6123 100.662 97.9943C100.948 98.3762 101.103 98.8404 101.103 99.3175C101.103 100.651 100.05 101.65 98.2772 101.65C97.2234 101.65 96.2126 101.233 95.4644 100.491V100.491Z" fill="#6A6E81"/>
<path d="M104.303 97.5443C104.303 95.0114 105.716 93.5449 107.756 93.5449C109.795 93.5449 111.222 95.038 111.222 97.5443C111.222 100.051 109.809 101.65 107.756 101.65C105.703 101.65 104.303 100.091 104.303 97.5443ZM109.782 97.5443C109.782 95.7979 108.996 94.7181 107.756 94.7181C106.516 94.7181 105.729 95.7979 105.729 97.5443C105.729 99.2907 106.516 100.437 107.756 100.437C108.996 100.437 109.795 99.304 109.795 97.5443H109.782Z" fill="#6A6E81"/>
<path d="M112.635 98.0642V93.6516H114.035V98.1709C114.035 99.8773 114.675 100.437 115.621 100.437C116.568 100.437 117.248 99.8773 117.248 98.1709V93.6516H118.581V98.0642C118.581 100.637 117.434 101.65 115.621 101.65C113.808 101.65 112.635 100.637 112.635 98.0642Z" fill="#6A6E81"/>
<path d="M122.007 94.8381H119.727V93.6516H125.659V94.8381H123.393V101.504H122.06L122.007 94.8381Z" fill="#6A6E81"/>
<path d="M126.846 93.6516H128.179V100.317H131.445V101.49H126.779L126.846 93.6516Z" fill="#6A6E81"/>
<path d="M131.979 97.5443C131.979 95.0114 133.392 93.5449 135.432 93.5449C137.471 93.5449 138.898 95.038 138.898 97.5443C138.898 100.051 137.485 101.65 135.432 101.65C133.379 101.65 131.979 100.091 131.979 97.5443ZM137.458 97.5443C137.458 95.7979 136.671 94.7181 135.432 94.7181C134.192 94.7181 133.405 95.7979 133.405 97.5443C133.405 99.2907 134.205 100.437 135.432 100.437C136.658 100.437 137.458 99.304 137.458 97.5443Z" fill="#6A6E81"/>
<path d="M139.951 97.5443C139.951 95.0114 141.364 93.5449 143.404 93.5449C145.443 93.5449 146.87 95.038 146.87 97.5443C146.87 100.051 145.457 101.65 143.404 101.65C141.351 101.65 139.951 100.091 139.951 97.5443ZM145.43 97.5443C145.43 95.7979 144.644 94.7181 143.404 94.7181C142.164 94.7181 141.377 95.7979 141.377 97.5443C141.377 99.2907 142.164 100.437 143.404 100.437C144.644 100.437 145.43 99.304 145.43 97.5443Z" fill="#6A6E81"/>
<path d="M148.323 93.6516H149.789V97.2244L152.589 93.6516H154.135L151.722 96.7178L154.548 101.504H153.015L150.882 97.8109L149.763 99.1441V101.437H148.323V93.6516Z" fill="#6A6E81"/>
</svg>
