<svg width="67" height="54" viewBox="0 0 67 54" fill="none" xmlns="http://www.w3.org/2000/svg">
<path d="M50.1211 48.358C50.1212 48.2646 50.1029 48.172 50.0673 48.0857C50.0316 47.9994 49.9793 47.921 49.9132 47.855C49.8472 47.7889 49.7687 47.7365 49.6824 47.7008C49.5961 47.6651 49.5036 47.6468 49.4102 47.647H37.7521C37.3046 47.6823 36.8604 47.5465 36.5092 47.267C36.3682 47.1051 36.2637 46.9147 36.203 46.7089C36.1423 46.503 36.1266 46.2864 36.1571 46.074C36.2731 43.539 36.1621 31.574 36.1571 31.048C36.1654 30.7541 36.2737 30.472 36.4641 30.2481C36.6007 30.1227 36.7608 30.0258 36.9353 29.9631C37.1098 29.9005 37.295 29.8732 37.4801 29.8829C38.1641 29.8619 40.8201 29.856 44.0571 29.856C50.4571 29.856 59.1572 29.894 59.2902 29.881C59.7439 29.8473 60.1948 29.9771 60.5612 30.247C60.6725 30.3628 60.7578 30.5011 60.8118 30.6525C60.8657 30.8038 60.887 30.9648 60.8741 31.125V34.985C60.8741 35.1733 60.9489 35.3539 61.082 35.4871C61.2152 35.6202 61.3958 35.695 61.5841 35.695C61.7724 35.695 61.953 35.6202 62.0862 35.4871C62.2193 35.3539 62.2941 35.1733 62.2941 34.985V31.125C62.3097 30.7671 62.2487 30.41 62.115 30.0776C61.9813 29.7453 61.7782 29.4454 61.5192 29.198C60.8802 28.6715 60.0643 28.4086 59.2382 28.463C58.7532 28.463 51.6311 28.441 45.6241 28.438C46.0595 26.6749 46.2818 24.8661 46.2861 23.0501C46.2861 23.0091 46.2811 22.971 46.2811 22.931C46.2811 22.92 46.2861 22.911 46.2861 22.901C46.2861 22.891 46.2771 22.868 46.2761 22.851C46.2063 16.7643 43.7386 10.951 39.4087 6.67273C35.0788 2.39448 29.2362 -0.00329316 23.1492 3.39468e-06H23.0911H23.0771C23.0681 3.39468e-06 23.0621 3.39468e-06 23.0531 3.39468e-06C16.9477 0.0200462 11.0982 2.45455 6.78137 6.7721C2.46457 11.0897 0.0310684 16.9397 0.0120855 23.045C0.0109387 28.4804 1.94478 33.7384 5.46716 37.8779C5.47216 37.8869 5.47215 37.897 5.47815 37.905C5.50315 37.947 5.54613 37.965 5.57813 37.999C7.73821 40.5242 10.4174 42.5539 13.4331 43.9497C16.4488 45.3455 19.7301 46.0745 23.0531 46.087C23.061 46.0892 23.069 46.0909 23.0771 46.092H23.0911C23.1111 46.092 23.1292 46.092 23.1492 46.092C27.2418 46.0876 31.259 44.9908 34.7861 42.915C34.7811 44.29 34.7651 45.415 34.7391 45.997C34.694 46.4139 34.7417 46.8358 34.879 47.2321C35.0163 47.6284 35.2397 47.9893 35.5331 48.2889C36.1104 48.7963 36.8557 49.071 37.6241 49.0599C37.6876 49.0606 37.7509 49.058 37.8141 49.052H49.4141C49.5992 49.0515 49.7768 48.9787 49.9089 48.849C50.041 48.7193 50.1172 48.5431 50.1211 48.358ZM31.6091 33.182C29.422 32.5668 27.1764 32.1827 24.9092 32.036H23.7881V23.614H33.6451C33.5948 26.9054 32.9032 30.1553 31.6091 33.182ZM23.7861 44.662V33.457H24.8861C26.9749 33.6048 29.044 33.9589 31.0631 34.514C29.4341 38.1467 27.3298 41.5467 24.8052 44.625C24.4692 44.648 24.1271 44.652 23.7861 44.662ZM21.5461 44.605C19.0005 41.4962 16.8736 38.067 15.2201 34.405C17.0815 33.8761 18.9966 33.5585 20.9291 33.458H22.3661V44.648C22.0931 44.636 21.8191 44.624 21.5471 44.604L21.5461 44.605ZM1.46008 23.619H11.0691C11.1959 27.0191 11.9439 30.3673 13.2761 33.4981C10.8343 34.2951 8.47959 35.3377 6.24817 36.61C3.25981 32.9262 1.57641 28.3561 1.46118 23.614L1.46008 23.619ZM6.31616 9.41297C8.42686 10.6248 10.6498 11.6295 12.9541 12.413C11.876 15.569 11.2443 18.8602 11.0771 22.191H1.47717C1.65615 17.5186 3.35553 13.0323 6.31714 9.41394L6.31616 9.41297ZM21.2721 1.52295C21.6331 1.49195 21.9991 1.48102 22.3651 1.46802V12.614H21.1072C18.9734 12.5009 16.8613 12.1291 14.8171 11.507C16.2336 7.75646 18.4358 4.3523 21.2761 1.52295H21.2721ZM24.6001 1.50196C27.4785 4.3567 29.7295 7.78066 31.2091 11.5549C29.1967 12.1069 27.1353 12.4613 25.0541 12.613H23.7842V1.46094C24.0602 1.46794 24.3311 1.48296 24.6011 1.50196H24.6001ZM23.7852 14.032H25.0781C27.3237 13.8875 29.548 13.5091 31.7151 12.903C32.7898 15.8962 33.4296 19.0281 33.6151 22.203H23.7861L23.7852 14.032ZM21.0762 14.032H22.3651V22.198H12.4991C12.6647 19.0111 13.2801 15.8636 14.3271 12.849C16.5204 13.5162 18.7868 13.9138 21.0762 14.033V14.032ZM12.4932 23.618H22.3651V32.035H20.8981C18.7881 32.1425 16.6974 32.4918 14.6671 33.0761C13.392 30.0744 12.6567 26.8713 12.4951 23.614L12.4932 23.618ZM35.0371 22.198C34.8511 18.8914 34.1997 15.6276 33.1022 12.5029C35.5254 11.7596 37.8699 10.7806 40.1022 9.57996C42.9881 13.1705 44.6413 17.5948 44.8171 22.198H35.0371ZM39.1451 8.48096C37.055 9.57753 34.866 10.4742 32.6072 11.1589C31.2497 7.71564 29.3003 4.53645 26.8472 1.76502C31.5771 2.58173 35.9027 4.94356 39.1471 8.48096H39.1451ZM18.9841 1.83594C16.6103 4.56545 14.7335 7.69017 13.4391 11.068C11.3113 10.3387 9.25257 9.42176 7.28711 8.32801C10.4058 4.98617 14.5001 2.71453 18.9861 1.83704L18.9841 1.83594ZM7.20911 37.699C9.31899 36.532 11.535 35.5679 13.8271 34.82C15.3567 38.2183 17.2849 41.4229 19.5712 44.366C14.8262 43.5754 10.4785 41.2305 7.21118 37.7L7.20911 37.699ZM26.7861 44.37C29.0504 41.4557 30.9551 38.2791 32.4591 34.9089C33.1981 35.1329 33.9722 35.395 34.7692 35.693C34.7802 37.457 34.7881 39.478 34.7881 41.293C32.3537 42.842 29.634 43.8882 26.7891 44.37H26.7861ZM35.4271 29.283C34.9815 29.7766 34.7349 30.418 34.7351 31.083C34.7351 31.123 34.7471 32.389 34.7601 34.177C34.1601 33.959 33.5711 33.764 33.0051 33.588C34.3489 30.4361 35.0492 27.0474 35.0651 23.621H44.8422C44.7947 25.2508 44.5597 26.8699 44.1421 28.446C40.8611 28.446 38.1501 28.4531 37.4421 28.472C37.0693 28.4635 36.6986 28.5309 36.3527 28.6703C36.0067 28.8097 35.6929 29.0182 35.4302 29.283H35.4271Z" fill="#FF4521"/>
<path d="M55.1621 34.318C55.1622 34.2246 55.144 34.1322 55.1083 34.0459C55.0726 33.9596 55.0202 33.8813 54.9541 33.8153C54.888 33.7493 54.8096 33.6971 54.7233 33.6615C54.637 33.6259 54.5445 33.6078 54.4512 33.608H39.3831C39.1948 33.608 39.0143 33.6828 38.8811 33.8159C38.748 33.9491 38.6731 34.1297 38.6731 34.318C38.6731 34.5063 38.748 34.6869 38.8811 34.8201C39.0143 34.9532 39.1948 35.028 39.3831 35.028H54.4512C54.5445 35.0281 54.6369 35.0099 54.7231 34.9742C54.8094 34.9386 54.8878 34.8864 54.9539 34.8204C55.0199 34.7545 55.0723 34.6762 55.108 34.59C55.1438 34.5038 55.1621 34.4113 55.1621 34.318Z" fill="#FF4521"/>
<path d="M51.4331 36.745H39.3831C39.1948 36.745 39.0143 36.8197 38.8811 36.9529C38.748 37.086 38.6731 37.2667 38.6731 37.455C38.6731 37.6433 38.748 37.8239 38.8811 37.957C39.0143 38.0902 39.1948 38.165 39.3831 38.165H51.4331C51.6214 38.165 51.802 38.0902 51.9352 37.957C52.0683 37.8239 52.1431 37.6433 52.1431 37.455C52.1431 37.2667 52.0683 37.086 51.9352 36.9529C51.802 36.8197 51.6214 36.745 51.4331 36.745Z" fill="#FF4521"/>
<path d="M51.4331 42.7939H39.3831C39.1948 42.7939 39.0143 42.8688 38.8811 43.002C38.748 43.1351 38.6731 43.3157 38.6731 43.504C38.6731 43.6923 38.748 43.8728 38.8811 44.006C39.0143 44.1391 39.1948 44.214 39.3831 44.214H51.4331C51.6214 44.214 51.802 44.1391 51.9352 44.006C52.0683 43.8728 52.1431 43.6923 52.1431 43.504C52.1431 43.3157 52.0683 43.1351 51.9352 43.002C51.802 42.8688 51.6214 42.7939 51.4331 42.7939Z" fill="#FF4521"/>
<path d="M51.4331 39.7689H39.3831C39.1948 39.7689 39.0143 39.8438 38.8811 39.9769C38.748 40.1101 38.6731 40.2907 38.6731 40.479C38.6731 40.6673 38.748 40.8479 38.8811 40.9811C39.0143 41.1142 39.1948 41.189 39.3831 41.189H51.4331C51.6214 41.189 51.802 41.1142 51.9352 40.9811C52.0683 40.8479 52.1431 40.6673 52.1431 40.479C52.1431 40.2907 52.0683 40.1101 51.9352 39.9769C51.802 39.8438 51.6214 39.7689 51.4331 39.7689Z" fill="#FF4521"/>
<path d="M66.908 50.7361L63.929 44.985C64.4862 44.1075 64.8056 43.1002 64.8559 42.062C64.9062 41.0238 64.6858 39.9903 64.216 39.0631C63.7463 38.1359 63.0434 37.3468 62.1766 36.7732C61.3097 36.1996 60.3085 35.8613 59.2714 35.7915C58.2343 35.7217 57.197 35.9227 56.2611 36.375C55.3252 36.8272 54.5229 37.5151 53.9332 38.3711C53.3434 39.227 52.9864 40.2216 52.8972 41.2572C52.8079 42.2928 52.9894 43.3338 53.424 44.2781L49.957 50.058C49.8805 50.1851 49.8457 50.3331 49.8575 50.4809C49.8693 50.6288 49.9272 50.7692 50.023 50.8826C50.1188 50.9959 50.2476 51.0763 50.3914 51.1127C50.5353 51.149 50.6869 51.1393 50.825 51.0851L53.3751 50.091L54.033 52.504C54.0713 52.6433 54.1509 52.7678 54.2614 52.8608C54.372 52.9539 54.5082 53.0111 54.652 53.025H54.718C54.8513 53.0251 54.982 52.9876 55.095 52.9169C55.208 52.8461 55.2988 52.7449 55.357 52.625L57.752 47.671C58.1205 47.7419 58.4948 47.7784 58.8701 47.78C58.9451 47.78 59.018 47.771 59.092 47.768L61.559 53.541C61.6138 53.6691 61.705 53.7783 61.8212 53.8551C61.9375 53.9319 62.0736 53.9729 62.213 53.973C62.236 53.973 62.259 53.973 62.283 53.973C62.4334 53.9579 62.5751 53.8954 62.6874 53.7943C62.7998 53.6932 62.8771 53.5589 62.908 53.411L63.489 50.6261L65.994 51.717C66.1285 51.7757 66.278 51.7913 66.4217 51.7616C66.5654 51.7319 66.6965 51.6582 66.7967 51.551C66.8969 51.4438 66.9614 51.3081 66.9814 51.1627C67.0013 51.0173 66.9757 50.8693 66.908 50.739V50.7361ZM54.908 50.3L54.541 48.956C54.5146 48.86 54.4685 48.7705 54.4055 48.6933C54.3424 48.6162 54.2639 48.553 54.175 48.508C54.0859 48.4632 53.9884 48.4377 53.8887 48.4332C53.7891 48.4287 53.6897 48.4454 53.597 48.482L52.247 49.008L54.2761 45.6261C54.8517 46.3132 55.5735 46.8628 56.389 47.235L54.908 50.3ZM54.299 41.785C54.2992 40.8805 54.5676 39.9963 55.0703 39.2442C55.5729 38.4922 56.2874 37.9061 57.1231 37.56C57.9589 37.214 58.8784 37.1234 59.7656 37.2999C60.6527 37.4764 61.4677 37.9121 62.1074 38.5517C62.747 39.1914 63.1826 40.0062 63.3591 40.8934C63.5356 41.7806 63.4451 42.7002 63.0991 43.536C62.753 44.3717 62.1669 45.0861 61.4149 45.5887C60.6628 46.0914 59.7785 46.3598 58.874 46.36C57.6602 46.36 56.4963 45.8781 55.6376 45.0202C54.779 44.1624 54.296 42.9988 54.295 41.785H54.299ZM63.259 48.972C63.1622 48.93 63.0573 48.91 62.9518 48.9136C62.8464 48.9171 62.7431 48.9441 62.6494 48.9925C62.5556 49.041 62.4739 49.1097 62.41 49.1937C62.3461 49.2777 62.3017 49.3748 62.28 49.478L61.98 50.9071L60.54 47.5381C61.438 47.2756 62.262 46.8064 62.946 46.1681L64.73 49.613L63.259 48.972Z" fill="#FF4521"/>
</svg>
