<svg width="58" height="45" viewBox="0 0 58 45" fill="none" xmlns="http://www.w3.org/2000/svg">
<path d="M3.13347 0H0.76947V44.888H3.13347V0Z" fill="#FF4521"/>
<path d="M57.2305 0H54.8665V44.888H57.2305V0Z" fill="#FF4521"/>
<path d="M9.7135 6.77402V38.793L17.3505 30.793L24.9885 22.788L17.3505 14.788L9.7135 6.78302V6.77402ZM7.43652 0.74704L11.2035 4.69403L18.8405 12.699L26.4785 20.699L28.4715 22.788L26.4785 24.874L18.8405 32.879L11.2035 40.879L7.43652 44.827V0.738037V0.74704Z" fill="#FF4521"/>
<path d="M49.0985 6.76498L41.3055 14.775L33.5135 22.784L41.3055 30.794L49.0985 38.804V6.76498ZM51.3755 0.802979V44.766L47.6255 40.912L39.8335 32.902L32.0405 24.892L29.9895 22.784L32.0405 20.677L39.8335 12.667L47.6255 4.65799L51.3755 0.802979Z" fill="#FF4521"/>
</svg>
