<svg width="48" height="51" viewBox="0 0 48 51" fill="none" xmlns="http://www.w3.org/2000/svg">
<path d="M12.7535 17.8414C12.5882 17.65 12.3537 17.5321 12.1015 17.5136C11.8493 17.4951 11.6001 17.5775 11.4087 17.7428C11.2173 17.9081 11.0993 18.1426 11.0808 18.3948C11.0623 18.647 11.1448 18.8962 11.3101 19.0877L20.2439 29.4376C20.3333 29.5415 20.4442 29.6248 20.5689 29.6818C20.6935 29.7388 20.8291 29.7682 20.9662 29.7678H21.0351C21.1836 29.7571 21.3276 29.7116 21.4553 29.6351C21.583 29.5585 21.691 29.453 21.7705 29.3271L39.4314 1.46227C39.5666 1.2488 39.6114 0.99043 39.5561 0.743908C39.5007 0.497385 39.3497 0.282969 39.1362 0.1478C38.9228 0.0126309 38.6643 -0.0322098 38.4178 0.0231548C38.1713 0.0785194 37.9568 0.229523 37.8217 0.44299L20.851 27.2184L12.7535 17.8414Z" fill="#FF4521"/>
<path d="M47.3874 44.5616L36.4019 33.576C38.2242 30.7858 39.3034 27.5763 39.5371 24.2519C39.7708 20.9275 39.1512 17.5986 37.7371 14.5809C37.6299 14.352 37.436 14.1751 37.1983 14.0891C36.9606 14.0031 36.6985 14.0151 36.4696 14.1224C36.2407 14.2296 36.0637 14.4235 35.9777 14.6612C35.8918 14.8989 35.9037 15.161 36.011 15.3899C37.1143 17.7395 37.6824 20.3048 37.6742 22.9005C37.6742 26.4015 36.636 29.8239 34.691 32.7349C32.7459 35.6459 29.9814 37.9147 26.7469 39.2544C23.5124 40.5942 19.9533 40.9448 16.5195 40.2618C13.0858 39.5788 9.93167 37.8928 7.4561 35.4173C4.98052 32.9417 3.29469 29.7876 2.61168 26.3539C1.92867 22.9202 2.27922 19.361 3.619 16.1265C4.95877 12.892 7.22758 10.1274 10.1385 8.18239C13.0495 6.23734 16.4718 5.19917 19.9728 5.19917C22.693 5.19157 25.3775 5.81755 27.8137 7.02751C27.9259 7.08305 28.0479 7.116 28.1728 7.12439C28.2977 7.13277 28.423 7.11643 28.5416 7.07639C28.6602 7.03634 28.7697 6.97336 28.864 6.89098C28.9582 6.8086 29.0353 6.70847 29.0909 6.59629C29.1464 6.48412 29.1793 6.36211 29.1877 6.23722C29.1961 6.11234 29.1798 5.98703 29.1397 5.86844C29.0997 5.74985 29.0366 5.64029 28.9543 5.54605C28.8719 5.45182 28.7717 5.37471 28.6596 5.31917C25.9595 3.97796 22.9841 3.28405 19.9693 3.29243C16.9162 3.28866 13.9044 3.99814 11.174 5.36427C8.44357 6.73041 6.06997 8.71544 4.24244 11.1612C2.41491 13.6069 1.18396 16.4458 0.647667 19.4514C0.111377 22.4571 0.284593 25.5465 1.1535 28.4733C2.02241 31.4002 3.56301 34.0836 5.65248 36.3097C7.74194 38.5359 10.3225 40.2431 13.1885 41.2955C16.0546 42.3478 19.1268 42.7162 22.1603 42.3712C25.1939 42.0261 28.1049 40.9772 30.6614 39.3081L41.6445 50.2901C41.7328 50.3788 41.8378 50.4492 41.9534 50.4972C42.069 50.5453 42.1929 50.57 42.3181 50.57C42.4433 50.57 42.5673 50.5453 42.6828 50.4972C42.7984 50.4492 42.9034 50.3788 42.9917 50.2901L47.3767 45.9063C47.4656 45.818 47.5361 45.713 47.5843 45.5973C47.6324 45.4816 47.6572 45.3575 47.6572 45.2321C47.6572 45.1068 47.6324 44.9827 47.5843 44.867C47.5361 44.7513 47.4656 44.6463 47.3767 44.5579L47.3874 44.5616ZM42.3289 48.2717L32.4327 38.3744L35.5215 35.3877L45.3689 45.2351L42.3289 48.2717Z" fill="#FF4521"/>
<path d="M20.1986 35.4445C16.8729 35.4407 13.6844 34.1179 11.3327 31.7662C8.98104 29.4145 7.65826 26.226 7.65449 22.9003C7.65449 22.6474 7.55404 22.4049 7.37525 22.2261C7.19646 22.0473 6.95397 21.9469 6.70112 21.9469C6.44827 21.9469 6.20571 22.0473 6.02692 22.2261C5.84813 22.4049 5.74768 22.6474 5.74768 22.9003C5.75208 26.7315 7.27606 30.4047 9.98519 33.1138C12.6943 35.8229 16.3674 37.3468 20.1986 37.3512C20.4507 37.3512 20.6925 37.2511 20.8707 37.0728C21.049 36.8946 21.1491 36.6529 21.1491 36.4008C21.1491 36.1488 21.049 35.907 20.8707 35.7288C20.6925 35.5506 20.4507 35.4504 20.1986 35.4504V35.4445Z" fill="#FF4521"/>
</svg>
