<svg width="165" height="102" viewBox="0 0 165 102" fill="none" xmlns="http://www.w3.org/2000/svg">
<g clip-path="url(#clip0_526_718)">
<path d="M59.8739 81.2992C64.6766 76.5231 67.3848 73.6415 67.3848 71.0667C67.4291 70.654 67.382 70.2365 67.2468 69.844C67.1117 69.4515 66.8918 69.0936 66.6027 68.7956C66.3137 68.4977 65.9626 68.267 65.5744 68.12C65.1862 67.973 64.7703 67.9132 64.3564 67.9449C63.6841 67.9996 63.0316 68.1997 62.4442 68.5314C61.8568 68.8631 61.3485 69.3185 60.9545 69.866L59.7805 68.692C60.3521 67.9513 61.0829 67.3486 61.9188 66.9283C62.7548 66.508 63.6744 66.281 64.6099 66.264C65.2421 66.215 65.8775 66.3023 66.4731 66.52C67.0686 66.7377 67.6105 67.0808 68.062 67.526C68.5136 67.9712 68.8642 68.5082 69.0903 69.1006C69.3164 69.6931 69.4127 70.3271 69.3726 70.96C69.3726 73.9617 66.7044 76.95 62.8623 80.8989C63.7428 80.8189 64.7166 80.7522 65.5304 80.7522H70.1597V82.5265H59.8739V81.2992Z" fill="#6A6E81"/>
<path d="M71.7874 74.4955C71.7874 69.1591 73.7084 66.2642 76.9103 66.2642C80.1121 66.2642 82.0198 69.1458 82.0198 74.4955C82.0198 79.8452 80.0454 82.8202 76.9103 82.8202C73.7751 82.8202 71.7874 79.8452 71.7874 74.4955ZM80.0187 74.4955C80.0187 69.8128 78.7646 67.9184 76.9103 67.9184C75.0559 67.9184 73.7885 69.8128 73.7885 74.4955C73.7885 79.1781 75.0425 81.1659 76.9103 81.1659C78.778 81.1659 80.0454 79.1781 80.0454 74.4955H80.0187Z" fill="#6A6E81"/>
<path d="M83.5005 81.2994C88.3032 76.5233 91.0114 73.6417 91.0114 71.0669C91.0544 70.6601 91.0087 70.2488 90.8773 69.8614C90.746 69.474 90.5322 69.1197 90.2506 68.8229C89.9691 68.5261 89.6265 68.294 89.2465 68.1424C88.8665 67.9909 88.4582 67.9236 88.0497 67.9452C87.3774 67.9998 86.7249 68.1999 86.1375 68.5316C85.5501 68.8633 85.0418 69.3187 84.6478 69.8662L83.4604 68.6922C84.034 67.9537 84.7652 67.3524 85.6007 66.9324C86.4362 66.5123 87.3549 66.284 88.2898 66.2642C88.9237 66.2134 89.5611 66.2993 90.1589 66.516C90.7567 66.7327 91.301 67.0752 91.755 67.5204C92.2091 67.9656 92.5623 68.5031 92.7907 69.0965C93.0191 69.6899 93.1175 70.3255 93.0792 70.9602C93.0792 73.9619 90.411 76.9502 86.5689 80.8991C87.4494 80.8191 88.4233 80.7524 89.2371 80.7524H93.8663V82.5267H83.5005V81.2994Z" fill="#6A6E81"/>
<path d="M96.2944 80.8192H99.9365V69.0659H97.0415V67.7318C98.2326 67.5572 99.3787 67.1541 100.417 66.5444H101.991V80.8192H105.3V82.5268H96.2944V80.8192Z" fill="#6A6E81"/>
<path fill-rule="evenodd" clip-rule="evenodd" d="M132.075 76.6033C132.851 77.6149 133.868 78.416 135.033 78.9333C136.198 79.4507 137.474 79.6678 138.745 79.565C141.419 79.4421 144.035 78.746 146.416 77.5238C142.32 76.8968 143.308 76.0564 140.439 75.0958C138.602 74.6584 136.679 74.7462 134.89 75.3493C136.968 74.6443 138.967 73.7232 140.853 72.6011C141.763 73.2923 142.82 73.766 143.941 73.9856C145.063 74.2053 146.22 74.1652 147.323 73.8684C149.752 73.2112 152.021 72.0674 153.994 70.5065C150.165 70.7734 150.939 69.8395 148.164 69.586C146.789 69.5309 145.42 69.791 144.162 70.3465C145.536 69.2743 146.821 68.0919 148.004 66.8111C149.015 67.2627 150.119 67.468 151.226 67.41C152.332 67.352 153.409 67.0325 154.367 66.4776C156.506 65.2886 158.384 63.6827 159.89 61.7549C156.355 62.9022 156.875 61.8216 154.221 62.2219C152.742 62.5625 151.368 63.2585 150.218 64.2497C151.381 62.7225 152.425 61.1079 153.34 59.4203C154.448 59.6168 155.587 59.5554 156.667 59.2407C157.748 58.9261 158.741 58.3666 159.57 57.6059C161.449 55.919 162.985 53.8851 164.093 51.6159C160.784 53.5636 161.104 52.3763 158.53 53.3769C156.932 54.1345 155.555 55.287 154.527 56.7254C155.345 54.8644 156.014 52.9418 156.529 50.9755C157.597 50.8792 158.631 50.5454 159.554 49.9983C160.478 49.4513 161.267 48.7049 161.865 47.8137C163.291 45.8041 164.319 43.5398 164.893 41.1433C162.225 43.8114 162.225 42.5574 160.024 44.1049C158.765 45.138 157.777 46.461 157.142 47.9605C157.486 46.0164 157.692 44.0503 157.756 42.0771C158.733 41.7942 159.634 41.2963 160.393 40.62C161.153 39.9436 161.751 39.1059 162.145 38.1683C163.095 36.0645 163.647 33.8028 163.773 31.4978C161.812 34.3661 161.665 33.2988 159.957 35.1132C158.818 36.57 158.066 38.2908 157.769 40.116C157.739 37.9286 157.534 35.7471 157.156 33.5923C158.071 33.1606 158.873 32.5228 159.501 31.7289C160.128 30.935 160.563 30.0066 160.771 29.0164C161.253 26.8992 161.29 24.7048 160.878 22.5728C159.544 25.6412 159.13 24.6806 157.809 26.7218C157.023 28.2195 156.659 29.9026 156.755 31.5912C156.622 30.9909 156.475 30.4039 156.302 29.8035C155.982 28.5895 155.595 27.4155 155.168 26.2682C155.918 25.6829 156.528 24.9369 156.953 24.0851C157.378 23.2333 157.607 22.2971 157.622 21.3454C157.663 19.3284 157.3 17.3236 156.555 15.4487C155.915 18.5305 155.368 17.73 154.554 19.8646C154.153 21.2444 154.102 22.7027 154.407 24.107C153.758 22.6241 153.014 21.1848 152.179 19.7979C152.681 19.1443 153.044 18.396 153.248 17.5981C153.452 16.8002 153.493 15.9692 153.367 15.1552C153.127 13.3223 152.562 11.5469 151.699 9.91227C151.592 12.7806 151.045 12.1269 150.685 14.1547C150.543 15.5417 150.721 16.9429 151.206 18.2503C150.3 16.8541 149.307 15.5173 148.231 14.2481C148.633 13.6122 148.9 12.9002 149.015 12.1564C149.13 11.4127 149.09 10.6532 148.898 9.92561C148.511 8.32667 147.818 6.81794 146.856 5.4831C147.043 8.04455 146.47 7.5376 146.336 9.39198C146.351 10.7657 146.708 12.1139 147.377 13.3142C146.344 12.2314 145.243 11.2154 144.081 10.2725C144.407 9.66073 144.592 8.98443 144.625 8.29233C144.657 7.60023 144.535 6.90959 144.268 6.27021C143.735 4.94574 142.92 3.75308 141.88 2.7749C142.334 5.00283 141.747 4.66931 141.88 6.33692C142.012 7.51736 142.474 8.6366 143.214 9.56541C142.103 8.69553 140.94 7.89362 139.732 7.16405C139.828 6.58496 139.806 5.9926 139.669 5.42202C139.531 4.85144 139.281 4.31423 138.932 3.84217C138.191 2.79299 137.264 1.88863 136.197 1.174C137.078 2.98836 136.531 2.7749 136.984 4.16235C137.372 5.09871 137.976 5.93049 138.745 6.59039C137.643 5.97506 136.508 5.42274 135.343 4.93613C135.36 4.38443 135.265 3.835 135.063 3.32126C134.862 2.80751 134.557 2.34021 134.169 1.94777C133.316 1.08898 132.288 0.424569 131.154 0C132.221 1.60091 131.648 1.5342 132.248 2.81493C132.603 3.48461 133.122 4.05367 133.756 4.46919C133.465 4.40953 133.166 4.40953 132.875 4.46919C132.058 4.73411 131.224 4.94798 130.38 5.10956C130.998 5.70397 131.778 6.10303 132.622 6.25687C133.094 6.35474 133.582 6.33797 134.047 6.20798C134.511 6.07799 134.937 5.83856 135.29 5.50978C136.317 5.95003 137.318 6.4303 138.278 6.9506C137.851 6.79304 137.389 6.76064 136.944 6.85721C135.61 7.17739 135.97 7.43087 134.369 7.75105C135.095 8.31537 135.963 8.66646 136.877 8.76496C137.389 8.82458 137.908 8.76128 138.391 8.58031C138.873 8.39934 139.306 8.10591 139.652 7.72437C140.848 8.44819 141.998 9.24574 143.094 10.1124C142.349 9.57498 141.452 9.28985 140.533 9.29859C138.905 9.37864 139.199 9.68548 137.238 9.71216C138.135 10.4291 139.185 10.9311 140.306 11.1797C140.891 11.3306 141.5 11.3635 142.098 11.2765C142.696 11.1894 143.27 10.9842 143.788 10.6727C144.835 11.5413 145.824 12.4771 146.75 13.4743C146.088 12.8929 145.254 12.5459 144.375 12.4871C142.467 12.3937 142.827 12.8339 140.479 12.6338C141.357 13.6719 142.487 14.4667 143.761 14.9418C144.404 15.2026 145.096 15.3175 145.788 15.2783C146.48 15.2391 147.155 15.0467 147.764 14.715C149.039 16.271 150.181 17.9311 151.179 19.6778C150.528 18.545 149.483 17.6906 148.244 17.2764C146.309 16.7561 146.603 17.2764 144.242 16.5694C144.976 17.7987 145.991 18.8365 147.203 19.5977C147.831 20.0135 148.541 20.2873 149.286 20.4002C150.03 20.5131 150.79 20.4624 151.512 20.2515C152.372 21.8125 153.134 23.4254 153.794 25.0809C153.234 24.1208 152.384 23.3638 151.366 22.9196C149.391 22.1325 149.658 22.7062 147.257 21.6522C147.927 23.0177 148.898 24.2129 150.098 25.1476C150.678 25.6345 151.351 25.998 152.075 26.216C152.8 26.4339 153.562 26.5016 154.314 26.4149C154.701 27.4555 155.061 28.5361 155.408 29.6568L155.728 30.8041C155.237 30.0581 154.561 29.4515 153.767 29.0431C151.712 28.0025 151.953 28.6562 149.458 27.2954C150.075 28.8187 151.023 30.1858 152.233 31.2977C153.303 32.3594 154.729 32.9867 156.235 33.0587C156.576 34.8644 156.786 36.6924 156.862 38.5285C156.446 37.6242 155.83 36.826 155.061 36.1938C153.047 34.5929 153.207 35.34 150.779 33.2722C151.219 35.0553 152.018 36.7302 153.127 38.1949C154.051 39.5027 155.362 40.4873 156.875 41.0099C156.825 43.1601 156.593 45.3023 156.182 47.4135C156.007 46.1795 155.515 45.0119 154.754 44.0249C152.9 41.877 152.913 42.6908 150.752 40.0226C150.821 42.0482 151.322 44.0356 152.219 45.8526C152.959 47.5335 154.255 48.9089 155.888 49.7481C155.37 51.8533 154.673 53.9107 153.807 55.8983C153.793 54.6183 153.448 53.3638 152.806 52.2562C151.272 49.6948 151.139 50.5486 149.338 47.3201C149.052 49.4109 149.211 51.5386 149.805 53.5636C150.27 55.3699 151.304 56.9788 152.753 58.1529C151.641 60.2315 150.337 62.2013 148.858 64.0362C149.216 62.6486 149.18 61.1882 148.751 59.8205C147.817 57.0189 147.51 57.806 146.47 54.3107C145.746 56.2386 145.445 58.2998 145.589 60.3541C145.66 62.2665 146.364 64.1011 147.59 65.5704C146.014 67.3667 144.247 68.986 142.32 70.3998C143.007 68.9454 143.275 67.3286 143.094 65.7305C142.667 62.6754 142.227 63.4225 141.76 59.6204C140.723 61.4844 140.078 63.5411 139.866 65.6638C139.613 67.6202 139.962 69.6072 140.866 71.3604C139.023 72.5453 137.049 73.5124 134.983 74.242L134.276 74.5622C135.4 73.3769 136.1 71.8519 136.264 70.2264C136.531 67.0646 135.837 67.6516 136.264 63.7694C134.645 65.2274 133.409 67.0596 132.662 69.1058C131.842 71.1079 131.799 73.3439 132.542 75.376C128.873 77.0436 122.162 80.2054 120.695 81.5261C119.801 82.3132 120.495 83.5006 121.028 83.0737C122.109 82.2198 125.031 80.4055 126.191 79.645C128.088 78.5105 130.053 77.4946 132.075 76.6033Z" fill="#6A6E81"/>
<path fill-rule="evenodd" clip-rule="evenodd" d="M38.6886 79.6049C39.8225 80.3787 42.7709 82.1797 43.8515 83.0335C44.3984 83.4604 45.0788 82.2731 44.1983 81.4726C42.7308 80.1386 36.0204 77.0035 32.3383 75.3358C33.0845 73.3008 33.0464 71.0608 32.2316 69.0523C31.4807 67.0047 30.2394 65.1725 28.6162 63.7159C29.0698 67.5981 28.3894 67.0245 28.6162 70.1863C28.7855 71.8382 29.5153 73.3824 30.684 74.5621L29.9636 74.2552C27.9014 73.5209 25.9315 72.5494 24.0936 71.3603C25.0013 69.6131 25.3462 67.6279 25.0809 65.677C24.875 63.5531 24.2299 61.495 23.1864 59.6336C22.7862 63.4358 22.346 62.6887 21.9324 65.7438C21.7437 67.335 22.0025 68.9474 22.6795 70.3997C20.7509 68.9933 18.9875 67.3732 17.4232 65.5703C18.6497 64.1023 19.3495 62.266 19.411 60.354C19.5584 58.3051 19.2626 56.2484 18.5438 54.324C17.5032 57.8193 17.2097 56.9921 16.2492 59.8204C15.8277 61.1898 15.7953 62.6494 16.1558 64.0361C14.7005 62.1678 13.4315 60.1616 12.367 58.0461C13.8215 56.8765 14.8563 55.2658 15.3153 53.4568C15.9028 51.4352 16.0618 49.3132 15.7823 47.2266C13.9812 50.4551 13.8478 49.6013 12.3136 52.1494C11.6739 53.2585 11.3251 54.5114 11.2997 55.7915C10.4473 53.8032 9.75143 51.7513 9.21855 49.6547C10.8571 48.8179 12.1574 47.4422 12.9006 45.7591C13.7921 43.9445 14.2921 41.9628 14.3681 39.9425C12.1535 42.6107 12.1535 41.8502 10.3659 43.9448C9.54002 44.9305 8.99201 46.1186 8.7783 47.3867C8.3568 45.2931 8.09811 43.17 8.00453 41.0364C9.52385 40.518 10.8406 39.5328 11.7667 38.2215C12.8769 36.7741 13.6845 35.1181 14.1413 33.3521C11.7 35.4199 11.8734 34.6862 9.85891 36.2871C9.07451 36.8903 8.43992 37.6664 8.00453 38.555C8.07269 36.7184 8.28232 34.8897 8.63155 33.0853C10.1375 33.0133 11.5633 32.3859 12.6338 31.3243C13.8457 30.2138 14.7938 28.8464 15.4087 27.322C12.9006 28.6561 13.1541 28.0424 11.0996 29.0697C10.3053 29.4781 9.62976 30.0847 9.1385 30.8307C9.23189 30.4438 9.33862 30.0702 9.45868 29.6834C9.79221 28.5761 10.1658 27.4955 10.5526 26.4549C11.3092 26.5325 12.0736 26.4541 12.7987 26.2247C13.5238 25.9952 14.1942 25.6195 14.7684 25.1208C15.968 24.1913 16.9398 23.0004 17.61 21.6388C15.2086 22.6927 15.4754 22.1057 13.501 22.8928C12.5074 23.3617 11.6828 24.1258 11.1396 25.0808C11.8041 23.4251 12.5704 21.8122 13.4343 20.2514C14.1561 20.4687 14.9172 20.5229 15.6624 20.4098C16.4077 20.2967 17.1185 20.0193 17.7434 19.5976C18.9561 18.8364 19.971 17.7986 20.705 16.5693C18.3304 17.2897 18.6372 16.7694 16.7028 17.2763C15.4634 17.6904 14.4191 18.5449 13.7678 19.6777C14.7598 17.9147 15.9025 16.2409 17.1831 14.6749C17.794 15.0009 18.469 15.189 19.1605 15.2258C19.852 15.2627 20.5432 15.1475 21.1853 14.8883C22.456 14.4139 23.5853 13.6243 24.4672 12.5937C22.1192 12.7938 22.4794 12.3402 20.5716 12.4336C19.6914 12.4962 18.8566 12.848 18.197 13.4342C19.1486 12.4521 20.16 11.5299 21.2253 10.6726C21.7428 10.9846 22.3178 11.1892 22.9161 11.274C23.5143 11.3588 24.1235 11.3221 24.7073 11.1662C25.8306 10.9232 26.8814 10.4206 27.7757 9.69872C25.7479 9.69872 26.1081 9.36519 24.4805 9.29849C23.5631 9.28492 22.6655 9.56543 21.9191 10.0989C23.0103 9.21905 24.1554 8.40812 25.3477 7.6709C25.6942 8.05245 26.1267 8.34588 26.6093 8.52685C27.0918 8.70782 27.6106 8.77112 28.1226 8.71149C29.0567 8.62937 29.9468 8.27707 30.684 7.69758C29.7799 7.45068 28.8893 7.15678 28.0158 6.81709C27.5732 6.70916 27.1083 6.73705 26.6818 6.89713C27.6423 6.37684 28.6429 5.89657 29.6701 5.45632C30.0233 5.78465 30.4492 6.02471 30.9129 6.15688C31.3767 6.28905 31.8651 6.30956 32.3383 6.21675C33.2178 6.07679 34.0354 5.67727 34.6863 5.06943C33.8458 4.896 33.0187 4.68255 32.1915 4.42907C31.9018 4.36279 31.6008 4.36279 31.311 4.42907C31.942 4.01008 32.4598 3.44186 32.8186 2.7748C33.4056 1.44071 32.8186 1.54744 33.9125 -0.0534668C32.7885 0.374493 31.7694 1.03871 30.9242 1.8943C30.5379 2.28811 30.2349 2.75565 30.0332 3.26907C29.8315 3.78248 29.7352 4.33125 29.7502 4.88266C28.5882 5.37467 27.4527 5.92684 26.3482 6.53693C27.0804 5.8745 27.6509 5.05299 28.0158 4.13557C28.4694 2.80148 27.9225 2.97491 28.803 1.14721C27.7383 1.86485 26.8118 2.76873 26.0681 3.81539C25.7306 4.29979 25.4931 4.84658 25.3695 5.42382C25.2458 6.00106 25.2384 6.59716 25.3477 7.17729C24.1433 7.90093 22.9848 8.69846 21.879 9.56531C22.6433 8.64415 23.1292 7.52424 23.2798 6.33681C23.3465 4.6692 22.7595 5.00273 23.2131 2.7748C22.1762 3.75839 21.358 4.94934 20.8118 6.27011C20.5497 6.91109 20.4317 7.60188 20.4663 8.29352C20.5009 8.98516 20.6871 9.66074 21.0119 10.2724C19.8408 11.2524 18.7314 12.3039 17.69 13.4208C18.3396 12.2157 18.6789 10.8677 18.6772 9.4986C18.5305 7.64422 17.9702 8.16452 18.1569 5.58973C17.2005 6.92742 16.5077 8.43516 16.1158 10.0322C15.9236 10.7598 15.8837 11.5193 15.9985 12.263C16.1133 13.0068 16.3803 13.7188 16.7828 14.3547C15.7057 15.6264 14.7077 16.963 13.7945 18.3569C14.2897 17.0521 14.4724 15.6495 14.3281 14.2613C13.9546 12.2335 13.4076 12.9272 13.3142 10.0322C12.4491 11.6423 11.8841 13.3963 11.6466 15.2085C11.5222 16.0194 11.562 16.8471 11.7637 17.6423C11.9653 18.4375 12.3248 19.1842 12.8206 19.8378C12.0208 21.2354 11.3037 22.6787 10.6727 24.1602C10.9803 22.7554 10.9252 21.2955 10.5126 19.9178C9.69882 17.7833 9.17852 18.5837 8.51148 15.4887C7.74261 17.3445 7.35689 19.3366 7.37751 21.3453C7.38454 22.282 7.5987 23.2055 8.00463 24.0497C8.41057 24.8938 8.99824 25.6377 9.7255 26.2281C9.29859 27.3754 8.92505 28.5494 8.57819 29.7634C8.41809 30.3637 8.27135 30.9507 8.13794 31.5511C8.23407 29.8624 7.8698 28.1794 7.08401 26.6817C5.74992 24.6405 5.34969 25.601 4.0156 22.5326C3.60373 24.6647 3.64008 26.8591 4.12233 28.9763C4.32494 29.9737 4.75716 30.9101 5.38472 31.7114C6.01228 32.5126 6.81791 33.1566 7.73771 33.5922C7.3597 35.747 7.15449 37.9285 7.12403 40.1159C6.8216 38.2925 6.06966 36.5731 4.93613 35.1131C3.22849 33.3521 3.08174 34.3793 1.12063 31.4977C1.24039 33.8035 1.7925 36.0663 2.74822 38.1682C3.14194 39.1058 3.74045 39.9435 4.49991 40.6199C5.25937 41.2963 6.16054 41.7941 7.13737 42.077C7.1951 44.0507 7.40023 46.0173 7.75105 47.9604C7.12415 46.4305 6.12983 45.0788 4.85608 44.0248C2.66818 42.5173 2.66818 43.718 0 41.1031C0.574713 43.4971 1.59776 45.7605 3.01504 47.7736C3.62605 48.6701 4.42928 49.4191 5.36625 49.966C6.30322 50.513 7.35035 50.8441 8.43144 50.9354C8.94398 52.9023 9.61316 54.8251 10.4326 56.6853C9.42494 55.261 8.0703 54.1176 6.49701 53.3634C3.92222 52.3629 4.2424 53.5502 0.933862 51.5891C2.05748 53.8629 3.61148 55.8971 5.50978 57.5791C6.33667 58.3446 7.329 58.9089 8.40959 59.2282C9.49017 59.5475 10.6299 59.6132 11.74 59.4202C12.6549 61.1078 13.6986 62.7224 14.8617 64.2496C13.7123 63.2584 12.3385 62.5624 10.8595 62.2218C8.1913 61.8215 8.72494 62.9021 5.1896 61.7548C6.68453 63.6785 8.54871 65.2842 10.6727 66.4775C11.6326 67.0284 12.7082 67.3467 13.8133 67.407C14.9184 67.4672 16.0222 67.2677 17.0363 66.8244C18.2226 68.0974 19.5073 69.2751 20.8785 70.3464C19.6194 69.7923 18.2507 69.5322 16.8762 69.5859C14.1013 69.8394 14.8751 70.7866 11.0462 70.5064C13.0158 72.0724 15.2863 73.2167 17.7167 73.8683C18.8204 74.1651 19.9774 74.2052 21.0989 73.9855C22.2205 73.7659 23.2769 73.2922 24.187 72.601C26.0732 73.7231 28.072 74.6442 30.1504 75.3492C28.3608 74.7461 26.4377 74.6583 24.6006 75.0957C21.7323 76.0563 22.7195 76.8967 18.6239 77.5238C21.0051 78.7459 23.6212 79.442 26.2949 79.5649C27.5656 79.6678 28.8419 79.4506 30.0071 78.9332C31.1723 78.4159 32.1894 77.6148 32.9653 76.6032C34.9319 77.4874 36.8431 78.4898 38.6886 79.6049Z" fill="#6A6E81"/>
<path d="M48.4275 13.6743H51.4959C53.4703 13.6743 54.9245 14.2747 54.9245 16.0357C54.9416 16.4773 54.8229 16.9137 54.5844 17.2858C54.3458 17.6579 53.9989 17.948 53.5904 18.1168V18.1835C54.1228 18.2683 54.6051 18.5467 54.9449 18.9653C55.2846 19.3838 55.4579 19.913 55.4315 20.4515C55.4315 22.3726 53.8572 23.2664 51.736 23.2664H48.4275V13.6743ZM51.3491 17.6766C52.6832 17.6766 53.2569 17.1429 53.2569 16.3425C53.2569 15.542 52.6165 15.0084 51.3758 15.0084H50.1218V17.6766H51.3491ZM51.5626 21.9857C52.9767 21.9857 53.7638 21.4787 53.7638 20.3981C53.7638 19.3175 53.0034 18.9573 51.5626 18.9573H50.1218V21.9857H51.5626Z" fill="#6A6E81"/>
<path d="M56.4186 19.6777C56.3805 19.2093 56.4369 18.738 56.5844 18.2917C56.7319 17.8455 56.9676 17.4335 57.2775 17.0801C57.5873 16.7267 57.965 16.4392 58.3881 16.2345C58.8112 16.0299 59.2711 15.9124 59.7405 15.8889C61.6882 15.8889 62.7021 17.3431 62.7021 19.3042C62.7283 19.5793 62.7283 19.8562 62.7021 20.1313H58.0728C58.078 20.4034 58.1372 20.6718 58.2469 20.9209C58.3567 21.1699 58.5148 21.3947 58.7122 21.5821C58.9095 21.7696 59.1422 21.9159 59.3966 22.0127C59.6509 22.1094 59.922 22.1547 60.194 22.1458C60.7905 22.1368 61.3708 21.9511 61.8617 21.6122L62.4353 22.6661C61.71 23.1577 60.8568 23.4267 59.9806 23.4399C59.4915 23.4548 59.0048 23.3661 58.5524 23.1796C58.1001 22.9931 57.6923 22.7129 57.3559 22.3576C57.0195 22.0023 56.762 21.5798 56.6005 21.118C56.4389 20.6561 56.377 20.1653 56.4186 19.6777ZM61.248 18.984C61.248 17.8634 60.7677 17.1963 59.7805 17.1963C59.3168 17.2135 58.8776 17.409 58.5545 17.742C58.2314 18.0751 58.0493 18.52 58.0462 18.984H61.248Z" fill="#6A6E81"/>
<path d="M63.4626 22.4526L64.2631 21.3587C64.8092 21.8555 65.5131 22.1437 66.2509 22.1725C67.038 22.1725 67.3982 21.7989 67.3982 21.3053C67.3982 20.8117 66.6244 20.4382 65.864 20.1447C65.1036 19.8512 63.8762 19.2508 63.8762 18.0501C63.8762 16.8495 64.8768 15.8889 66.5444 15.8889C67.4195 15.9 68.2654 16.2055 68.9458 16.7561L68.172 17.7833C67.724 17.4109 67.1664 17.1954 66.5844 17.1696C65.864 17.1696 65.5171 17.5032 65.5171 17.9568C65.5171 18.4103 66.2109 18.7439 66.9846 19.024C67.9719 19.3976 69.0525 19.8645 69.0525 21.2119C69.0525 22.5594 68.0653 23.4399 66.2509 23.4399C65.2376 23.4295 64.2566 23.0822 63.4626 22.4526Z" fill="#6A6E81"/>
<path d="M70.3197 20.8385V17.3432H69.2925V16.1425L70.4131 16.0624L70.6132 14.1013H72.0407V16.0091H73.8684V17.3432H72.0407V20.7851C72.0407 21.6256 72.3609 22.0391 73.0546 22.0391C73.3115 22.0336 73.5651 21.9793 73.8017 21.8791L74.0952 23.1331C73.623 23.2967 73.1274 23.3823 72.6277 23.3866C70.9334 23.4399 70.3197 22.386 70.3197 20.8385Z" fill="#6A6E81"/>
<path d="M77.6572 18.4235C77.6572 15.3284 79.3915 13.5007 81.8863 13.5007C84.381 13.5007 86.1287 15.3284 86.1287 18.4235C86.1287 21.5186 84.3944 23.4397 81.8863 23.4397C79.3782 23.4397 77.6572 21.5319 77.6572 18.4235ZM84.3277 18.4235C84.3277 16.289 83.3538 14.9816 81.8463 14.9816C80.3387 14.9816 79.3649 16.3157 79.3649 18.4235C79.3649 20.5314 80.3387 21.9588 81.8463 21.9588C83.3538 21.9588 84.3677 20.5847 84.3677 18.4235H84.3277Z" fill="#6A6E81"/>
<path d="M87.7563 16.0089H89.0904L89.2105 16.9828C89.5045 16.6399 89.8658 16.3612 90.272 16.1638C90.6782 15.9664 91.1206 15.8547 91.5718 15.8354C93.106 15.8354 93.7864 16.876 93.7864 18.6904V23.213H92.2122V18.9706C92.2122 17.7832 91.8787 17.343 91.0916 17.343C90.7681 17.3658 90.4533 17.4574 90.1681 17.6115C89.8828 17.7657 89.6337 17.9788 89.4373 18.2368V23.2663H87.7563V16.0089Z" fill="#6A6E81"/>
<path d="M95.8276 21.4253V12.9138H97.5086V21.5053C97.5086 21.9189 97.7087 22.0657 97.8821 22.0657H98.149L98.3624 23.3197C98.0781 23.4308 97.7735 23.4808 97.4686 23.4665C96.2679 23.4398 95.8276 22.6793 95.8276 21.4253Z" fill="#6A6E81"/>
<path d="M99.4963 13.8344C99.4856 13.6319 99.5359 13.4309 99.6406 13.2573C99.7453 13.0837 99.8997 12.9455 100.084 12.8605C100.268 12.7755 100.473 12.7476 100.673 12.7805C100.873 12.8134 101.059 12.9055 101.206 13.0449C101.353 13.1844 101.455 13.3647 101.499 13.5627C101.543 13.7607 101.526 13.9673 101.451 14.1557C101.376 14.3441 101.246 14.5057 101.079 14.6196C100.911 14.7336 100.713 14.7946 100.51 14.7949C100.379 14.8063 100.246 14.7897 100.122 14.7462C99.9971 14.7026 99.8832 14.6332 99.7874 14.5425C99.6916 14.4517 99.6161 14.3417 99.5659 14.2196C99.5158 14.0976 99.492 13.9663 99.4963 13.8344ZM99.6564 16.0089H101.391V23.213H99.6564V16.0089Z" fill="#6A6E81"/>
<path d="M103.352 16.0089H104.686L104.793 16.9828H104.859C105.153 16.6399 105.515 16.3612 105.921 16.1638C106.327 15.9664 106.769 15.8547 107.221 15.8354C108.755 15.8354 109.435 16.876 109.435 18.6904V23.213H107.821V18.9706C107.821 17.7832 107.474 17.343 106.687 17.343C106.366 17.3677 106.054 17.4601 105.771 17.6142C105.488 17.7682 105.241 17.9804 105.046 18.2368V23.2663H103.352V16.0089Z" fill="#6A6E81"/>
<path d="M110.956 19.6777C110.918 19.2093 110.974 18.738 111.122 18.2917C111.27 17.8455 111.505 17.4335 111.815 17.0801C112.125 16.7267 112.503 16.4392 112.926 16.2345C113.349 16.0299 113.809 15.9124 114.278 15.8889C116.226 15.8889 117.253 17.303 117.253 19.3042C117.261 19.5821 117.234 19.86 117.173 20.1313H112.597C112.604 20.4041 112.665 20.6727 112.776 20.9219C112.887 21.171 113.047 21.3957 113.245 21.5829C113.443 21.7702 113.677 21.9163 113.932 22.0129C114.187 22.1095 114.459 22.1547 114.732 22.1458C115.328 22.1344 115.907 21.9489 116.399 21.6122L116.973 22.6661C116.242 23.156 115.385 23.4246 114.505 23.4399C114.017 23.4529 113.532 23.3628 113.081 23.1754C112.63 22.988 112.224 22.7076 111.889 22.3525C111.554 21.9974 111.298 21.5756 111.137 21.1147C110.976 20.6538 110.915 20.1641 110.956 19.6777ZM115.786 18.984C115.786 17.8634 115.305 17.1963 114.318 17.1963C113.854 17.2135 113.415 17.409 113.092 17.742C112.769 18.0751 112.587 18.52 112.584 18.984H115.786Z" fill="#6A6E81"/>
<path d="M33.5123 31.6579H30.6841V30.217H37.9282V31.6579H35.2066V39.8225H33.5123V31.6579Z" fill="#6A6E81"/>
<path d="M38.6885 32.6183H40.0226L40.1426 33.8857C40.3227 33.4848 40.6071 33.1396 40.9662 32.8862C41.3252 32.6327 41.7457 32.4803 42.1838 32.4449C42.4672 32.4279 42.7506 32.4782 43.0109 32.5916L42.7174 34.0591C42.4773 33.976 42.2244 33.9354 41.9703 33.939C41.3967 33.939 40.6362 34.3259 40.2627 35.4199V39.8224H38.6885V32.6183Z" fill="#6A6E81"/>
<path d="M43.2111 37.888C43.2111 36.3404 44.5452 35.54 47.4535 35.2198C47.4535 34.4594 47.1067 33.819 46.1195 33.819C45.3917 33.8656 44.6905 34.11 44.0916 34.5261L43.4913 33.3521C44.3718 32.7699 45.3978 32.4464 46.453 32.4182C48.2407 32.4182 49.1212 33.5122 49.1212 35.5266V39.7957H47.7871L47.667 39.0086C47.0456 39.6145 46.2256 39.9748 45.359 40.0225C45.0731 40.042 44.7862 40.0003 44.5177 39.9002C44.2491 39.8 44.0051 39.6436 43.8017 39.4416C43.5984 39.2396 43.4406 38.9965 43.3387 38.7285C43.2369 38.4606 43.1934 38.174 43.2111 37.888ZM47.4535 37.888V36.2737C45.4791 36.5139 44.7854 37.0342 44.7854 37.7546C44.7854 38.475 45.2256 38.6751 45.826 38.6751C46.1361 38.6594 46.44 38.5817 46.7195 38.4465C46.9991 38.3113 47.2487 38.1214 47.4535 37.888Z" fill="#6A6E81"/>
<path d="M50.5752 36.2205C50.5752 33.8725 52.056 32.445 53.6303 32.445C53.9823 32.4448 54.331 32.5142 54.6561 32.6493C54.9813 32.7843 55.2764 32.9825 55.5247 33.2322V32.0715V29.4033H57.219V39.7692H55.7515L55.6447 38.9954H55.578C55.0462 39.5639 54.3143 39.9035 53.5369 39.9426C51.7359 40.0227 50.5752 38.6085 50.5752 36.2205ZM55.458 37.7947V34.4328C55.0648 34.0505 54.5388 33.8354 53.9905 33.8325C53.0699 33.8325 52.3229 34.6996 52.3229 36.2072C52.3229 37.7147 52.9098 38.6085 53.9504 38.6085C54.2473 38.5978 54.5378 38.5187 54.7992 38.3776C55.0606 38.2365 55.286 38.037 55.458 37.7947Z" fill="#6A6E81"/>
<path d="M58.9799 30.3905C58.9693 30.188 59.0195 29.987 59.1242 29.8134C59.229 29.6398 59.3833 29.5016 59.5674 29.4166C59.7515 29.3316 59.9568 29.3038 60.1569 29.3367C60.3569 29.3696 60.5425 29.4617 60.6897 29.6011C60.8369 29.7405 60.9389 29.9209 60.9826 30.1189C61.0262 30.3169 61.0095 30.5234 60.9346 30.7118C60.8596 30.9002 60.73 31.0618 60.5623 31.1758C60.3946 31.2897 60.1966 31.3508 59.9938 31.3511C59.8624 31.3624 59.73 31.3458 59.6054 31.3023C59.4808 31.2588 59.3668 31.1894 59.271 31.0986C59.1752 31.0079 59.0998 30.8978 59.0496 30.7758C58.9994 30.6537 58.9757 30.5224 58.9799 30.3905ZM59.14 32.6184H60.8343V39.8225H59.14V32.6184Z" fill="#6A6E81"/>
<path d="M62.8489 32.6185H64.183L64.303 33.579C64.6012 33.2422 64.9637 32.9684 65.3692 32.7736C65.7747 32.5789 66.2151 32.4672 66.6644 32.4451C68.2119 32.4451 68.8923 33.4857 68.8923 35.3V39.8226H67.3047V35.5268C67.3047 34.3261 66.9712 33.8859 66.1708 33.8859C65.849 33.9139 65.5367 34.0091 65.254 34.1653C64.9714 34.3216 64.7246 34.5355 64.5298 34.7931V39.8226H62.8489V32.6185Z" fill="#6A6E81"/>
<path d="M70.4265 41.13C70.4492 40.8052 70.5557 40.4918 70.7358 40.2206C70.9159 39.9493 71.1633 39.7294 71.4538 39.5824C71.2491 39.4582 71.0817 39.2811 70.969 39.0699C70.8563 38.8586 70.8026 38.6209 70.8134 38.3817C70.8342 38.1141 70.916 37.8547 71.0524 37.6235C71.1888 37.3923 71.3763 37.1953 71.6005 37.0477V36.9809C71.3105 36.7545 71.0757 36.4651 70.9139 36.1346C70.7521 35.8041 70.6676 35.4412 70.6667 35.0732C70.6784 34.7157 70.7619 34.3641 70.9123 34.0395C71.0626 33.7149 71.2767 33.4238 71.5418 33.1836C71.8069 32.9434 72.1176 32.759 72.4554 32.6413C72.7932 32.5235 73.1513 32.475 73.5083 32.4984C73.8713 32.495 74.2322 32.5537 74.5755 32.6718H77.1503V33.9125H75.8162C76.093 34.2609 76.2393 34.6951 76.2298 35.1399C76.2313 35.4805 76.1615 35.8177 76.0248 36.1297C75.8882 36.4417 75.6878 36.7217 75.4365 36.9516C75.1852 37.1816 74.8886 37.3564 74.5657 37.4648C74.2428 37.5733 73.9008 37.6129 73.5616 37.5813C73.228 37.5827 72.8972 37.5193 72.5877 37.3945C72.4743 37.4706 72.3818 37.5741 72.3189 37.6953C72.2559 37.8165 72.2245 37.9517 72.2275 38.0882C72.2275 38.5018 72.521 38.7419 73.4015 38.7419H74.7356C76.4699 38.7419 77.4038 39.2756 77.4038 40.5163C77.4038 41.757 75.7762 43.011 73.3749 43.011C71.7072 43.011 70.4265 42.384 70.4265 41.13ZM75.6428 40.7431C75.6428 40.1828 75.1892 40.0227 74.3087 40.0227H73.3749C73.0477 40.0299 72.7208 39.9986 72.401 39.9293C72.2388 40.0311 72.1034 40.1701 72.0059 40.3349C71.9084 40.4997 71.8518 40.6854 71.8406 40.8765C71.8406 41.5302 72.5477 41.9037 73.695 41.9037C74.8424 41.9037 75.6428 41.3568 75.6428 40.7431ZM74.7089 35.0198C74.685 34.7591 74.5848 34.5112 74.4209 34.307C74.2571 34.1028 74.0367 33.9513 73.7874 33.8715C73.5381 33.7916 73.2707 33.7869 73.0187 33.8579C72.7667 33.9289 72.5412 34.0724 72.3702 34.2707C72.1992 34.469 72.0903 34.7132 72.0571 34.9729C72.0239 35.2326 72.0679 35.4964 72.1836 35.7313C72.2992 35.9661 72.4814 36.1618 72.7075 36.2939C72.9335 36.426 73.1935 36.4886 73.4549 36.474C73.6338 36.464 73.8089 36.418 73.9697 36.3389C74.1305 36.2597 74.2737 36.149 74.3907 36.0132C74.5078 35.8775 74.5963 35.7196 74.651 35.5489C74.7056 35.3783 74.7253 35.1983 74.7089 35.0198Z" fill="#6A6E81"/>
<path d="M81.3794 30.217H84.3944C86.529 30.217 88.1165 30.9508 88.1165 33.1921C88.1165 35.4333 86.529 36.3005 84.4611 36.3005H83.1271V39.8225H81.3794V30.217ZM84.3277 34.9397C85.7419 34.9397 86.4356 34.3661 86.4356 33.1921C86.4356 32.0181 85.6885 31.5912 84.261 31.5912H83.0737V34.9397H84.3277Z" fill="#6A6E81"/>
<path d="M89.584 37.968V29.4565H91.2649V38.0614C91.2649 38.475 91.465 38.6217 91.6385 38.6217C91.7271 38.632 91.8166 38.632 91.9053 38.6217L92.1188 39.8758C91.8344 39.9869 91.5298 40.0369 91.2249 40.0225C90.0242 40.0225 89.584 39.2221 89.584 37.968Z" fill="#6A6E81"/>
<path d="M93.026 37.888C93.026 36.3404 94.3601 35.54 97.2684 35.2198C97.2684 34.4594 96.9349 33.819 95.9343 33.819C95.2074 33.8695 94.5072 34.1136 93.9065 34.5261L93.3062 33.3521C94.1885 32.7738 95.2134 32.4506 96.2679 32.4182C98.0689 32.4182 98.936 33.5122 98.936 35.5266V39.7957H97.5619L97.3885 39.0353C96.783 39.6092 95.9935 39.9496 95.1606 39.9958C94.878 40.013 94.5951 39.9705 94.3301 39.871C94.0651 39.7715 93.8241 39.6173 93.6227 39.4185C93.4213 39.2196 93.2641 38.9805 93.1613 38.7168C93.0585 38.4531 93.0124 38.1707 93.026 37.888ZM97.2684 37.888V36.2737C95.3073 36.5139 94.6002 37.0342 94.6002 37.7546C94.6002 38.475 95.0405 38.6751 95.6542 38.6751C95.9626 38.6607 96.2649 38.5835 96.5425 38.4481C96.8201 38.3128 97.0671 38.1222 97.2684 37.888Z" fill="#6A6E81"/>
<path d="M100.857 37.3543V33.9524H99.8298V32.685L100.937 32.6183L101.151 30.6838H102.551V32.6583H104.392V33.9924H102.551V37.3543C102.551 38.2081 102.872 38.6217 103.565 38.6217C103.822 38.6125 104.075 38.5583 104.312 38.4616L104.606 39.7023C104.135 39.8709 103.639 39.961 103.138 39.9691C101.471 40.0225 100.857 38.9418 100.857 37.3543Z" fill="#6A6E81"/>
<path d="M106.047 33.9525H105.073V32.6851L106.047 32.6184V31.8714C106.047 30.3638 106.74 29.2832 108.435 29.2832C108.891 29.2817 109.344 29.3678 109.769 29.5367L109.449 30.7907C109.199 30.6853 108.932 30.6265 108.661 30.6173C108.074 30.6173 107.741 31.0042 107.741 31.8313V32.6184H109.155V33.9525H107.728V39.8225H106.047V33.9525Z" fill="#6A6E81"/>
<path d="M109.635 36.2203C109.593 35.7446 109.651 35.2654 109.804 34.8131C109.957 34.3609 110.203 33.9454 110.525 33.5932C110.848 33.241 111.24 32.9598 111.677 32.7674C112.114 32.5749 112.586 32.4756 113.064 32.4756C113.542 32.4756 114.014 32.5749 114.451 32.7674C114.888 32.9598 115.28 33.241 115.603 33.5932C115.925 33.9454 116.171 34.3609 116.324 34.8131C116.477 35.2654 116.535 35.7446 116.493 36.2203C116.535 36.696 116.477 37.1752 116.324 37.6274C116.171 38.0797 115.925 38.4952 115.603 38.8474C115.28 39.1996 114.888 39.4808 114.451 39.6732C114.014 39.8656 113.542 39.965 113.064 39.965C112.586 39.965 112.114 39.8656 111.677 39.6732C111.24 39.4808 110.848 39.1996 110.525 38.8474C110.203 38.4952 109.957 38.0797 109.804 37.6274C109.651 37.1752 109.593 36.696 109.635 36.2203ZM114.758 36.2203C114.758 34.7661 114.118 33.8189 113.064 33.8189C112.01 33.8189 111.37 34.7661 111.37 36.2203C111.37 37.6744 112.063 38.6883 113.064 38.6883C114.065 38.6883 114.732 37.6611 114.732 36.2203H114.758Z" fill="#6A6E81"/>
<path d="M118.027 32.6183H119.361L119.481 33.8857C119.661 33.4848 119.946 33.1396 120.305 32.8862C120.664 32.6327 121.084 32.4803 121.522 32.4449C121.806 32.4279 122.089 32.4782 122.349 32.5916L122.056 34.0591C121.816 33.976 121.563 33.9354 121.309 33.939C120.735 33.939 119.975 34.3259 119.601 35.4199V39.8224H118.027V32.6183Z" fill="#6A6E81"/>
<path d="M123.35 32.6185H124.684L124.804 33.5924C125.069 33.2565 125.402 32.9806 125.782 32.7828C126.161 32.5851 126.578 32.4699 127.005 32.4451C127.438 32.4144 127.868 32.529 128.228 32.7707C128.588 33.0123 128.857 33.3672 128.993 33.7791C129.264 33.4061 129.611 33.0945 130.011 32.8646C130.411 32.6347 130.855 32.4918 131.314 32.4451C132.835 32.4451 133.542 33.4856 133.542 35.3V39.8226H131.968V35.5268C131.968 34.3261 131.608 33.8859 130.861 33.8859C130.561 33.9261 130.272 34.0273 130.013 34.1833C129.754 34.3394 129.529 34.5469 129.353 34.7931V39.8226H127.659V35.5268C127.659 34.3261 127.312 33.8859 126.552 33.8859C126.25 33.9273 125.96 34.029 125.699 34.1849C125.438 34.3407 125.211 34.5476 125.031 34.7931V39.8226H123.35V32.6185Z" fill="#6A6E81"/>
<path d="M61.5547 46.7729H63.3023L66.304 52.1093L67.2779 54.1505C67.1979 53.1632 67.0511 51.9492 67.0511 50.8819V46.7729H68.6787V56.3784H66.9978L64.0094 51.042L63.0222 49.0009C63.0222 50.0148 63.2356 51.1754 63.2356 52.2427V56.4451H61.5547V46.7729Z" fill="#6A6E81"/>
<path d="M70.7065 46.9331C70.7065 46.6642 70.8134 46.4063 71.0035 46.2162C71.1937 46.026 71.4515 45.9192 71.7204 45.9192C71.9893 45.9192 72.2472 46.026 72.4374 46.2162C72.6275 46.4063 72.7344 46.6642 72.7344 46.9331C72.7344 47.202 72.6275 47.4599 72.4374 47.65C72.2472 47.8402 71.9893 47.947 71.7204 47.947C71.4515 47.947 71.1937 47.8402 71.0035 47.65C70.8134 47.4599 70.7065 47.202 70.7065 46.9331ZM70.8666 49.161H72.5743V56.3784H70.8933L70.8666 49.161Z" fill="#6A6E81"/>
<path d="M74.1086 57.6858C74.1273 57.3599 74.2323 57.0449 74.4128 56.773C74.5933 56.501 74.8429 56.282 75.1359 56.1383C74.9267 56.0146 74.7552 55.8362 74.64 55.6222C74.5248 55.4083 74.4703 55.1669 74.4822 54.9242C74.5045 54.6554 74.5883 54.3953 74.7271 54.164C74.8659 53.9327 75.056 53.7363 75.2826 53.5901C74.9894 53.3657 74.7515 53.0771 74.5873 52.7463C74.4231 52.4156 74.337 52.0516 74.3354 51.6824C74.3453 51.3225 74.428 50.9683 74.5784 50.6412C74.7288 50.3141 74.9438 50.0208 75.2106 49.779C75.4773 49.5372 75.7902 49.3519 76.1305 49.2342C76.4707 49.1165 76.8313 49.0689 77.1904 49.0943C77.5485 49.0975 77.904 49.156 78.2443 49.2677H80.8325V50.5217H79.4984C79.7627 50.8708 79.9035 51.2979 79.8986 51.7358C79.9019 52.0775 79.8335 52.4161 79.6977 52.7297C79.5619 53.0434 79.3618 53.325 79.1103 53.5564C78.8588 53.7877 78.5615 53.9637 78.2377 54.073C77.9138 54.1822 77.5707 54.2222 77.2304 54.1905C76.8925 54.1913 76.5575 54.1279 76.2432 54.0037C76.135 54.0809 76.0469 54.183 75.9865 54.3015C75.9261 54.4199 75.8952 54.5512 75.8963 54.6841C75.8963 55.0977 76.1898 55.3511 77.0703 55.3511H78.3377C80.072 55.3511 81.0059 55.8848 81.0059 57.1255C81.0059 58.3662 79.5117 59.6602 77.1637 59.6602C75.376 59.5535 74.1086 58.9398 74.1086 57.6858ZM79.3116 57.2989C79.3116 56.7386 78.858 56.5785 77.9775 56.5785H76.9903C76.6578 56.5894 76.3255 56.5534 76.0031 56.4718C75.8421 56.578 75.7078 56.7199 75.6106 56.8865C75.5134 57.0531 75.456 57.2399 75.4427 57.4323C75.4427 58.0727 76.1498 58.4596 77.2971 58.4596C78.4444 58.4596 79.3116 57.9126 79.3116 57.3656V57.2989ZM78.4311 51.5757C78.4574 51.3956 78.4447 51.2121 78.3937 51.0374C78.3428 50.8628 78.2549 50.7011 78.1359 50.5635C78.0169 50.4258 77.8697 50.3154 77.7042 50.2397C77.5388 50.164 77.359 50.1249 77.177 50.1249C76.9951 50.1249 76.8153 50.164 76.6499 50.2397C76.4844 50.3154 76.3372 50.4258 76.2182 50.5635C76.0992 50.7011 76.0113 50.8628 75.9604 51.0374C75.9094 51.2121 75.8967 51.3956 75.923 51.5757C75.8499 51.7772 75.8264 51.9933 75.8545 52.2059C75.8826 52.4184 75.9615 52.621 76.0846 52.7965C76.2076 52.9721 76.3711 53.1154 76.5613 53.2143C76.7515 53.3133 76.9627 53.3649 77.177 53.3649C77.3914 53.3649 77.6026 53.3133 77.7928 53.2143C77.983 53.1154 78.1465 52.9721 78.2695 52.7965C78.3926 52.621 78.4715 52.4184 78.4996 52.2059C78.5277 51.9933 78.5042 51.7772 78.4311 51.5757Z" fill="#6A6E81"/>
<path d="M81.3794 52.7764C81.3413 52.3079 81.3977 51.8366 81.5452 51.3904C81.6928 50.9442 81.9284 50.5321 82.2383 50.1787C82.5481 49.8253 82.9258 49.5378 83.3489 49.3332C83.772 49.1285 84.2319 49.011 84.7013 48.9875C86.6491 48.9875 87.6763 50.4017 87.6763 52.4162C87.7026 52.6868 87.7026 52.9593 87.6763 53.2299H83.007C83.0244 53.7796 83.2587 54.3001 83.6587 54.6775C84.0587 55.055 84.5918 55.2588 85.1415 55.2444C85.7389 55.2412 86.3209 55.055 86.8092 54.7108L87.3828 55.7781C86.6575 56.2697 85.8043 56.5386 84.9281 56.5518C84.4395 56.5629 83.954 56.4711 83.5032 56.2822C83.0525 56.0933 82.6465 55.8116 82.3118 55.4555C81.977 55.0994 81.721 54.6768 81.5604 54.2152C81.3998 53.7536 81.3381 53.2634 81.3794 52.7764ZM86.1955 52.0293C86.1955 50.922 85.7152 50.2416 84.728 50.2416C84.2654 50.262 83.828 50.4585 83.5056 50.7908C83.1832 51.1232 83 51.5662 82.9937 52.0293H86.1955Z" fill="#6A6E81"/>
<path d="M89.1304 49.1609H90.4645L90.5845 50.495C90.7628 50.0916 91.0464 49.7437 91.4056 49.4878C91.7647 49.232 92.1862 49.0776 92.6257 49.0409C92.9044 49.0306 93.182 49.0806 93.4395 49.1876L93.146 50.6551C92.9037 50.5823 92.6519 50.5463 92.3989 50.5484C91.8252 50.5484 91.1448 50.9353 90.7046 52.0292V56.4317H89.1304V49.1609Z" fill="#6A6E81"/>
<path d="M94.2932 46.9331C94.2932 46.6642 94.4 46.4063 94.5902 46.2162C94.7803 46.026 95.0382 45.9192 95.3071 45.9192C95.576 45.9192 95.8339 46.026 96.0241 46.2162C96.2142 46.4063 96.321 46.6642 96.321 46.9331C96.321 47.202 96.2142 47.4599 96.0241 47.65C95.8339 47.8402 95.576 47.947 95.3071 47.947C95.0382 47.947 94.7803 47.8402 94.5902 47.65C94.4 47.4599 94.2932 47.202 94.2932 46.9331ZM94.4533 49.161H96.1476V56.3784H94.4533V49.161Z" fill="#6A6E81"/>
<path d="M97.7753 54.4308C97.7753 52.8966 99.1094 52.0828 102.018 51.7626C102.018 51.0022 101.684 50.4286 100.684 50.4286C99.9591 50.4806 99.2604 50.7197 98.6558 51.1223L98.0421 50.0016C98.9186 49.4095 99.9463 49.0808 101.004 49.0544C102.791 49.0544 103.672 50.1617 103.672 52.1762V56.4453H102.338L102.218 55.6448C101.614 56.2227 100.824 56.5677 99.9899 56.6187C99.6938 56.6495 99.3945 56.6144 99.1137 56.5157C98.8328 56.417 98.5773 56.2573 98.3655 56.0481C98.1538 55.8389 97.991 55.5854 97.8889 55.3057C97.7869 55.0261 97.7481 54.7273 97.7753 54.4308ZM102.018 54.4308V52.8166C100.057 53.07 99.3495 53.5903 99.3495 54.3107C99.3495 55.0312 99.7898 55.2313 100.39 55.2313C100.702 55.2162 101.007 55.1374 101.287 54.9998C101.567 54.8621 101.816 54.6684 102.018 54.4308Z" fill="#6A6E81"/>
<path d="M10.5925 93.7063H12.0067L12.687 97.7086C12.8205 98.549 12.9539 99.3895 13.0739 100.23C13.234 99.3895 13.4075 98.549 13.5809 97.7086L14.5414 93.7063H15.7555L16.716 97.7086C16.9028 98.5357 17.0762 99.3895 17.2496 100.23C17.3697 99.3895 17.5031 98.549 17.6232 97.7086L18.3036 93.7063H19.6376L18.1301 101.564H16.5292L15.5553 97.3884C15.4219 96.788 15.3019 96.1744 15.2085 95.574C15.1017 96.1744 14.9817 96.788 14.8483 97.3884L13.9011 101.524H12.1534L10.5925 93.7063Z" fill="#6A6E81"/>
<path d="M20.4116 97.6019C20.4116 95.0671 21.8258 93.5996 23.8669 93.5996C25.9081 93.5996 27.3355 95.0938 27.3355 97.6019C27.3355 100.11 25.9214 101.711 23.8669 101.711C21.8124 101.711 20.4116 100.15 20.4116 97.6019ZM25.8947 97.6019C25.8947 95.8542 25.1076 94.7736 23.8669 94.7736C22.6262 94.7736 21.8391 95.8542 21.8391 97.6019C21.8391 99.3495 22.6262 100.497 23.8669 100.497C25.1076 100.497 25.8947 99.3629 25.8947 97.6019Z" fill="#6A6E81"/>
<path d="M28.7896 93.7063H31.4577C33.0853 93.7063 34.3394 94.2933 34.3394 96.041C34.372 96.5362 34.2352 97.0278 33.9516 97.4351C33.668 97.8423 33.2543 98.1411 32.7785 98.2822L34.6862 101.564H33.072L31.391 98.4957H30.177V101.564H28.8429L28.7896 93.7063ZM31.2976 97.3884C32.3649 97.3884 32.9519 96.9348 32.9519 96.0543C32.9519 95.1738 32.3649 94.8403 31.2976 94.8403H30.177V97.3884H31.2976Z" fill="#6A6E81"/>
<path d="M35.7803 93.7063H37.1811V100.377H40.4362V101.551H35.7803V93.7063Z" fill="#6A6E81"/>
<path d="M41.6902 93.7062H43.798C44.32 93.6493 44.8481 93.7117 45.3424 93.8885C45.8368 94.0654 46.2845 94.3522 46.6519 94.7273C47.0193 95.1024 47.2967 95.556 47.4633 96.0539C47.6299 96.5519 47.6812 97.0811 47.6135 97.6018C47.6135 100.27 46.1994 101.604 43.8648 101.604H41.6902V93.7062ZM43.6913 100.443C45.2789 100.443 46.1861 99.5362 46.1861 97.6018C46.1861 95.6673 45.2789 94.8402 43.6913 94.8402H43.091V100.443H43.6913Z" fill="#6A6E81"/>
<path d="M51.3623 93.7063H53.8704C55.498 93.7063 56.6853 94.1999 56.6853 95.6407C56.7077 96.0097 56.6144 96.3764 56.4182 96.6898C56.2221 97.0031 55.933 97.2473 55.5914 97.3884C56.026 97.4571 56.4196 97.685 56.6958 98.0277C56.9719 98.3704 57.1108 98.8034 57.0855 99.2428C57.0855 100.817 55.7514 101.551 54.0705 101.551H51.4023L51.3623 93.7063ZM53.7503 96.9481C54.8443 96.9481 55.3112 96.5212 55.3112 95.8542C55.3112 95.1871 54.7909 94.7869 53.777 94.7869H52.7498V96.9481H53.7503ZM53.9371 100.483C55.0844 100.483 55.7381 100.07 55.7381 99.1494C55.7381 98.2289 55.1111 97.962 53.9371 97.962H52.7498V100.443L53.9371 100.483Z" fill="#6A6E81"/>
<path d="M58.3796 98.1221V93.7063H59.7137V98.2289C59.7137 99.9365 60.3541 100.497 61.3013 100.497C62.2485 100.497 62.9422 99.9365 62.9422 98.2289V93.7063H64.2763V98.1221C64.2763 100.697 63.1423 101.711 61.3146 101.711C59.4869 101.711 58.3796 100.697 58.3796 98.1221Z" fill="#6A6E81"/>
<path d="M65.5037 100.55L66.3175 99.603C66.8633 100.144 67.5909 100.463 68.3586 100.497C69.2525 100.497 69.6927 100.097 69.6927 99.4829C69.6927 98.8692 69.1857 98.6291 68.4787 98.3356L67.3981 97.8686C66.9477 97.7293 66.5523 97.4523 66.2675 97.0766C65.9828 96.7009 65.8229 96.2454 65.8105 95.7741C65.8335 95.4515 65.9217 95.1369 66.07 94.8494C66.2182 94.5619 66.4233 94.3075 66.6728 94.1016C66.9223 93.8958 67.211 93.7428 67.5215 93.6519C67.8319 93.561 68.1576 93.5341 68.4787 93.5729C69.3814 93.5752 70.2476 93.9294 70.8934 94.5601L70.1863 95.4539C69.7324 95.0072 69.1284 94.7456 68.492 94.7202C67.7449 94.7202 67.2513 95.0804 67.2513 95.6541C67.2513 96.2277 67.8517 96.4945 68.5054 96.7613L69.5726 97.2016C70.0306 97.3368 70.4325 97.6163 70.7186 97.9986C71.0047 98.3809 71.1596 98.8453 71.1602 99.3228C71.1602 100.657 70.1063 101.657 68.3319 101.657C67.2803 101.674 66.2643 101.277 65.5037 100.55Z" fill="#6A6E81"/>
<path d="M72.4678 93.7063H73.8019V101.564H72.4678V93.7063Z" fill="#6A6E81"/>
<path d="M75.7361 93.7063H77.1636L79.6183 98.1355L80.4187 99.8031C80.4187 98.9893 80.232 98.0021 80.232 97.1349V93.7063H81.5661V101.564H80.1919L77.7372 97.1482L76.9368 95.4806C76.9368 96.3078 77.1235 97.255 77.1235 98.1488V101.577H75.7894L75.7361 93.7063Z" fill="#6A6E81"/>
<path d="M83.5005 93.7063H88.2232V94.8936H84.8879V96.8948H87.7162V98.0688H84.8879V100.39H88.3432V101.564H83.5005V93.7063Z" fill="#6A6E81"/>
<path d="M89.3037 100.55L90.1175 99.603C90.6633 100.144 91.3909 100.463 92.1587 100.497C93.0392 100.497 93.4927 100.097 93.4927 99.4829C93.4927 98.8692 92.9991 98.6291 92.2787 98.3356L91.1981 97.8686C90.7502 97.727 90.3577 97.449 90.0755 97.0735C89.7933 96.698 89.6354 96.2437 89.6239 95.7741C89.6469 95.4515 89.7351 95.1369 89.8834 94.8494C90.0316 94.5619 90.2367 94.3075 90.4862 94.1016C90.7357 93.8958 91.0244 93.7428 91.3348 93.6519C91.6453 93.561 91.9709 93.5341 92.2921 93.5729C93.1948 93.5752 94.061 93.9294 94.7068 94.5601L93.9997 95.4539C93.5424 95.0042 92.9331 94.7424 92.2921 94.7202C91.545 94.7202 91.0514 95.0804 91.0514 95.6541C91.0514 96.2277 91.6517 96.4945 92.3054 96.7613L93.3727 97.2016C93.8306 97.3368 94.2326 97.6163 94.5187 97.9986C94.8048 98.3809 94.9596 98.8453 94.9602 99.3228C94.9394 99.6661 94.8481 100.001 94.6921 100.308C94.5361 100.615 94.3187 100.886 94.0534 101.105C93.7882 101.324 93.4807 101.486 93.1502 101.581C92.8196 101.676 92.473 101.702 92.132 101.657C91.0803 101.674 90.0644 101.277 89.3037 100.55Z" fill="#6A6E81"/>
<path d="M95.5342 100.55L96.348 99.603C96.8938 100.144 97.6214 100.463 98.3891 100.497C99.283 100.497 99.7232 100.097 99.7232 99.4829C99.7232 98.8692 99.2163 98.6291 98.5092 98.3356L97.4286 97.8686C96.9782 97.7293 96.5828 97.4523 96.298 97.0766C96.0133 96.7009 95.8534 96.2454 95.841 95.7741C95.864 95.4515 95.9523 95.1369 96.1005 94.8494C96.2487 94.5619 96.4538 94.3075 96.7033 94.1016C96.9528 93.8958 97.2416 93.7428 97.552 93.6519C97.8624 93.561 98.1881 93.5341 98.5092 93.5729C99.4119 93.5752 100.278 93.9294 100.924 94.5601L100.217 95.4539C99.7629 95.0072 99.1589 94.7456 98.5225 94.7202C97.7754 94.7202 97.2818 95.0804 97.2818 95.6541C97.2818 96.2277 97.8822 96.4945 98.5359 96.7613L99.6031 97.2016C100.061 97.3368 100.463 97.6163 100.749 97.9986C101.035 98.3809 101.19 98.8453 101.191 99.3228C101.191 100.657 100.137 101.657 98.3624 101.657C97.3108 101.674 96.2948 101.277 95.5342 100.55Z" fill="#6A6E81"/>
<path d="M104.379 97.6019C104.379 95.0671 105.793 93.5996 107.834 93.5996C109.876 93.5996 111.303 95.0938 111.303 97.6019C111.303 100.11 109.889 101.711 107.834 101.711C105.78 101.711 104.379 100.15 104.379 97.6019ZM109.862 97.6019C109.862 95.8542 109.075 94.7736 107.834 94.7736C106.594 94.7736 105.807 95.8542 105.807 97.6019C105.807 99.3495 106.594 100.497 107.834 100.497C109.075 100.497 109.862 99.3629 109.862 97.6019Z" fill="#6A6E81"/>
<path d="M112.717 98.1221V93.7063H114.118V98.2289C114.118 99.9365 114.758 100.497 115.705 100.497C116.653 100.497 117.4 99.9365 117.4 98.2289V93.7063H118.734V98.1221C118.734 100.697 117.6 101.711 115.772 101.711C113.944 101.711 112.717 100.697 112.717 98.1221Z" fill="#6A6E81"/>
<path d="M122.096 94.8936H119.828V93.7063H125.751V94.8936H123.483V101.564H122.149L122.096 94.8936Z" fill="#6A6E81"/>
<path d="M126.939 93.7063H128.273V100.377H131.541V101.551H126.872L126.939 93.7063Z" fill="#6A6E81"/>
<path d="M132.075 97.6019C132.075 95.0671 133.489 93.5996 135.53 93.5996C137.571 93.5996 138.999 95.0938 138.999 97.6019C138.999 100.11 137.584 101.711 135.53 101.711C133.475 101.711 132.075 100.15 132.075 97.6019ZM137.558 97.6019C137.558 95.8542 136.771 94.7736 135.53 94.7736C134.289 94.7736 133.502 95.8542 133.502 97.6019C133.502 99.3495 134.303 100.497 135.53 100.497C136.757 100.497 137.558 99.3629 137.558 97.6019Z" fill="#6A6E81"/>
<path d="M140.079 97.6019C140.079 95.0671 141.493 93.5996 143.535 93.5996C145.576 93.5996 147.003 95.0938 147.003 97.6019C147.003 100.11 145.589 101.711 143.535 101.711C141.48 101.711 140.079 100.15 140.079 97.6019ZM145.562 97.6019C145.562 95.8542 144.775 94.7736 143.535 94.7736C142.294 94.7736 141.507 95.8542 141.507 97.6019C141.507 99.3495 142.294 100.497 143.535 100.497C144.775 100.497 145.536 99.3629 145.536 97.6019H145.562Z" fill="#6A6E81"/>
<path d="M148.43 93.7063H149.765V97.2817L152.566 93.7063H154.114L151.699 96.7747L154.527 101.564H152.993L150.859 97.8687L149.738 99.2027V101.497H148.404L148.43 93.7063Z" fill="#6A6E81"/>
</g>
<defs>
<clipPath id="clip0_526_718">
<rect width="165" height="101.711" fill="white"/>
</clipPath>
</defs>
</svg>
