<svg width="103" height="102" viewBox="0 0 103 102" fill="none" xmlns="http://www.w3.org/2000/svg">
<path d="M50.7167 100.449C78.1805 100.999 100.889 79.1801 101.439 51.7164C101.988 24.2527 80.1697 1.54373 52.706 0.994488C25.2423 0.445247 2.53321 22.2637 1.98391 49.7274C1.4346 77.1912 23.253 99.9001 50.7167 100.449Z" fill="white" fill-opacity="0.05"/>
<path d="M51.9632 89.5122C44.2918 89.5122 36.7926 87.2373 30.4141 82.9753C24.0355 78.7133 19.0641 72.6557 16.1283 65.5683C13.1926 58.4808 12.4245 50.6819 13.9211 43.1579C15.4177 35.6339 19.1118 28.7225 24.5364 23.298C29.9609 17.8735 36.8721 14.1794 44.3961 12.6828C51.9202 11.1862 59.719 11.9542 66.8065 14.89C73.894 17.8257 79.9518 22.7974 84.2138 29.1759C88.4758 35.5545 90.7506 43.0534 90.7506 50.7248C90.739 61.0083 86.6488 70.8675 79.3773 78.139C72.1057 85.4106 62.2467 89.5006 51.9632 89.5122ZM51.9632 14.8832C44.8744 14.8832 37.9448 16.9855 32.0507 20.9238C26.1566 24.8621 21.5626 30.4598 18.8499 37.009C16.1371 43.5582 15.4274 50.7647 16.8104 57.7172C18.1933 64.6698 21.6069 71.0563 26.6194 76.0688C31.632 81.0813 38.0183 84.4949 44.9709 85.8778C51.9234 87.2608 59.13 86.551 65.6791 83.8382C72.2283 81.1255 77.826 76.5318 81.7643 70.6376C85.7026 64.7435 87.8047 57.8136 87.8047 50.7248C87.7957 41.2212 84.017 32.1097 77.2975 25.3891C70.578 18.6685 61.4668 14.8879 51.9632 14.8773V14.8832Z" fill="#EFEFEF" fill-opacity="0.2"/>
<path d="M91.0006 50.7251V50.7248C91.0006 43.0039 88.7111 35.4567 84.4217 29.037C80.1322 22.6174 74.0353 17.6137 66.9022 14.659C59.769 11.7043 51.9199 10.9314 44.3474 12.4376C36.7749 13.9439 29.8191 17.6617 24.3596 23.1212C18.9001 28.5807 15.1821 35.5366 13.6759 43.1091C12.1696 50.6816 12.9427 58.5308 15.8974 65.6639C18.852 72.7971 23.8555 78.8937 30.2752 83.1832C36.6948 87.4726 44.2423 89.7622 51.9632 89.7622H51.9635C62.3132 89.7506 72.2357 85.6341 79.554 78.3158C86.8724 70.9974 90.9889 61.0748 91.0006 50.7251ZM51.9632 15.1332H52.2132V15.1285C61.5601 15.2044 70.507 18.9511 77.1207 25.5658C83.7933 32.2396 87.5458 41.2877 87.5547 50.725C87.5547 57.7643 85.4673 64.6458 81.5564 70.4988C77.6456 76.3518 72.087 80.9134 65.5835 83.6073C59.08 86.3011 51.9237 87.006 45.0196 85.6327C38.1156 84.2593 31.7738 80.8696 26.7962 75.892C21.8186 70.9145 18.4289 64.5726 17.0556 57.6685C15.6823 50.7644 16.387 43.6081 19.0808 37.1046C21.7747 30.6011 26.3366 25.0425 32.1896 21.1317C38.0426 17.2208 44.9238 15.1332 51.9632 15.1332Z" stroke="#EFEFEF" stroke-opacity="0.2" stroke-width="0.5"/>
<path d="M89.3015 51.72C88.9157 51.72 88.5455 51.5668 88.2725 51.2942C87.9995 51.0215 87.8459 50.6519 87.8454 50.2661C87.8317 40.8801 84.0971 31.8825 77.4602 25.2455C70.8232 18.6086 61.8255 14.8737 52.4395 14.8601C52.2439 14.8673 52.0488 14.8352 51.866 14.7654C51.6831 14.6955 51.5163 14.5894 51.3754 14.4536C51.2344 14.3178 51.1223 14.1549 51.0458 13.9748C50.9692 13.7946 50.9297 13.6009 50.9297 13.4051C50.9297 13.2094 50.9692 13.0156 51.0458 12.8355C51.1223 12.6554 51.2344 12.4925 51.3754 12.3567C51.5163 12.2209 51.6831 12.1148 51.866 12.0449C52.0488 11.9751 52.2439 11.943 52.4395 11.9502C62.6006 11.9618 72.3422 16.0034 79.5272 23.1884C86.7122 30.3734 90.7538 40.1152 90.7654 50.2763C90.7623 50.6618 90.6065 51.0302 90.332 51.3009C90.0576 51.5717 89.687 51.7222 89.3015 51.72Z" fill="#FF5A24" stroke="#FF4521" stroke-width="1.06783"/>
<path d="M45.9877 62.8887V60.3472H51.4443V42.7814H47.1089V40.8006C48.2052 40.6012 49.1521 40.3645 49.9494 40.0905C50.7716 39.7915 51.5066 39.4427 52.1544 39.044H54.509V60.3472H59.4424V62.8887H45.9877Z" fill="white"/>
</svg>
