<svg width="102" height="102" viewBox="0 0 102 102" fill="none" xmlns="http://www.w3.org/2000/svg">
<path d="M50.2832 100.449C77.7469 100.999 100.456 79.1801 101.005 51.7164C101.555 24.2527 79.7361 1.54373 52.2724 0.994489C24.8087 0.445248 2.09962 22.2637 1.55031 49.7274C1.00101 77.1912 22.8194 99.9001 50.2832 100.449Z" fill="white" fill-opacity="0.05"/>
<path d="M51.5375 89.5142C43.8661 89.5142 36.3669 87.2393 29.9884 82.9772C23.6098 78.7152 18.6384 72.6577 15.7027 65.5702C12.7669 58.4827 11.9986 50.6839 13.4953 43.1598C14.9919 35.6358 18.6862 28.7245 24.1107 23.2999C29.5352 17.8754 36.4463 14.1814 43.9703 12.6848C51.4944 11.1882 59.2932 11.9562 66.3807 14.8919C73.4682 17.8277 79.526 22.7993 83.788 29.1779C88.05 35.5564 90.3249 43.0553 90.3249 50.7268C90.3133 61.0103 86.223 70.8694 78.9515 78.141C71.6799 85.4125 61.821 89.5026 51.5375 89.5142ZM51.5375 14.8851C44.4487 14.8851 37.519 16.9874 31.6249 20.9257C25.7308 24.8641 21.1371 30.4617 18.4243 37.0109C15.7115 43.5601 15.0017 50.7666 16.3847 57.7192C17.7677 64.6718 21.1812 71.0582 26.1937 76.0708C31.2063 81.0833 37.5925 84.4968 44.5451 85.8798C51.4976 87.2627 58.7044 86.553 65.2536 83.8402C71.8028 81.1274 77.4004 76.5337 81.3388 70.6396C85.2771 64.7455 87.3791 57.8156 87.3791 50.7268C87.3697 41.2234 83.5907 32.112 76.8713 25.3915C70.1519 18.671 61.0409 14.8904 51.5375 14.8793V14.8851Z" fill="#FF5A24" stroke="#FF4521" stroke-width="1.06783"/>
<path d="M53.9633 62.8887V56.3108H43.2369V54.2926L53.4401 39.044H56.8785V53.8441H60.13V56.3108H56.8785V62.8887H53.9633ZM46.4885 53.8441H53.9633V46.9299C53.9633 46.2821 53.9757 45.5222 54.0007 44.6501C54.0505 43.7531 54.1003 42.9807 54.1502 42.3329H54.0007C53.7017 42.906 53.3902 43.4666 53.0663 44.0148C52.7424 44.5629 52.406 45.1235 52.0572 45.6966L46.4885 53.8441Z" fill="white"/>
</svg>
