<svg width="103" height="102" viewBox="0 0 103 102" fill="none" xmlns="http://www.w3.org/2000/svg">
<path d="M50.4277 100.449C77.8914 100.999 100.6 79.1801 101.15 51.7164C101.699 24.2527 79.8806 1.54373 52.4169 0.994489C24.9532 0.445248 2.24415 22.2637 1.69484 49.7274C1.14554 77.1912 22.964 99.9001 50.4277 100.449Z" fill="white" fill-opacity="0.05"/>
<path d="M51.6741 89.5142C44.0027 89.5142 36.5035 87.2393 30.125 82.9772C23.7464 78.7152 18.775 72.6577 15.8393 65.5702C12.9036 58.4827 12.1354 50.6839 13.632 43.1598C15.1286 35.6358 18.8228 28.7245 24.2473 23.2999C29.6718 17.8754 36.5831 14.1814 44.1071 12.6848C51.6311 11.1882 59.43 11.9562 66.5174 14.8919C73.6049 17.8277 79.6627 22.7993 83.9247 29.1779C88.1867 35.5564 90.4615 43.0553 90.4615 50.7268C90.4499 61.0103 86.3597 70.8694 79.0882 78.141C71.8167 85.4125 61.9576 89.5026 51.6741 89.5142ZM51.6741 14.8851C44.5853 14.8851 37.6558 16.9874 31.7617 20.9257C25.8675 24.8641 21.2736 30.4617 18.5608 37.0109C15.848 43.5601 15.1384 50.7666 16.5213 57.7192C17.9043 64.6718 21.3178 71.0582 26.3304 76.0708C31.3429 81.0833 37.7292 84.4968 44.6818 85.8798C51.6344 87.2627 58.8409 86.553 65.3901 83.8402C71.9393 81.1274 77.5369 76.5337 81.4753 70.6396C85.4136 64.7455 87.5156 57.8156 87.5156 50.7268C87.5067 41.2232 83.7279 32.1116 77.0084 25.391C70.2889 18.6704 61.1777 14.8898 51.6741 14.8793V14.8851Z" fill="#EFEFEF" fill-opacity="0.2"/>
<path d="M90.7115 50.727V50.7268C90.7115 43.0059 88.4221 35.4587 84.1326 29.039C79.8431 22.6193 73.7463 17.6156 66.6131 14.661C59.48 11.7063 51.6308 10.9333 44.0583 12.4396C36.4858 13.9459 29.53 17.6637 24.0705 23.1232C18.611 28.5826 14.8931 35.5386 13.3868 43.1111C11.8806 50.6836 12.6537 58.5327 15.6083 65.6659C18.563 72.799 23.5664 78.8956 29.9861 83.1851C36.4058 87.4746 43.9532 89.7642 51.6741 89.7642H51.6744C62.0241 89.7525 71.9466 85.6361 79.265 78.3177C86.5833 70.9994 90.6999 61.0768 90.7115 50.727ZM51.6741 15.1351H51.9241V15.1305C61.271 15.2064 70.218 18.953 76.8316 25.5678C83.5043 32.2416 87.2567 41.2896 87.2656 50.727C87.2656 57.7663 85.1782 64.6478 81.2674 70.5007C77.3565 76.3537 71.7979 80.9154 65.2944 83.6092C58.7909 86.3031 51.6347 87.0079 44.7306 85.6346C37.8265 84.2613 31.4847 80.8716 26.5071 75.894C21.5296 70.9164 18.1398 64.5745 16.7665 57.6704C15.3932 50.7663 16.0979 43.6101 18.7918 37.1066C21.4856 30.6031 26.0475 25.0445 31.9005 21.1336C37.7536 17.2228 44.6348 15.1351 51.6741 15.1351Z" stroke="#EFEFEF" stroke-opacity="0.2" stroke-width="0.5"/>
<path d="M51.7674 89.6793C41.4612 89.6678 31.5806 85.5685 24.293 78.2809C17.0054 70.9933 12.9061 61.1127 12.8945 50.8065C12.8945 50.6126 12.9328 50.4208 13.007 50.2417C13.0811 50.0626 13.1897 49.8999 13.3267 49.7629C13.4638 49.6258 13.6265 49.517 13.8056 49.4428C13.9846 49.3687 14.1765 49.3307 14.3703 49.3307C14.5641 49.3307 14.7563 49.3687 14.9353 49.4428C15.1144 49.517 15.2771 49.6258 15.4142 49.7629C15.5512 49.8999 15.6598 50.0626 15.7339 50.2417C15.8081 50.4208 15.8464 50.6126 15.8464 50.8065C15.8464 57.911 17.953 64.8558 21.9001 70.763C25.8472 76.6702 31.4572 81.2744 38.021 83.9932C44.5847 86.712 51.8074 87.4232 58.7754 86.0372C65.7434 84.6512 72.1438 81.23 77.1675 76.2063C82.1912 71.1827 85.6124 64.7825 86.9984 57.8144C88.3844 50.8464 87.673 43.6238 84.9542 37.06C82.2354 30.4963 77.6314 24.8865 71.7242 20.9394C65.817 16.9923 58.8719 14.8852 51.7674 14.8852C51.3757 14.8852 51.0001 14.73 50.7231 14.453C50.4461 14.176 50.2906 13.8001 50.2906 13.4084C50.2906 13.0167 50.4461 12.6413 50.7231 12.3643C51.0001 12.0874 51.3757 11.9316 51.7674 11.9316C62.0774 11.9316 71.9651 16.0272 79.2554 23.3175C86.5457 30.6078 90.6415 40.4955 90.6415 50.8055C90.6415 61.1155 86.5457 71.0032 79.2554 78.2935C71.9651 85.5838 62.0774 89.6793 51.7674 89.6793Z" fill="#FF5A24" stroke="#FF4521" stroke-width="1.06783"/>
<path d="M51.5664 63.3372C50.6196 63.3372 49.7475 63.2375 48.9502 63.0382C48.1778 62.8638 47.4677 62.6271 46.8199 62.3281C46.1721 62.0042 45.5865 61.6429 45.0633 61.2442C44.565 60.8456 44.1165 60.422 43.7178 59.9735L45.2875 57.9553C46.0101 58.7028 46.8448 59.363 47.7916 59.9361C48.7633 60.5092 49.9593 60.7957 51.3795 60.7957C52.8246 60.7957 54.0082 60.4095 54.9301 59.6371C55.8519 58.8398 56.3129 57.7684 56.3129 56.423C56.3129 55.7253 56.1759 55.0899 55.9018 54.5169C55.6526 53.9189 55.229 53.4081 54.6311 52.9845C54.0331 52.561 53.2482 52.2371 52.2765 52.0128C51.3048 51.7886 50.1088 51.6764 48.6886 51.6764V49.3219C49.9593 49.3219 51.0182 49.2098 51.8654 48.9855C52.7374 48.7613 53.4351 48.4498 53.9583 48.0512C54.5065 47.6525 54.8927 47.1791 55.1169 46.6309C55.3412 46.0828 55.4533 45.4973 55.4533 44.8744C55.4533 43.7033 55.0795 42.7814 54.3321 42.1087C53.6095 41.4359 52.6129 41.0996 51.3421 41.0996C50.3455 41.0996 49.4236 41.3238 48.5765 41.7723C47.7542 42.2208 46.9818 42.8063 46.2593 43.5289L44.6148 41.5854C45.5367 40.7134 46.5458 40.0033 47.6421 39.4551C48.7633 38.882 50.034 38.5955 51.4543 38.5955C52.5007 38.5955 53.46 38.7325 54.3321 39.0066C55.2041 39.2807 55.9516 39.6794 56.5745 40.2026C57.2223 40.7009 57.7207 41.3238 58.0695 42.0713C58.4183 42.8188 58.5927 43.6784 58.5927 44.6501C58.5927 46.0952 58.1941 47.2788 57.3967 48.2007C56.5994 49.1225 55.553 49.8327 54.2573 50.331V50.4805C54.9799 50.6549 55.6526 50.9165 56.2755 51.2653C56.8984 51.5892 57.4466 52.0128 57.92 52.536C58.3934 53.0344 58.7547 53.6199 59.0038 54.2926C59.2779 54.9654 59.4149 55.7128 59.4149 56.5351C59.4149 57.5815 59.2032 58.5284 58.7796 59.3755C58.3809 60.2227 57.8203 60.9452 57.0977 61.5432C56.4001 62.1163 55.5779 62.5648 54.6311 62.8887C53.6842 63.1877 52.6627 63.3372 51.5664 63.3372Z" fill="white"/>
</svg>
