<svg width="103" height="102" viewBox="0 0 103 102" fill="none" xmlns="http://www.w3.org/2000/svg">
<path d="M50.5732 100.449C78.0369 100.999 100.746 79.1801 101.295 51.7164C101.845 24.2527 80.0261 1.54373 52.5624 0.994489C25.0987 0.445248 2.38966 22.2637 1.84035 49.7274C1.29104 77.1912 23.1095 99.9001 50.5732 100.449Z" fill="white" fill-opacity="0.05"/>
<path d="M51.8186 89.5127C44.1472 89.5127 36.6481 87.2378 30.2695 82.9758C23.891 78.7138 18.9195 72.6562 15.9838 65.5687C13.0481 58.4813 12.2799 50.6824 13.7765 43.1584C15.2732 35.6344 18.9673 28.723 24.3918 23.2985C29.8163 17.874 36.7276 14.1799 44.2516 12.6833C51.7756 11.1867 59.5745 11.9547 66.662 14.8905C73.7495 17.8262 79.8072 22.7979 84.0693 29.1764C88.3313 35.555 90.6061 43.0539 90.6061 50.7253C90.5945 61.0088 86.5043 70.868 79.2327 78.1395C71.9612 85.411 62.1022 89.5011 51.8186 89.5127ZM51.8186 14.8837C44.7299 14.8837 37.8003 16.986 31.9062 20.9243C26.0121 24.8626 21.4181 30.4603 18.7053 37.0095C15.9926 43.5586 15.2829 50.7652 16.6659 57.7177C18.0488 64.6703 21.4624 71.0568 26.4749 76.0693C31.4874 81.0818 37.8738 84.4954 44.8263 85.8783C51.7789 87.2613 58.9854 86.5515 65.5346 83.8387C72.0838 81.126 77.6815 76.5322 81.6198 70.6381C85.5581 64.744 87.6602 57.8141 87.6602 50.7253C87.6512 41.2217 83.8724 32.1102 77.1529 25.3896C70.4335 18.6689 61.3222 14.8884 51.8186 14.8778V14.8837Z" fill="#EFEFEF" fill-opacity="0.2"/>
<path d="M90.8561 50.7256V50.7253C90.8561 43.0044 88.5666 35.4572 84.2771 29.0375C79.9876 22.6179 73.8908 17.6141 66.7576 14.6595C59.6245 11.7048 51.7753 10.9319 44.2028 12.4381C36.6303 13.9444 29.6745 17.6622 24.215 23.1217C18.7556 28.5812 15.0376 35.5371 13.5314 43.1096C12.0251 50.6821 12.7982 58.5313 15.7528 65.6644C18.7075 72.7976 23.711 78.8942 30.1306 83.1837C36.5503 87.4731 44.0978 89.7627 51.8186 89.7627H51.8189C62.1686 89.7511 72.0911 85.6346 79.4095 78.3163C86.7279 70.9979 90.8444 61.0753 90.8561 50.7256ZM51.8186 15.1337H52.0686V15.129C61.4156 15.2049 70.3625 18.9516 76.9761 25.5663C83.6488 32.2401 87.4013 41.2882 87.4102 50.7255C87.4101 57.7648 85.3227 64.6463 81.4119 70.4992C77.5011 76.3522 71.9424 80.9139 65.4389 83.6078C58.9354 86.3016 51.7792 87.0064 44.8751 85.6331C37.971 84.2598 31.6292 80.8701 26.6517 75.8925C21.6741 70.915 18.2844 64.5731 16.9111 57.669C15.5378 50.7649 16.2425 43.6086 18.9363 37.1051C21.6302 30.6016 26.1921 25.043 32.0451 21.1321C37.8981 17.2213 44.7793 15.1337 51.8186 15.1337Z" stroke="#EFEFEF" stroke-opacity="0.2" stroke-width="0.5"/>
<path d="M51.8288 89.5128C51.4382 89.5128 51.0637 89.3578 50.7874 89.0816C50.5112 88.8053 50.356 88.4306 50.356 88.0399C50.356 87.6493 50.5112 87.2745 50.7874 86.9983C51.0637 86.722 51.4382 86.567 51.8288 86.567C61.3346 86.567 70.451 82.791 77.1726 76.0694C83.8942 69.3478 87.6705 60.2312 87.6705 50.7254C87.6705 41.2196 83.8942 32.1035 77.1726 25.3819C70.451 18.6603 61.3346 14.8838 51.8288 14.8838C51.4382 14.8838 51.0637 14.7288 50.7874 14.4525C50.5112 14.1763 50.356 13.8015 50.356 13.4109C50.356 13.0202 50.5112 12.6459 50.7874 12.3697C51.0637 12.0935 51.4382 11.938 51.8288 11.938C62.1159 11.938 71.9816 16.0245 79.2557 23.2986C86.5297 30.5726 90.6163 40.4383 90.6163 50.7254C90.6163 61.0125 86.5297 70.8782 79.2557 78.1522C71.9816 85.4263 62.1159 89.5128 51.8288 89.5128Z" fill="#FF5A24" stroke="#FF4521" stroke-width="1.06783"/>
<path d="M44.3863 62.8887V61.0573C46.1803 59.2634 47.7749 57.6438 49.1702 56.1987C50.5655 54.7536 51.7366 53.4206 52.6834 52.1997C53.6302 50.9539 54.3527 49.8202 54.8511 48.7986C55.3494 47.7522 55.5986 46.7431 55.5986 45.7713C55.5986 44.4009 55.2248 43.2797 54.4773 42.4077C53.7298 41.5356 52.5962 41.0996 51.0763 41.0996C50.0796 41.0996 49.1577 41.3861 48.3106 41.9592C47.4635 42.5073 46.6911 43.1801 45.9934 43.9774L44.2368 42.2208C45.2335 41.1245 46.2924 40.2524 47.4136 39.6046C48.5348 38.9319 49.8803 38.5955 51.45 38.5955C53.6676 38.5955 55.4117 39.2433 56.6824 40.539C57.9531 41.8097 58.5885 43.504 58.5885 45.6218C58.5885 46.7431 58.3393 47.8767 57.841 49.0229C57.3676 50.1441 56.6949 51.3152 55.8228 52.536C54.9757 53.732 53.9541 54.9903 52.7581 56.3108C51.5871 57.6065 50.2914 58.9893 48.8712 60.4594C49.519 60.4095 50.1918 60.3597 50.8894 60.3099C51.5871 60.26 52.2473 60.2351 52.8702 60.2351H59.7845V62.8887H44.3863Z" fill="white"/>
</svg>
