<?xml version="1.0" encoding="utf-8"?>
<!-- Generator: Adobe Illustrator 20.1.0, SVG Export Plug-In . SVG Version: 6.00 Build 0)  -->
<svg version="1.1" id="Layer_1" xmlns="http://www.w3.org/2000/svg" xmlns:xlink="http://www.w3.org/1999/xlink" x="0px" y="0px"
	 viewBox="0 0 48 56" style="enable-background:new 0 0 48 56;" xml:space="preserve">
<path d="M35.4,40.8c-0.8,0-1.4,0.7-1.4,1.4c0,0.8,0.6,1.4,1.4,1.4s1.4-0.7,1.4-1.4S36.2,40.8,35.4,40.8z M35.4,45.2
	c-1.6,0-2.8-1.2-2.8-2.8c0-1.6,1.2-2.8,2.8-2.8c1.6,0,2.8,1.2,2.8,2.8C38.2,43.9,37,45.2,35.4,45.2z M42.6,49.4V35.2H5.4v14.2
	C5.4,49.4,42.6,49.4,42.6,49.4z M9.7,6.6L5.5,33.8h37L38.4,6.6H9.7z M39.7,5.2l4.2,28.6H44v17.2H4V33.8h0.1L8.4,5.2H39.7z"/>
</svg>
