<?xml version="1.0" encoding="utf-8"?>
<!-- Generator: Adobe Illustrator 20.1.0, SVG Export Plug-In . SVG Version: 6.00 Build 0)  -->
<svg version="1.1" id="Layer_1" xmlns="http://www.w3.org/2000/svg" xmlns:xlink="http://www.w3.org/1999/xlink" x="0px" y="0px"
	 viewBox="0 0 48 56" style="enable-background:new 0 0 48 56;" xml:space="preserve">
<path d="M23.9,5.4c12.3,0,22.5,10.1,22.5,22.5S36.2,50.4,23.9,50.4S1.4,40.2,1.4,27.9c0-4.7,1.4-9.2,4.1-13l3.4-3.4v6.7h1.5V10
	L9.7,9.2H1.5v1.5h6.2l-3.2,3.2V14C1.5,18.2,0,22.9,0,28c0,13.2,10.8,24,24,24s24-10.8,24-24S37.2,4,24,4v1.4H23.9z M23.1,6.9v2.9
	h1.5V6.9H23.1z M23.1,45.8v2.9h1.5v-2.9H23.1z M41.9,27.1v1.5h2.9v-1.5H41.9z M2.9,27.1v1.5h2.9v-1.5H2.9z M24.7,27.6V12.9h-1.5
	v15.3l6.9,7l1.1-1.1L24.7,27.6z"/>
</svg>
