<?xml version="1.0" encoding="utf-8"?>
<!-- Generator: Adobe Illustrator 20.1.0, SVG Export Plug-In . SVG Version: 6.00 Build 0)  -->
<svg version="1.1" id="Layer_1" xmlns="http://www.w3.org/2000/svg" xmlns:xlink="http://www.w3.org/1999/xlink" x="0px" y="0px"
	 viewBox="0 0 48 56" style="enable-background:new 0 0 48 56;" xml:space="preserve">
<path d="M42.4,48.4l3.5-3.5L32.7,31.6l-3.5,3.5L42.4,48.4z M6.6,46.9l25.8-25.3h3.3c4.1,0,6.4-2.5,6.8-7.4L37,16.7l-3.7-3.9l2.4-5.5
	c-5.1,0.3-7.5,2.4-7.5,6.7v3.3L2.8,43l-1.1,4l0.9,0.8L6.6,46.9z M5,8.1l3.8,6.2l3.1-3.1L5.6,7.4L5,8.1z M30.4,31.8l2.3-2.3L48,44.9
	l-5.6,5.6L27.1,35.1l2.3-2.3l-3.2-3.1L7.4,48.2l-5.2,1.3L0,47.3l1.5-5.1L1.6,42L20,23.5l-9.1-9.2l-2.4,2.4L3.1,7.9l2.4-2.4l8.8,5.3
	l-2.4,2.4l9.1,9.1l5.6-5.6V14c0-3.8,1.8-8.3,10.2-8.3h1.1L35,12.4l2.4,2.4l6.6-3.1v1.2c0,8.4-4.5,10.2-8.3,10.2H33l-5.6,5.6
	L30.4,31.8z"/>
</svg>
