<svg width="106" height="64" viewBox="0 0 106 64" fill="none" xmlns="http://www.w3.org/2000/svg">
<rect width="106" height="64" rx="10" fill="#E58D0C"/>
<path d="M25.6285 32.6839C25.6999 32.8524 25.7128 33.0374 25.6761 33.2553C25.6285 33.5081 25.5186 33.7059 25.3446 33.8597C25.1688 34.0081 24.9783 34.0978 24.7677 34.118C24.5552 34.1381 24.297 34.118 23.9929 34.063L23.4673 33.9605C23.2933 33.9257 23.1889 33.9 23.1504 33.8726C23.1138 33.8469 23.0936 33.8103 23.0845 33.759C23.0808 33.7205 23.0955 33.585 23.1321 33.367L23.4233 31.8102L24.3556 31.9824C24.764 32.0611 25.0607 32.1564 25.2439 32.2663C25.4289 32.3762 25.5553 32.519 25.6285 32.6839ZM25.678 29.4109C25.5131 29.3193 25.1981 29.2314 24.7365 29.1453L23.949 28.9969L23.6193 30.7498L24.4087 30.8981C24.8208 30.9732 25.1322 30.997 25.3428 30.964C25.5534 30.9292 25.7183 30.8541 25.8465 30.7351C25.9692 30.6197 26.0516 30.464 26.0846 30.2809C26.1212 30.0904 26.1029 29.9237 26.0333 29.7699C25.9674 29.6215 25.8501 29.4988 25.678 29.4109ZM32.6635 31.5886C32.6635 36.1931 28.9327 39.9204 24.3299 39.9204C19.7291 39.9204 16 36.1931 16 31.5886C16 26.9841 19.7291 23.2568 24.3299 23.2568C28.9327 23.2568 32.6635 26.9841 32.6635 31.5886ZM27.7605 29.3871C27.6194 29.0794 27.3813 28.8193 27.0535 28.605C26.9289 28.5207 26.7696 28.4475 26.5956 28.3797L26.8319 27.1141L25.6157 26.8852L25.3922 28.0683L24.6102 27.9218L24.8336 26.7386L23.6156 26.5097L23.3922 27.6947L21.5331 27.3467L21.3482 28.3412L21.6321 28.3944C21.8225 28.4273 21.9471 28.4695 22.0057 28.5171C22.068 28.561 22.1046 28.6178 22.1211 28.6819C22.1376 28.746 22.1266 28.8834 22.0863 29.0995L21.3353 33.107C21.2969 33.3158 21.2602 33.4495 21.2199 33.5026C21.1797 33.5557 21.1247 33.596 21.0514 33.6161C20.9782 33.6363 20.8481 33.629 20.6595 33.5887L20.3738 33.541L20.1888 34.5319L22.046 34.8763L21.8262 36.0594L23.0442 36.2884L23.264 35.1052L23.9563 35.2334C23.9874 35.2407 24.0149 35.2426 24.046 35.2499L23.8263 36.4331L25.0424 36.6584L25.2842 35.3781C25.4948 35.3744 25.6835 35.3561 25.8501 35.3287C26.3025 35.2389 26.6725 35.0539 26.9637 34.7737C27.2531 34.499 27.4344 34.1693 27.504 33.7865C27.5645 33.4641 27.5425 33.1601 27.4399 32.878C27.3355 32.5886 27.1689 32.3487 26.9381 32.1546C26.7806 32.019 26.5388 31.8762 26.2201 31.7296C26.5535 31.6802 26.83 31.5941 27.0516 31.4641C27.2751 31.3358 27.4564 31.1747 27.5956 30.9787C27.7366 30.7846 27.8319 30.5666 27.874 30.3303C27.9399 30.019 27.9015 29.6966 27.7605 29.3871ZM43.1547 33.4586C43.1547 36.4715 41.184 39.9149 37.0153 39.9149C34.8175 39.9149 33.7185 38.9625 33.7185 37.3196C33.7185 36.7481 33.8119 36.1822 33.9255 35.6345L35.8028 26.2533H38.5483L37.4512 31.5446H37.4897C38.171 30.7296 39.2132 30.2314 40.3506 30.2314C42.2847 30.2369 43.1547 31.8102 43.1547 33.4586ZM40.292 34.0264C40.292 33.1381 39.9129 32.4348 39.0813 32.4348C38.0941 32.4348 37.1307 33.4403 36.8065 35.0521L36.6362 35.8103C36.5977 36.1144 36.5226 36.4367 36.541 36.836C36.5593 37.4954 36.9567 37.858 37.5831 37.858C39.1583 37.8525 40.292 35.6565 40.292 34.0264ZM43.9002 39.7116H46.6292L48.3912 30.4439H45.6621L43.9002 39.7116ZM47.6146 26.4126C46.7794 26.4126 46.0577 27.039 46.0413 27.9658C46.0413 28.779 46.609 29.2937 47.3655 29.2937C48.2391 29.2937 48.9754 28.724 48.9754 27.7588C48.9773 26.9401 48.4076 26.4126 47.6146 26.4126ZM54.1716 27.8504L51.3858 28.4988L51.0066 30.4457H49.8124L49.4333 32.5117H50.6092L49.8875 36.2078C49.7557 36.9111 49.6989 37.4203 49.6989 37.9313C49.6989 39.087 50.4773 39.9204 52.1056 39.9204C52.6917 39.9204 53.3712 39.8434 53.7155 39.7134L54.0415 37.5705C53.7924 37.6089 53.5305 37.6089 53.2833 37.6089C52.6935 37.6089 52.503 37.2829 52.503 36.8287C52.503 36.5063 52.5781 36.0301 52.655 35.6528L53.2833 32.5062H55.2504L55.6515 30.4402H53.6807L54.1716 27.8504ZM55.7321 36.1144C55.7321 38.5174 57.342 39.9002 59.6314 39.9002C60.734 39.9002 61.681 39.7097 62.2652 39.4259L62.2469 37.3397C61.7707 37.5302 61.2048 37.7188 60.4099 37.7188C59.3842 37.7188 58.5911 37.0723 58.5911 35.803C58.5911 34.063 59.7816 32.411 61.7359 32.411C62.2872 32.411 62.6663 32.5062 62.9887 32.6381L63.6499 30.5538C63.2524 30.3816 62.5693 30.2278 61.7762 30.2278C58.2504 30.2369 55.7321 32.8157 55.7321 36.1144ZM73.2583 34.0466C73.2583 37.4386 70.9487 39.9204 67.7251 39.9204C65.3789 39.9204 63.8019 38.3855 63.8019 36.0906C63.8019 32.8707 66.0364 30.2369 69.3351 30.2369C71.8205 30.2369 73.2583 31.9421 73.2583 34.0466ZM70.4358 34.063C70.4358 33.2114 70.0787 32.3029 68.9779 32.3029C67.4064 32.3029 66.6115 34.596 66.6335 36.0338C66.6335 37.1144 67.1628 37.8342 68.1116 37.8342C69.6061 37.8361 70.4358 35.6565 70.4358 34.063ZM77.7895 26.4126C76.9562 26.4126 76.2345 27.039 76.2199 27.9658C76.2199 28.779 76.7913 29.2937 77.5478 29.2937C78.4233 29.2937 79.1577 28.724 79.1577 27.7588C79.1596 26.9401 78.5881 26.4126 77.7895 26.4126ZM74.0806 39.7116H76.806L78.5716 30.4439H75.8426L74.0806 39.7116ZM86.3026 30.2369C85.07 30.2369 83.9161 30.7681 83.0461 31.9806H83.0077L83.1981 30.4457H80.7768C80.6614 31.2626 80.5094 32.2846 80.2805 33.4605L79.1028 39.7134H81.8318L82.6084 35.5997C82.9875 33.5594 84.0315 32.4348 84.9235 32.4348C85.6066 32.4348 85.8338 32.8908 85.8338 33.5356C85.8338 33.8799 85.7953 34.259 85.7349 34.5777L84.7715 39.7134H87.4986L88.5243 34.3323C88.5994 33.8781 88.6763 33.1784 88.6763 32.7663C88.6727 31.1655 87.8192 30.2369 86.3026 30.2369Z" fill="white"/>
</svg>
