<svg width="106" height="64" viewBox="0 0 106 64" fill="none" xmlns="http://www.w3.org/2000/svg">
<rect width="106" height="64" rx="10" fill="#343535"/>
<g clip-path="url(#clip0)">
<path d="M39.3054 34.0585C39.3054 34.1775 39.2058 34.2745 39.0868 34.2745H34.8766C34.9824 35.3149 35.7645 36.2636 36.8657 36.2636C37.2066 36.2786 37.5455 36.2046 37.8491 36.0489C38.1527 35.8933 38.4106 35.6613 38.5974 35.3757C38.6591 35.2929 38.7499 35.24 38.8654 35.2902C38.8964 35.3037 38.9235 35.3247 38.9443 35.3514C38.9651 35.378 38.9789 35.4094 38.9845 35.4427C38.9959 35.5115 38.9757 35.5503 38.958 35.5891C38.5348 36.328 37.691 36.6912 36.864 36.6912C35.4479 36.6912 34.4393 35.4242 34.4393 34.069C34.4393 32.7139 35.4488 31.4468 36.864 31.4468C38.2791 31.4468 39.3037 32.7077 39.3063 34.0611L39.3054 34.0585ZM38.8654 33.8566C38.7737 32.8161 37.9776 31.8674 36.8763 31.8674C35.7751 31.8674 34.9921 32.8161 34.8872 33.8566H38.8654ZM44.4255 31.5491C44.5472 31.5491 44.6353 31.6549 44.6353 31.759C44.6353 31.8806 44.5436 31.9688 44.4255 31.9688H43.2969V36.3976C43.2969 36.5034 43.2052 36.6075 43.0871 36.6075C42.9689 36.6075 42.8772 36.5017 42.8772 36.3976V31.9688H41.7927C41.671 31.9688 41.5829 31.8771 41.5829 31.759C41.5829 31.6532 41.6746 31.5491 41.7927 31.5491H42.8772V29.925C42.8772 29.8227 42.946 29.7284 43.0536 29.7116C43.1946 29.6896 43.3048 29.7866 43.3048 29.9188V31.5456L44.4255 31.5491ZM51.3028 33.6899V36.3729C51.3028 36.4946 51.197 36.5828 51.093 36.5828C50.9713 36.5828 50.8831 36.4911 50.8831 36.3729V33.6987C50.8831 32.7941 50.3717 31.8895 49.3613 31.8895C48.0669 31.8895 47.5079 33.0207 47.5829 34.1801C47.5829 34.211 47.597 34.3459 47.597 34.36V36.3738C47.597 36.4761 47.5282 36.5704 47.4207 36.5872C47.2796 36.6092 47.1694 36.5123 47.1694 36.38V27.5673C47.1694 27.4615 47.2611 27.3575 47.3792 27.3575C47.4974 27.3575 47.5891 27.4633 47.5891 27.5673V32.5552C47.9417 31.908 48.5986 31.4707 49.3507 31.4707C50.5869 31.4707 51.2958 32.5552 51.2958 33.7014L51.3028 33.6899ZM58.8449 34.0717C58.8449 34.1907 58.7453 34.2877 58.6263 34.2877H54.4135C54.5193 35.3281 55.3014 36.2768 56.4026 36.2768C56.7435 36.2918 57.0824 36.2178 57.386 36.0622C57.6896 35.9065 57.9475 35.6745 58.1343 35.389C58.196 35.3061 58.2868 35.2532 58.4023 35.3034C58.4333 35.3169 58.4604 35.338 58.4812 35.3646C58.502 35.3912 58.5158 35.4226 58.5214 35.456C58.5328 35.5247 58.5125 35.5635 58.4949 35.6023C58.0717 36.3412 57.2279 36.7045 56.4008 36.7045C54.9848 36.7045 53.9762 35.4375 53.9762 34.0823C53.9762 32.7271 54.9857 31.4601 56.4008 31.4601C57.816 31.4601 58.8432 32.7209 58.8458 34.0743L58.8449 34.0717ZM58.3917 33.8698C58.3 32.8294 57.5039 31.8806 56.4026 31.8806C55.3014 31.8806 54.5184 32.8294 54.4135 33.8698H58.3917ZM64.0223 31.759C64.0223 31.8948 63.9474 31.9688 63.8257 31.9856C62.5896 32.1654 62.0332 33.1759 62.0332 34.3503V36.3641C62.0332 36.4664 61.9644 36.5608 61.8569 36.5775C61.7158 36.5995 61.6056 36.5026 61.6056 36.3703V31.781C61.6056 31.6787 61.6743 31.5844 61.7819 31.5676C61.923 31.5456 62.0332 31.6426 62.0332 31.7748V32.7094C62.3788 32.1231 63.0736 31.5632 63.7949 31.5632C63.9007 31.5606 64.0215 31.6382 64.0215 31.7572L64.0223 31.759ZM70.9367 34.0726C70.9367 34.1916 70.8371 34.2886 70.718 34.2886H66.5079C66.6137 35.329 67.3957 36.2777 68.497 36.2777C68.8379 36.2927 69.1768 36.2187 69.4804 36.063C69.784 35.9074 70.0419 35.6754 70.2287 35.3898C70.2904 35.307 70.3812 35.2541 70.4967 35.3043C70.5277 35.3178 70.5548 35.3388 70.5756 35.3655C70.5964 35.3921 70.6102 35.4235 70.6157 35.4569C70.6272 35.5256 70.6069 35.5644 70.5893 35.6032C70.1661 36.3421 69.3223 36.7053 68.4952 36.7053C67.0792 36.7053 66.0705 35.4383 66.0705 34.0832C66.0705 32.728 67.0801 31.461 68.4952 31.461C69.9104 31.461 70.9349 32.7218 70.9376 34.0752L70.9367 34.0726ZM70.4967 33.8707C70.405 32.8302 69.6088 31.8815 68.5076 31.8815C67.4063 31.8815 66.6234 32.8302 66.5184 33.8707H70.4967ZM77.7443 31.8128V36.4126C77.7443 36.5343 77.6385 36.6225 77.5345 36.6225C77.4128 36.6225 77.3247 36.5308 77.3247 36.4126V35.5309C76.979 36.2248 76.3592 36.7212 75.5762 36.7212C74.326 36.7212 73.6312 35.6367 73.6312 34.4905V31.7925C73.6312 31.6867 73.7229 31.5826 73.841 31.5826C73.9592 31.5826 74.0509 31.6884 74.0509 31.7925V34.4905C74.0509 35.3951 74.5623 36.2998 75.5727 36.2998C76.9887 36.2998 77.3211 34.9746 77.3211 33.5118V31.7854C77.3211 31.6637 77.4428 31.5385 77.5918 31.5826C77.6835 31.6135 77.7443 31.7017 77.7443 31.796V31.8128ZM88.3954 33.6714V36.3694C88.3954 36.4911 88.2896 36.5793 88.1855 36.5793C88.0639 36.5793 87.9757 36.4876 87.9757 36.3694V33.6714C87.9757 32.7668 87.4643 31.8789 86.4539 31.8789C85.1869 31.8789 84.7054 33.2341 84.7054 34.2886V36.3694C84.7054 36.4911 84.5996 36.5793 84.4956 36.5793C84.3739 36.5793 84.2857 36.4876 84.2857 36.3694V33.6714C84.2857 32.7668 83.7743 31.8789 82.7639 31.8789C81.4828 31.8789 80.9546 32.8884 81.0023 34.2304C81.0023 34.2613 81.0164 34.3221 81.0023 34.3362V36.3641C81.0023 36.4664 80.9335 36.5608 80.8303 36.5775C80.6893 36.5995 80.579 36.5026 80.579 36.3703V31.759C80.579 31.6567 80.6478 31.5623 80.7554 31.5456C80.8965 31.5236 81.0067 31.6205 81.0067 31.7528V32.5216C81.3594 31.8745 82.0162 31.4513 82.7683 31.4513C83.6262 31.4513 84.2902 31.9935 84.5608 32.7932C84.9065 32.0103 85.5836 31.4513 86.4583 31.4513C87.6944 31.4513 88.4033 32.5093 88.4033 33.6555" fill="white"/>
<path opacity="0.6" d="M23.6293 28.7907L16 32.2605L23.6293 36.7679L31.2557 32.2605L23.6293 28.7907Z" fill="white"/>
<path opacity="0.45" d="M16 32.2604L23.6293 36.7679V19.6019L16 32.2604Z" fill="white"/>
<path opacity="0.8" d="M23.6293 19.6019V36.7679L31.2557 32.2604L23.6293 19.6019Z" fill="white"/>
<path opacity="0.45" d="M16 33.7059L23.6293 44.4542V38.2134L16 33.7059Z" fill="white"/>
<path opacity="0.8" d="M23.6293 38.2134V44.4542L31.2617 33.7059L23.6293 38.2134Z" fill="white"/>
</g>
<defs>
<clipPath id="clip0">
<rect width="73.1013" height="26.0558" fill="white" transform="translate(16 19)"/>
</clipPath>
</defs>
</svg>
