<svg width="106" height="64" viewBox="0 0 106 64" fill="none" xmlns="http://www.w3.org/2000/svg">
<rect width="106" height="64" rx="10" fill="#8DC540"/>
<g clip-path="url(#clip0)">
<path d="M85.0857 28.1149C84.989 27.6679 84.7832 27.2618 84.4671 26.9116C84.0814 26.4796 83.5976 26.2003 83.0648 25.9931C82.5034 25.7778 81.9201 25.662 81.3246 25.598C81.1489 25.5789 80.9731 25.5625 80.7973 25.5421C80.7196 25.5353 80.6433 25.5666 80.5656 25.5244C78.8336 25.5244 77.1002 25.5244 75.3669 25.5244C75.2824 25.9809 75.1965 26.436 75.1107 26.8939C74.9036 28.0318 74.6923 29.1669 74.4825 30.3047C74.2972 31.3172 74.1105 32.3256 73.9211 33.3381C73.842 33.7688 73.7643 34.2035 73.6867 34.6313C73.6608 34.7649 73.6594 34.7676 73.5354 34.7676C71.6317 34.7676 69.7239 34.7676 67.8202 34.7676C67.7793 34.7676 67.7357 34.7703 67.6826 34.7458C67.7112 34.6 67.7357 34.4528 67.7657 34.307C67.8556 33.8096 67.951 33.3122 68.0437 32.808C68.0655 32.6854 68.0682 32.6854 68.1854 32.6854C68.8899 32.6854 69.5904 32.6854 70.2935 32.6854C70.6982 32.6854 71.1043 32.6854 71.5104 32.6854C71.6917 32.6854 71.6753 32.7045 71.7067 32.5287C71.832 31.8201 71.9628 31.1142 72.0896 30.411C72.1059 30.3184 72.1059 30.3157 72.0078 30.3157C71.7871 30.3129 71.5622 30.3157 71.3387 30.3157C70.4421 30.3157 69.5454 30.3157 68.646 30.3157C68.4948 30.3157 68.4961 30.3157 68.5234 30.1644C68.6324 29.5825 68.7373 28.9979 68.8477 28.4147C68.8831 28.2239 68.845 28.2484 69.0466 28.2484C70.1668 28.2457 71.2897 28.2457 72.4098 28.2457C72.4425 28.2457 72.4807 28.243 72.512 28.2484C72.587 28.2552 72.6074 28.2184 72.621 28.153C72.6796 27.8124 72.7409 27.4758 72.8023 27.1378C72.8949 26.6445 72.9876 26.1485 73.0762 25.6525C73.0844 25.6129 73.0953 25.5693 73.0925 25.5257C70.5661 25.5257 68.0382 25.5257 65.5118 25.5257C65.5091 25.7124 65.4586 25.8923 65.4246 26.0695C65.3251 26.6554 65.2134 27.2373 65.1043 27.8233C64.9776 28.5046 64.8495 29.1914 64.7269 29.8769C64.577 30.6972 64.4243 31.5148 64.2744 32.3338C64.16 32.9539 64.0482 33.5712 63.9338 34.1871C63.9147 34.2852 63.912 34.2879 63.807 34.2879C62.9649 34.2879 62.1186 34.2879 61.2751 34.2879C61.1607 34.2879 61.1552 34.2798 61.1784 34.1708C61.3337 33.3218 61.4932 32.4701 61.654 31.6225C61.8052 30.8062 61.9565 29.99 62.1064 29.1751C62.2658 28.3097 62.428 27.4499 62.5888 26.5886C62.6501 26.2657 62.7101 25.9359 62.77 25.6116C62.7755 25.583 62.7741 25.5516 62.7755 25.523C61.4564 25.523 60.1345 25.523 58.8182 25.523C58.6301 26.5423 58.4434 27.5575 58.254 28.5782C58.0782 29.5294 57.9051 30.4805 57.7307 31.4331C57.5604 32.3488 57.39 33.2673 57.2197 34.183C57.2006 34.2866 57.1979 34.2893 57.0984 34.2893C56.2754 34.2893 55.4523 34.2893 54.6292 34.2893C54.5147 34.2893 54.5147 34.2839 54.5379 34.1721C54.7409 33.067 54.9467 31.9741 55.1484 30.873C55.3582 29.742 55.5736 28.6082 55.7848 27.4771C55.8979 26.8721 56.0096 26.2684 56.1186 25.6634C56.1282 25.6198 56.1432 25.5707 56.1282 25.523C54.8077 25.523 53.4886 25.523 52.1695 25.523C52.1613 25.7043 52.1123 25.88 52.0823 26.0558C51.9855 26.5955 51.8847 27.1296 51.7852 27.6679C51.6585 28.3547 51.5318 29.0374 51.405 29.7229C51.2729 30.4451 51.1379 31.1701 51.0071 31.8937C50.8654 32.6568 50.725 33.4144 50.5847 34.1748C50.5533 34.3452 50.5165 34.5128 50.492 34.6831C50.4811 34.7526 50.4498 34.7676 50.3898 34.7676C50.3639 34.7649 50.338 34.7676 50.3121 34.7676C48.4153 34.7676 46.5197 34.7676 44.6228 34.7649C44.4607 34.7649 44.4416 34.8058 44.4811 34.5891C44.5915 33.9963 44.6964 33.4049 44.8027 32.8121C44.8259 32.6868 44.8259 32.6868 44.9622 32.6868C46.0646 32.6868 47.1697 32.6868 48.2722 32.6868C48.3076 32.6868 48.3417 32.684 48.3757 32.6868C48.433 32.6922 48.4616 32.6677 48.4711 32.6091C48.6047 31.8582 48.7409 31.1087 48.8758 30.3606C48.8772 30.3579 48.8758 30.3538 48.8745 30.347C48.8268 30.3184 48.775 30.3306 48.7246 30.3306C47.6235 30.3306 46.5265 30.3306 45.4268 30.3306C45.2647 30.3306 45.2619 30.3306 45.2906 30.1767C45.4023 29.5621 45.5154 28.9502 45.6272 28.3356C45.6394 28.2689 45.6639 28.2402 45.7375 28.243C45.8874 28.2471 46.0373 28.243 46.1899 28.243C47.2038 28.243 48.2163 28.243 49.2288 28.243C49.2588 28.243 49.2887 28.2402 49.3201 28.2457C49.3896 28.2525 49.4168 28.2171 49.4291 28.1503C49.4686 27.9077 49.515 27.6679 49.5599 27.4267C49.6676 26.8298 49.7766 26.2357 49.8843 25.6388C49.8911 25.6007 49.8911 25.5625 49.8952 25.5244C42.0378 25.5244 34.1831 25.5244 26.3258 25.5244C26.3012 25.756 26.2494 25.9809 26.2086 26.2085C26.0573 27.037 25.906 27.8696 25.7548 28.694C25.6212 29.4231 25.4891 30.1508 25.3569 30.8785C25.2492 31.4685 25.1388 32.0599 25.0312 32.65C25.0244 32.6895 25.0148 32.7263 25.008 32.7685C24.9671 32.7685 24.9671 32.7385 24.959 32.7181C24.482 31.4099 24.0064 30.099 23.5295 28.7894C23.1466 27.7374 22.7609 26.6895 22.3753 25.6375C22.363 25.6034 22.3548 25.5639 22.3439 25.5271C20.973 25.5271 19.6022 25.5271 18.2313 25.5271C18.1727 25.8351 18.1127 26.143 18.0555 26.451C17.8715 27.4472 17.6889 28.446 17.5049 29.4394C17.3196 30.4437 17.1329 31.4426 16.9476 32.4456C16.7718 33.4035 16.5974 34.3643 16.4202 35.3222C16.299 35.9818 16.1777 36.64 16.0564 37.2968C16.0414 37.339 16.0305 37.3758 16.0005 37.4031C16.0019 37.4413 15.9855 37.5026 16.0659 37.4835C16.0823 37.4753 16.1 37.4835 16.1177 37.4835C17.3973 37.4835 18.6782 37.4835 19.9592 37.4835C19.936 37.414 19.9565 37.3499 19.9687 37.2859C20.1009 36.5432 20.2304 35.7965 20.3625 35.0511C20.5056 34.2471 20.6514 33.4444 20.7945 32.6404C20.9281 31.8828 21.0603 31.1319 21.1924 30.377C21.2129 30.268 21.2333 30.1603 21.251 30.0499C21.2946 30.0472 21.2919 30.0785 21.2987 30.1017C21.4759 30.6086 21.6517 31.1183 21.8261 31.6279C22.2567 32.8748 22.6873 34.1231 23.1179 35.3713C23.3414 36.024 23.5676 36.6727 23.7911 37.3268C23.8061 37.3772 23.832 37.4208 23.8293 37.4767C28.5184 37.4767 33.2115 37.4767 37.9033 37.4767C37.9129 37.2873 37.9606 37.1074 37.9933 36.9302C38.1336 36.1576 38.2781 35.3795 38.4198 34.6068C38.5615 33.841 38.7032 33.0765 38.845 32.312C38.9703 31.6348 39.0943 30.9561 39.2183 30.2816C39.3369 29.637 39.4582 28.9966 39.5767 28.3534C39.5958 28.2471 39.5876 28.243 39.7062 28.243C40.3535 28.243 40.9994 28.243 41.6467 28.243C41.6644 28.243 41.6807 28.2457 41.6985 28.2457C41.7502 28.2402 41.768 28.2689 41.7611 28.3152C41.7393 28.4392 41.7203 28.5632 41.6971 28.6859C41.5104 29.6983 41.3224 30.7136 41.1343 31.7274C40.949 32.7236 40.7636 33.7238 40.5797 34.7199C40.453 35.4013 40.3289 36.0799 40.2049 36.7613C40.1613 37.0011 40.1191 37.2382 40.0768 37.474C52.3916 37.474 64.7064 37.474 77.0199 37.474C77.028 37.29 77.0757 37.1142 77.1057 36.9343C77.212 36.3388 77.321 35.742 77.43 35.1465C77.5799 34.3261 77.7339 33.5071 77.8852 32.6868C77.9438 32.3706 77.9996 32.0504 78.0582 31.7342C78.1018 31.7383 78.0964 31.7751 78.1032 31.8024C78.3703 32.6936 78.6387 33.5902 78.9031 34.4869C79.1947 35.4653 79.485 36.4397 79.7725 37.4154C79.778 37.4331 79.7807 37.4494 79.7834 37.4685C81.0971 37.4685 82.408 37.4685 83.7189 37.4685C83.5786 37.0978 83.445 36.7231 83.3019 36.3552C82.8659 35.186 82.4244 34.0181 81.9869 32.8544C81.9311 32.7127 81.9338 32.7127 82.0809 32.6813C82.4475 32.605 82.8114 32.5192 83.1548 32.3693C84.1032 31.9482 84.7205 31.2423 85.0121 30.2462C85.1116 29.8932 85.1566 29.5335 85.1702 29.1655C85.1866 28.8112 85.1648 28.4624 85.0857 28.1149ZM35.644 28.352C35.6153 28.5496 35.5758 28.7458 35.5417 28.9407C35.4327 29.5375 35.321 30.1412 35.2092 30.7408C35.0852 31.4208 34.9571 32.1008 34.8304 32.7822C34.7173 33.4049 34.6028 34.0249 34.4897 34.6477C34.4693 34.7622 34.4693 34.7649 34.3494 34.7649C32.4334 34.7649 30.5188 34.7649 28.6056 34.7649C28.5715 34.7649 28.5361 34.7703 28.4925 34.7458C28.5797 34.2648 28.6669 33.7933 28.7527 33.3218C28.7854 33.1514 28.8168 32.9811 28.8481 32.8135C28.8713 32.6854 28.8699 32.6854 29.0008 32.6854C30.1522 32.6854 31.3037 32.6854 32.4539 32.6854C32.6269 32.6854 32.6296 32.6854 32.6623 32.5082C32.7795 31.8569 32.8967 31.2082 33.0153 30.5528C33.0248 30.4983 33.0357 30.4465 33.0439 30.3892C33.0562 30.3061 33.0548 30.3061 32.9703 30.302C32.9349 30.302 32.9008 30.302 32.8668 30.302C31.7452 30.302 30.6251 30.302 29.5036 30.302C29.3387 30.302 29.3387 30.302 29.366 30.1453C29.4682 29.558 29.569 28.9693 29.6726 28.3792C29.6957 28.2443 29.6957 28.2416 29.832 28.2416C31.1034 28.2416 32.3762 28.2416 33.6476 28.2416C34.2513 28.2416 34.8549 28.2416 35.4586 28.2416C35.49 28.2416 35.5199 28.2416 35.5499 28.2416C35.6562 28.2443 35.663 28.2512 35.644 28.352ZM81.1979 30.0785C81.048 30.4574 80.7755 30.7204 80.4103 30.8934C80.1418 31.0188 79.8516 31.0801 79.5531 31.1156C79.3133 31.1483 79.0721 31.1428 78.835 31.1442C78.6578 31.1442 78.4807 31.1442 78.3022 31.1442C78.1686 31.1428 78.1686 31.1428 78.1931 31.0174C78.2408 30.7599 78.2885 30.4996 78.3362 30.2421C78.467 29.5457 78.5924 28.8507 78.7232 28.153C78.7573 27.9541 78.7573 27.9541 78.9603 27.9541C79.2356 27.9541 79.5109 27.95 79.7834 27.9786C80.0464 28.0059 80.3013 28.0549 80.5479 28.1558C81.0262 28.3574 81.3137 28.7908 81.3165 29.3072C81.3246 29.5703 81.3001 29.8292 81.1979 30.0785Z" fill="white"/>
<path d="M87.9284 35.8006C87.9775 35.7869 88.0143 35.7788 88.0524 35.7665C88.404 35.6316 88.4967 35.1833 88.231 34.9175C88.1301 34.8167 88.0047 34.784 87.8671 34.784C87.5823 34.7744 87.2989 34.8058 87.0168 34.814C86.8369 34.8194 86.8369 34.8194 86.8464 35.0034C86.8464 35.0211 86.8492 35.0361 86.8505 35.0538C86.8655 35.3386 86.8791 35.618 86.8955 35.9C86.9064 36.1208 86.9132 36.3402 86.9241 36.5582C86.9296 36.7122 86.9323 36.7068 87.0835 36.7013C87.1912 36.6986 87.1898 36.685 87.1871 36.5896C87.1789 36.4083 87.168 36.2298 87.1612 36.0499C87.1585 35.9968 87.1312 35.93 87.164 35.8878C87.198 35.8414 87.2675 35.8742 87.3207 35.8605C87.5414 35.8128 87.7145 35.8796 87.8535 36.0636C87.9775 36.2271 88.0947 36.3947 88.2173 36.5623C88.2419 36.5909 88.2568 36.6386 88.3004 36.6386C88.3931 36.6386 88.4912 36.6673 88.5948 36.6059C88.3836 36.3266 88.2255 36.0159 87.9284 35.8006ZM87.754 35.6112C87.5973 35.6248 87.4379 35.6166 87.2784 35.6357C87.2648 35.6357 87.2498 35.6357 87.2403 35.6357C87.1449 35.6357 87.1503 35.633 87.1381 35.5403C87.1258 35.4122 87.1367 35.2841 87.1163 35.156C87.0972 35.0374 87.1108 35.032 87.2389 35.0265C87.3806 35.0184 87.5223 35.0265 87.6641 34.9993C87.7431 34.9884 87.8181 34.9993 87.893 35.0238C88.0184 35.0552 88.1042 35.1587 88.111 35.28C88.1138 35.4027 88.0633 35.4953 87.9516 35.5539C87.8903 35.5853 87.8235 35.6016 87.754 35.6112Z" fill="white"/>
<path d="M89.2829 35.2487C89.0362 34.3806 88.1845 33.826 87.2674 33.9882C86.349 34.149 85.7058 35.0211 85.838 35.9505C85.9402 36.6673 86.349 37.1428 87.0222 37.3977C87.1026 37.4263 87.1898 37.4317 87.2647 37.4781C87.4718 37.4781 87.6776 37.4781 87.8847 37.4781C88.0265 37.4249 88.175 37.4004 88.3099 37.3364C88.8209 37.0938 89.1493 36.7 89.2965 36.1535C89.3142 36.0854 89.2965 36.0132 89.3333 35.9546C89.3333 35.8006 89.3333 35.6425 89.3333 35.4885C89.2924 35.4136 89.3047 35.3291 89.2829 35.2487ZM87.5795 37.1769C86.8682 37.1742 86.1337 36.595 86.1323 35.727C86.1296 34.923 86.7769 34.2798 87.5863 34.2798C88.4189 34.2798 89.0499 34.9898 89.0281 35.727C89.0594 36.471 88.3876 37.1824 87.5795 37.1769Z" fill="white"/>
</g>
<defs>
<clipPath id="clip0">
<rect width="73.3333" height="13.0107" fill="white" transform="translate(16 25)"/>
</clipPath>
</defs>
</svg>
