<svg width="106" height="64" viewBox="0 0 106 64" fill="none" xmlns="http://www.w3.org/2000/svg">
<rect width="106" height="64" rx="10" fill="#F01010"/>
<path fill-rule="evenodd" clip-rule="evenodd" d="M54.0455 22.2684H51.8081C51.4418 22.2267 50.9944 22.2267 50.5474 22.1868C50.4259 22.2267 50.3838 22.3504 50.3431 22.5127C50.3027 22.6758 50.3431 22.7978 50.4259 22.9193L50.9137 22.9605C51.5225 23.0811 51.9699 23.2035 52.2563 23.3267C52.5401 23.4886 52.7428 23.7737 52.8252 24.14C52.9064 24.5062 52.9467 24.9936 52.9064 25.6045C52.8647 26.4586 52.8252 27.4749 52.7844 28.6548C52.7428 29.836 52.6621 31.0558 52.5801 32.3177C52.4998 34.2683 52.3246 39.021 51.7943 40.4281C51.6715 40.7535 51.4689 40.9575 51.2245 41.0811C50.939 41.2014 50.6123 41.3237 50.2057 41.3658L49.553 41.447C49.4315 41.5272 49.3903 41.6509 49.4315 41.8544C49.4315 41.9768 49.4719 42.0979 49.5942 42.2207C50.1232 42.1803 50.6123 42.1391 51.1421 42.0979H54.3615C54.9716 42.1391 55.5019 42.1803 55.9905 42.2207C56.1133 42.1391 56.1945 42.0172 56.1945 41.8544C56.1945 41.6904 56.1541 41.5689 56.0309 41.447L54.8909 41.3658C54.5234 41.3237 54.2383 41.243 54.0352 41.0811C53.933 40.9983 53.851 40.8849 53.79 40.7467C53.5496 40.1683 53.5444 39.1898 53.5569 38.5822C53.5831 37.3212 53.5985 36.0605 53.6385 34.799C53.6792 33.538 53.72 32.4384 53.76 31.5032C53.7995 30.6492 53.8832 29.7531 53.9227 28.8583C53.9635 27.9644 54.0034 27.0683 54.0455 26.1735H54.1262C54.4521 26.8647 54.778 27.5565 55.0627 28.3293C55.3886 29.0623 55.7136 29.7948 56.0382 30.4869L58.7643 36.3027C59.0099 36.7926 59.2937 37.4027 59.6183 38.1348C59.9854 38.9077 60.3503 39.6393 60.6767 40.3714C60.8488 40.7591 60.9978 41.1224 61.1241 41.4641C61.1567 41.4641 61.3847 42.2138 61.41 42.301C61.5667 42.4598 61.8235 42.456 61.9807 42.301C62.2336 41.6947 62.4976 41.0811 62.7917 40.4946C63.5624 38.7651 64.3662 37.1133 65.2739 35.45L67.9184 30.2018C68.1223 29.7531 68.325 29.2649 68.6097 28.7368C68.8948 28.1674 69.179 27.6385 69.4238 27.1911C69.6268 26.7024 69.7891 26.3774 69.8699 26.255H69.9111L69.9935 38.8274C70.033 39.4774 69.9935 39.9635 69.9527 40.3302C69.9201 40.6213 69.8381 40.8978 69.5586 41.0399C69.3946 41.243 69.0691 41.3237 68.5397 41.3658L67.6432 41.447C67.5616 41.5272 67.5212 41.6509 67.5616 41.8544C67.5616 41.9768 67.6028 42.0979 67.7256 42.2207C68.3357 42.1803 68.9867 42.1391 69.5981 42.0979H73.103C73.7131 42.1391 74.3241 42.1803 74.9368 42.2207C75.0592 42.1391 75.0991 42.0172 75.0991 41.8544C75.1395 41.6904 75.0991 41.5689 75.018 41.447L74.0399 41.3658C73.5916 41.3237 73.2657 41.2014 73.0609 40.9978C72.8596 40.7947 72.696 40.55 72.6552 40.2241C72.6135 39.8583 72.5727 39.4087 72.5727 38.9206C72.4894 37.407 72.4328 35.869 72.3933 34.3521C72.352 32.7226 72.2705 31.1782 72.2305 29.7149V25.8484C72.2305 25.1567 72.2705 24.6282 72.352 24.2207C72.4349 23.8553 72.638 23.5303 72.9218 23.3267C73.2074 23.164 73.6947 23.0408 74.3456 22.9605L74.9566 22.9193C75.0386 22.8377 75.0785 22.7158 75.0386 22.5127C75.0386 22.3899 74.9974 22.2684 74.9162 22.1868C74.4276 22.2267 73.939 22.2267 73.492 22.2684H71.2954C70.9283 22.2267 70.5208 22.2267 69.9935 22.1868C69.9527 22.8772 69.7084 23.6518 69.3422 24.547C68.8948 25.4809 68.3667 26.6222 67.7157 27.9644L64.8669 33.6999C64.1284 35.2615 63.4555 36.7475 62.5504 38.228H62.4693C61.7492 36.8695 61.0854 35.4598 60.4324 34.067L56.9751 27.1498C56.5281 26.1735 56.1206 25.2387 55.7952 24.3843C55.5101 23.5303 55.3886 22.7978 55.4289 22.1868C54.9412 22.2267 54.4929 22.2267 54.0455 22.2684ZM37.3521 37.7333C37.3521 38.7694 37.3113 39.5582 37.2284 40.0983C37.1464 41.1443 36.456 41.4869 35.4826 41.5539L34.8592 41.6367C34.6586 41.8381 34.6741 42.2743 34.9025 42.4251C36.1881 42.3452 37.3504 42.3001 38.6402 42.3001C40.0155 42.3001 41.2975 42.3607 42.6685 42.4251C42.7514 42.3422 42.7943 42.2177 42.8355 42.0519C42.8355 41.8446 42.7943 41.7187 42.7106 41.6367L41.8798 41.5539C41.2151 41.5109 40.7587 41.3864 40.5097 41.1786C40.4946 41.1679 40.4796 41.1567 40.465 41.1451C40.2138 40.9364 40.0339 40.6178 39.9583 40.1241C39.8759 39.5848 39.8343 38.7973 39.8759 37.7625V34.857C38.9631 34.8991 38.134 34.857 37.3869 34.7329L37.3521 37.7333ZM34.6904 22.5818C34.6496 22.7471 34.7329 22.8712 34.8574 22.9966L35.936 23.1194C36.3916 23.1623 36.7239 23.286 36.9309 23.4938C37.1378 23.6591 37.2632 23.9502 37.304 24.4058C37.3461 24.8617 37.3869 25.5268 37.3869 26.3963V32.5346C38.2164 32.5762 39.0455 32.5762 39.8759 32.5346V24.0738C39.8343 23.7424 39.8759 23.4938 39.9583 23.286C39.9996 23.1623 40.1657 23.0361 40.3727 22.9966C40.6217 22.9549 41.0373 22.9549 41.5762 22.9549C43.1516 22.9966 44.3546 23.4105 45.2254 24.2817C46.0549 25.1516 46.4693 26.3551 46.4693 27.8493C46.5122 29.1756 46.1799 30.2954 45.4749 31.2069C44.8527 31.9966 43.9403 32.5762 42.6956 32.8665C41.4933 33.1571 39.793 33.2817 37.5114 33.2391C35.5204 33.2001 33.3641 33.0747 31 32.8261C33.6136 33.365 35.562 33.7376 36.8072 33.8617C38.8381 34.1121 40.8291 34.0691 42.6956 33.7802C43.6492 33.6543 44.5204 33.4066 45.3087 33.1163C46.0549 32.7849 46.802 32.3285 47.5899 31.7883C48.0459 31.4573 48.4607 30.9163 48.8347 30.2125C49.1254 29.5487 49.2907 28.7608 49.3315 27.8063C49.2907 26.769 49.0416 25.8587 48.5861 25.0696C48.1292 24.2817 47.5899 23.6591 46.8845 23.2044C46.1799 22.7887 45.3087 22.456 44.3134 22.2486C43.3594 22.0833 42.2391 22 40.954 22C39.7093 22 38.5895 22 37.5947 22.0412C36.599 22.0833 35.6866 22.1245 34.8978 22.2074C34.7741 22.2911 34.6904 22.4152 34.6904 22.5818Z" fill="white"/>
</svg>
