<svg width="106" height="64" viewBox="0 0 106 64" fill="none" xmlns="http://www.w3.org/2000/svg">
<rect width="106" height="64" rx="10" fill="#862565"/>
<g clip-path="url(#clip0)">
<path d="M65.9067 26.3972C67.2574 26.3972 68.351 25.3035 68.351 23.9549C68.351 22.6063 67.2567 21.5105 65.9067 21.5105C64.5567 21.5105 63.4644 22.6056 63.4644 23.9549C63.4643 24.2757 63.5274 24.5933 63.6501 24.8897C63.7728 25.1861 63.9527 25.4554 64.1795 25.6823C64.4063 25.9092 64.6755 26.0891 64.9719 26.2119C65.2682 26.3347 65.5859 26.3979 65.9067 26.3979V26.3972ZM47.1847 27.7144C47.0743 27.9992 46.2804 30.235 44.3601 32.5583V22.6213L39.2442 23.6324V41.6466H44.3608V36.0786C45.8432 38.3001 46.5752 41.6466 46.5752 41.6466H52.7036C52.0983 39.126 49.4461 34.4801 49.4461 34.4801C51.0219 32.4476 52.2365 30.1592 53.0368 27.7151L47.1847 27.7144ZM60.6348 27.5264C56.0529 27.6738 53.726 29.7294 53.726 33.8165V41.6459H58.7259V35.2619C58.7259 32.8154 59.0463 31.7729 61.9499 31.6661V27.6005C61.4615 27.4965 60.6348 27.5293 60.6348 27.5293V27.5264ZM30.6642 29.701C30.0377 29.6604 28.5866 29.5657 28.5866 28.2598C28.5866 26.6841 30.6749 26.6841 31.4589 26.6841C32.8366 26.6841 34.6203 27.09 35.8948 27.4723C36.3288 27.6529 36.7676 27.8219 37.2106 27.9793L37.2676 27.9949V23.6772L37.1907 23.6544C35.6869 23.1275 33.9389 22.622 30.697 22.622C25.1076 22.622 23.1282 25.8774 23.1282 28.6671C23.1282 30.2748 23.8174 34.0593 30.2178 34.4957C30.7604 34.5292 32.2001 34.6118 32.2001 35.9625C32.2001 37.0768 31.021 37.734 29.0387 37.734C26.867 37.734 24.7573 37.1801 23.4778 36.6546V41.0998C25.3945 41.6017 27.5548 41.8531 30.0875 41.8531C35.5523 41.8531 37.9995 38.7729 37.9995 35.7197C37.9995 32.2578 35.2611 30.0093 30.6657 29.701H30.6642ZM63.4302 41.6487H68.3888V27.7315H63.4288L63.4302 41.6487ZM77.7263 23.5099V41.6487H82.6862V22.6234L77.7263 23.5099ZM70.49 23.5099L75.4442 22.6234V41.6487H70.49V23.5085V23.5099Z" fill="white"/>
</g>
<defs>
<clipPath id="clip0">
<rect width="59.8101" height="21.3608" fill="white" transform="translate(23 21)"/>
</clipPath>
</defs>
</svg>
