<svg width="106" height="64" viewBox="0 0 106 64" fill="none" xmlns="http://www.w3.org/2000/svg">
<rect width="106" height="64" rx="10" fill="#2C2C2C"/>
<g clip-path="url(#clip0)">
<path d="M26.0461 42.2956C31.5944 42.2956 36.0921 37.7978 36.0921 32.2495C36.0921 26.7013 31.5944 22.2035 26.0461 22.2035C20.4978 22.2035 16 26.7013 16 32.2495C16 37.7978 20.4978 42.2956 26.0461 42.2956Z" fill="#26A17B"/>
<path d="M27.1168 33.1766V33.175C27.0474 33.1799 26.6888 33.2009 25.8909 33.2009C25.253 33.2009 24.8056 33.1831 24.6473 33.175V33.1766C22.1939 33.0684 20.364 32.642 20.364 32.13C20.364 31.6197 22.1955 31.1917 24.6473 31.0834V32.7519C24.8072 32.7632 25.2675 32.7906 25.9022 32.7906C26.6646 32.7906 27.0458 32.7583 27.1168 32.7519V31.0851C29.5653 31.1949 31.3904 31.6213 31.3904 32.1317C31.3904 32.642 29.5637 33.0684 27.1168 33.1783V33.1766ZM27.1168 30.9122V29.4199H30.5328V27.1441H21.2329V29.4199H24.6489V30.9122C21.8725 31.0398 19.7858 31.589 19.7858 32.2479C19.7858 32.9069 21.8741 33.4561 24.6489 33.5853V38.3693H27.1184V33.5853C29.89 33.4577 31.9735 32.9085 31.9735 32.2496C31.9735 31.5922 29.89 31.0414 27.1184 30.9139" fill="white"/>
<path d="M44.6256 27.766V30.179H46.9707V31.9895H44.6094V35.6607C44.6094 36.4715 45.0568 36.8672 45.7125 36.8672C46.0404 36.8672 46.42 36.7638 46.7301 36.6088L47.3164 38.4016C46.7139 38.6422 46.2132 38.7456 45.5753 38.7634C43.7308 38.8328 42.5243 37.7814 42.5243 35.6607V31.9895H40.9382V30.179H42.5243V27.9905L44.6256 27.766ZM85.057 30.0659L85.212 31.0479C85.8678 29.9965 86.7464 29.8414 87.6089 29.8414C88.4875 29.8414 89.3322 30.1854 89.7974 30.6506L88.8493 32.4773C88.418 32.1155 88.0223 31.9249 87.3327 31.9249C86.2296 31.9249 85.212 32.5112 85.212 34.0795V38.5615H83.1091V30.0627L85.057 30.0659ZM79.9031 33.3236C79.7658 32.2205 78.9033 31.6681 77.6969 31.6681C76.5598 31.6681 75.6279 32.2205 75.3178 33.3236H79.9031ZM75.2839 35.0647C75.4211 36.1162 76.3353 36.8753 77.818 36.8753C78.5932 36.8753 79.6108 36.5813 80.0937 36.0823L81.4375 37.4099C80.5411 38.3402 79.0762 38.7892 77.7825 38.7892C74.8526 38.7892 73.1099 36.9786 73.1099 34.2555C73.1099 31.6697 74.8688 29.8075 77.6274 29.8075C80.4716 29.8075 82.2483 31.5664 81.9204 35.0647H75.2839ZM66.0098 26.4965V31.2191C66.7689 30.2371 67.6992 29.9432 68.6651 29.9432C71.0781 29.9432 72.1473 31.5809 72.1473 34.0811V38.5631H70.0444V34.0989C70.0444 32.5467 69.2336 31.8926 68.1127 31.8926C66.8707 31.8926 66.0098 32.9441 66.0098 34.22V38.5647H63.9069V26.4981L66.0098 26.4965ZM60.4247 27.6691V30.0821H62.7699V31.8926H60.4086V35.5638C60.4086 36.3746 60.8576 36.7703 61.5117 36.7703C61.8396 36.7703 62.2191 36.6669 62.5292 36.5119L63.1155 38.3047C62.5131 38.5453 62.0124 38.6487 61.3744 38.6665C59.5299 38.7359 58.3234 37.6828 58.3234 35.5638V31.8926H56.7374V30.0821H58.3234V27.8936L60.4247 27.6691ZM54.6151 33.3236C54.4778 32.2205 53.6153 31.6681 52.4088 31.6681C51.2718 31.6681 50.3399 32.2205 50.0298 33.3236H54.6151ZM49.9959 35.0647C50.1331 36.1162 51.0473 36.8753 52.53 36.8753C53.3052 36.8753 54.3228 36.5813 54.8057 36.0823L56.1495 37.4099C55.2531 38.3402 53.7882 38.7892 52.4944 38.7892C49.563 38.7892 47.8219 36.9786 47.8219 34.2555C47.8219 31.6697 49.5808 29.8075 52.3378 29.8075C55.182 29.8075 56.957 31.5664 56.6308 35.0647H49.9959Z" fill="white"/>
</g>
<defs>
<clipPath id="clip0">
<rect width="73.7975" height="20.4993" fill="white" transform="translate(16 22)"/>
</clipPath>
</defs>
</svg>
