<svg width="106" height="64" viewBox="0 0 106 64" fill="none" xmlns="http://www.w3.org/2000/svg">
<rect width="106" height="64" rx="10" fill="#2A88D2"/>
<path d="M38.1233 27.0635H38.7171C38.8682 27.0635 38.9912 27.1864 38.9912 27.3375V32.654C38.9912 34.3336 39.9013 35.3948 41.595 35.3948C43.2886 35.3948 44.1987 34.3336 44.1987 32.654V27.3375C44.1987 27.1864 44.3217 27.0635 44.4728 27.0635H45.0666C45.2177 27.0635 45.3407 27.1864 45.3407 27.3375V32.6681C45.3407 34.9556 44.0863 36.4138 41.595 36.4138C39.1036 36.4138 37.8492 34.9415 37.8492 32.6821V27.3375C37.8457 27.1864 37.9687 27.0635 38.1233 27.0635ZM47.0906 34.3055C47.1785 34.1931 47.3471 34.1825 47.449 34.2809C48.064 34.8783 48.9846 35.3948 50.1512 35.3948C51.7886 35.3948 52.3122 34.5128 52.3122 33.8101C52.3122 32.7067 51.1983 32.4045 49.986 32.0742C48.5137 31.6877 46.8728 31.2766 46.8728 29.4705C46.8728 27.956 48.2221 26.9229 50.0282 26.9229C51.3248 26.9229 52.3509 27.32 53.1063 28.0192C53.2153 28.1176 53.2258 28.2863 53.1309 28.3987L52.7725 28.838C52.6847 28.9469 52.523 28.9539 52.4211 28.859C51.75 28.2301 50.8645 27.9419 49.9439 27.9419C48.8405 27.9419 48.0569 28.5358 48.0569 29.4002C48.0569 30.3243 49.1181 30.5984 50.2882 30.9146C51.7886 31.3152 53.4964 31.7826 53.4964 33.7117C53.4964 35.0469 52.5863 36.4103 50.109 36.4103C48.6262 36.4103 47.5088 35.8867 46.7498 35.1278C46.6514 35.0294 46.6409 34.8712 46.7287 34.7623L47.0906 34.3055ZM54.8562 27.3375C54.8562 27.1864 54.9792 27.0635 55.1303 27.0635H57.9941C60.8438 27.0635 62.7062 29.0593 62.7062 31.6631C62.7062 34.2809 60.8474 36.2487 57.9941 36.2487H55.1303C54.9792 36.2487 54.8562 36.1257 54.8562 35.9746V27.3375ZM57.9976 35.2297C60.2289 35.2297 61.522 33.6309 61.522 31.6631C61.522 29.6778 60.2676 28.0825 57.9976 28.0825H56.0018V35.2297H57.9976ZM74.1367 32.9175C74.1367 30.9884 75.4052 29.4318 77.4292 29.4318C79.4532 29.4318 80.7217 30.9884 80.7217 32.9175C80.7217 34.8466 79.4532 36.4173 77.4292 36.4173C75.4052 36.4173 74.1367 34.8431 74.1367 32.9175ZM79.6324 32.9175C79.6324 31.5682 78.8488 30.3559 77.4292 30.3559C76.0096 30.3559 75.212 31.5682 75.212 32.9175C75.212 34.2809 76.0096 35.4932 77.4292 35.4932C78.8488 35.4932 79.6324 34.2809 79.6324 32.9175ZM81.7126 27.7803C81.7126 27.3938 82.0289 27.0916 82.4013 27.0916C82.7878 27.0916 83.1041 27.3938 83.1041 27.7803C83.1041 28.1668 82.7878 28.4831 82.4013 28.4831C82.0289 28.4831 81.7126 28.1633 81.7126 27.7803ZM82.1659 29.597H82.6473C82.7984 29.597 82.9214 29.7199 82.9214 29.871V35.9746C82.9214 36.1257 82.7984 36.2487 82.6473 36.2487H82.1659C82.0148 36.2487 81.8918 36.1257 81.8918 35.9746V29.871C81.8918 29.7199 82.0148 29.597 82.1659 29.597ZM88.8738 31.8985C88.8738 30.7284 88.28 30.3559 87.3875 30.3559C86.5758 30.3559 85.8027 30.8514 85.4162 31.389V35.9746C85.4162 36.1257 85.2932 36.2487 85.1421 36.2487H84.6607C84.5096 36.2487 84.3867 36.1257 84.3867 35.9746V29.871C84.3867 29.7199 84.5096 29.597 84.6607 29.597H85.1421C85.2932 29.597 85.4162 29.7199 85.4162 29.871V30.5597C85.8836 30.0081 86.7936 29.4318 87.7846 29.4318C89.176 29.4318 89.9069 30.1346 89.9069 31.5788V35.9711C89.9069 36.1222 89.7839 36.2452 89.6328 36.2452H89.1514C89.0003 36.2452 88.8774 36.1222 88.8774 35.9711V31.8985H88.8738ZM65.317 31.6631C65.317 28.838 67.3972 26.9124 70.0009 26.9124C71.5435 26.9124 72.6258 27.5835 73.3567 28.5041C73.448 28.6201 73.4164 28.7923 73.2864 28.8661L72.7734 29.1507C72.6574 29.2175 72.5098 29.1858 72.4255 29.0839C71.8809 28.4093 70.9989 27.9349 70.0009 27.9349C68.0297 27.9349 66.5011 29.4775 66.5011 31.6666C66.5011 33.8417 68.0297 35.3983 70.0009 35.3983C71.0024 35.3983 71.8844 34.9345 72.4255 34.2493C72.5098 34.1439 72.6539 34.1158 72.7734 34.179L73.2934 34.4636C73.4269 34.5374 73.4586 34.7131 73.3637 34.8291C72.6047 35.7567 71.5435 36.4173 70.0009 36.4173C67.3972 36.4138 65.317 34.4882 65.317 31.6631Z" fill="white"/>
<path d="M25.6631 40.6234C30.6117 40.6234 34.6234 36.6117 34.6234 31.6631C34.6234 26.7144 30.6117 22.7028 25.6631 22.7028C20.7144 22.7028 16.7028 26.7144 16.7028 31.6631C16.7028 36.6117 20.7144 40.6234 25.6631 40.6234Z" fill="white"/>
<path d="M23.9833 37.8932C23.9833 38.104 23.8181 38.2235 23.6143 38.1602C20.9052 37.2958 18.9409 34.7553 18.9409 31.758C18.9409 28.7607 20.9052 26.2201 23.6143 25.3557C23.8181 25.2925 23.9833 25.412 23.9833 25.6228V26.1428C23.9833 26.2834 23.8744 26.4485 23.7408 26.4942C21.5974 27.2813 20.0618 29.3404 20.0618 31.7545C20.0618 34.1685 21.5974 36.2276 23.7408 37.0147C23.8744 37.0639 23.9833 37.2255 23.9833 37.3661V37.8932Z" fill="#2A88D2"/>
<path d="M26.2218 35.957C26.2218 36.1116 26.0953 36.2381 25.9407 36.2381H25.382C25.2274 36.2381 25.1009 36.1116 25.1009 35.957V35.0715C23.878 34.9064 23.2807 34.2212 23.119 33.29C23.0909 33.1319 23.2174 32.9878 23.3791 32.9878H24.0186C24.1521 32.9878 24.2646 33.0827 24.2927 33.2162C24.4121 33.7714 24.7319 34.1966 25.7123 34.1966C26.4361 34.1966 26.9491 33.7925 26.9491 33.1881C26.9491 32.5837 26.6469 32.3553 25.5858 32.1796C24.0186 31.9688 23.2772 31.4944 23.2772 30.2646C23.2772 29.3158 23.994 28.5779 25.1044 28.4198V27.5519C25.1044 27.3973 25.2309 27.2708 25.3855 27.2708H25.9442C26.0988 27.2708 26.2253 27.3973 26.2253 27.5519V28.4444C27.1283 28.606 27.7011 29.1191 27.8873 29.9694C27.9225 30.1311 27.796 30.2822 27.6308 30.2822H27.0405C26.914 30.2822 26.8086 30.1978 26.7699 30.0748C26.6118 29.5337 26.2253 29.3018 25.5541 29.3018C24.8127 29.3018 24.4297 29.6602 24.4297 30.1627C24.4297 30.6933 24.6476 30.9603 25.7861 31.1255C27.3251 31.3363 28.1193 31.7755 28.1193 33.0862C28.1193 34.0806 27.3813 34.8853 26.2253 35.0715V35.957H26.2218Z" fill="#2A88D2"/>
<path d="M27.7118 38.1602C27.508 38.2235 27.3428 38.104 27.3428 37.8932V37.3731C27.3428 37.2185 27.4377 37.0744 27.5853 37.0217C29.7287 36.2346 31.2643 34.1755 31.2643 31.7615C31.2643 29.3475 29.7287 27.2884 27.5853 26.5012C27.4518 26.4521 27.3428 26.2904 27.3428 26.1499V25.6298C27.3428 25.419 27.508 25.296 27.7118 25.3628C30.421 26.2272 32.3852 28.7677 32.3852 31.765C32.3817 34.7553 30.421 37.2923 27.7118 38.1602Z" fill="#2A88D2"/>
</svg>
