<svg width="106" height="64" viewBox="0 0 106 64" fill="none" xmlns="http://www.w3.org/2000/svg">
<rect width="106" height="64" rx="10" fill="#242C82"/>
<path d="M45.8155 22.2913L37.9515 41.0291H32.8058L28.9223 26.0777C28.7282 25.2039 28.4369 24.8155 27.7573 24.4272C26.5922 23.8447 24.6505 23.1651 23 22.8738L23.0971 22.2913H31.3495C32.4175 22.2913 33.3884 22.9709 33.5825 24.233L35.6214 35.1068L40.6699 22.3884H45.8155V22.2913ZM65.9126 34.9126C65.9126 29.9612 59.1165 29.6699 59.1165 27.534C59.1165 26.8544 59.7961 26.1748 61.1553 25.9806C61.8349 25.8835 63.7767 25.7864 65.9126 26.8544L66.7864 22.8738C65.6214 22.4854 64.1651 22 62.2233 22C57.466 22 54.068 24.5243 54.068 28.2136C54.068 30.932 56.4951 32.3883 58.3398 33.2621C60.1845 34.1359 60.8641 34.7184 60.8641 35.5922C60.8641 36.8544 59.4078 37.4369 57.9515 37.4369C55.5243 37.4369 54.068 36.7573 53 36.2718L52.1262 40.3495C53.2913 40.835 55.3301 41.3204 57.466 41.3204C62.5146 41.3204 65.8155 38.7961 65.9126 34.9126ZM78.534 41.0291H83L79.1165 22.2913H74.9417C73.9709 22.2913 73.1942 22.8738 72.9029 23.6505L65.6214 41.0291H70.6699L71.6408 38.2136H77.8544L78.534 41.0291ZM73.0971 34.4272L75.6214 27.4369L77.0777 34.4272H73.0971ZM52.7087 22.2913L48.7282 41.0291H43.8738L47.8544 22.2913H52.7087Z" fill="white"/>
</svg>
