<?xml version="1.0" encoding="utf-8"?>
<!-- Generator: Adobe Illustrator 16.0.0, SVG Export Plug-In . SVG Version: 6.00 Build 0)  -->
<!DOCTYPE svg PUBLIC "-//W3C//DTD SVG 1.1//EN" "http://www.w3.org/Graphics/SVG/1.1/DTD/svg11.dtd">
<svg version="1.1" id="Layer_1" xmlns="http://www.w3.org/2000/svg" xmlns:xlink="http://www.w3.org/1999/xlink" x="0px" y="0px"
	 width="48px" height="48px" viewBox="0 0 48 48" enable-background="new 0 0 48 48" xml:space="preserve">
<g>
	<path fill="#3DB39E" d="M6.722,15.02c-1.659,0-3.003,1.175-3.003,2.627v11.238c0,1.452,1.344,2.629,3.003,2.629
		c1.657,0,3.003-1.177,3.003-2.629V17.646C9.725,16.195,8.379,15.02,6.722,15.02z M29.438,4.028l2.623-2.617
		c0.324-0.323,0.324-0.844,0-1.168c-0.324-0.323-0.848-0.323-1.172,0l-3.23,3.224c-1.154-0.283-2.373-0.439-3.64-0.439
		c-1.254,0-2.461,0.155-3.604,0.429l-3.224-3.215c-0.325-0.323-0.85-0.323-1.172,0c-0.324,0.322-0.324,0.846,0,1.168l2.609,2.604
		c-4.355,1.67-7.382,5.292-7.382,9.501c0,0.051,25.539,0.003,25.539,0C36.787,9.318,33.777,5.706,29.438,4.028z M20.26,10.521
		c-0.829,0-1.502-0.67-1.502-1.5c0-0.827,0.672-1.5,1.502-1.5c0.831,0,1.502,0.672,1.502,1.5
		C21.764,9.849,21.088,10.521,20.26,10.521z M27.773,10.521c-0.83,0-1.502-0.67-1.502-1.5c0-0.827,0.672-1.5,1.502-1.5
		c0.832,0,1.502,0.672,1.502,1.5C29.275,9.849,28.602,10.521,27.773,10.521z M41.279,15.02c-1.658,0-3.004,1.175-3.004,2.627v11.238
		c0,1.452,1.346,2.629,3.004,2.629s3.002-1.178,3.002-2.629V17.646C44.281,16.195,42.936,15.02,41.279,15.02z M11.247,33.001
		c0,2.479,2.01,4.484,4.491,4.493v7.877c0,1.452,1.346,2.629,3.003,2.629s3.002-1.177,3.002-2.629v-7.877h4.513v7.877
		C26.256,46.823,27.6,48,29.26,48c1.656,0,3-1.177,3-2.629v-7.877h0.02c2.488,0,4.508-2.013,4.508-4.493V15.015h-25.54
		L11.247,33.001L11.247,33.001z"/>
</g>
</svg>
