<?xml version="1.0" encoding="utf-8"?>
<!-- Generator: Adobe Illustrator 16.0.0, SVG Export Plug-In . SVG Version: 6.00 Build 0)  -->
<!DOCTYPE svg PUBLIC "-//W3C//DTD SVG 1.1//EN" "http://www.w3.org/Graphics/SVG/1.1/DTD/svg11.dtd">
<svg version="1.1" id="Layer_1" xmlns="http://www.w3.org/2000/svg" xmlns:xlink="http://www.w3.org/1999/xlink" x="0px" y="0px"
	 viewBox="0 0 48 48" enable-background="new 0 0 48 48" xml:space="preserve">
<g>
	<path fill="#27A6D1" d="M24,14.981c4.969,0,9,4.031,9,8.998c0,4.972-4.03,8.999-9,8.999c-4.968,0-8.998-4.028-8.998-8.999
		C15.002,19.013,19.033,14.981,24,14.981z"/>
	<path fill="#3DB39E" d="M24,35.979c-6.07,0-11.076-4.512-11.873-10.366L3.856,11.271L3.847,11.25l-0.925,1.336
		c-0.228,0.418-0.451,0.843-0.654,1.276l-0.443,1.035c-0.146,0.357-0.292,0.718-0.423,1.086c-0.148,0.41-0.274,0.824-0.396,1.239
		l-0.268,0.956c-0.11,0.445-0.205,0.891-0.29,1.339l-0.162,0.946c-0.066,0.44-0.117,0.876-0.156,1.313l-0.079,1.044
		c-0.02,0.4-0.026,0.797-0.026,1.197c0,0.398,0.006,0.798,0.026,1.194l0.079,1.045c0.039,0.438,0.092,0.876,0.156,1.313l0.162,0.945
		c0.087,0.448,0.18,0.894,0.29,1.34l0.268,0.955c0.122,0.412,0.248,0.829,0.396,1.239c0.131,0.364,0.277,0.726,0.423,1.086
		c0.145,0.346,0.282,0.692,0.443,1.034c0.204,0.434,0.426,0.854,0.655,1.276l0.298,0.587l0.139,0.216
		c0.265,0.45,0.555,0.881,0.848,1.312l0.471,0.7c0.284,0.387,0.595,0.756,0.906,1.129l0.62,0.742
		c0.271,0.296,0.56,0.578,0.844,0.862c0.285,0.286,0.565,0.58,0.862,0.846l0.745,0.624c0.372,0.307,0.741,0.617,1.127,0.902
		l0.696,0.474c0.432,0.297,0.866,0.586,1.312,0.85l0.212,0.138l0.584,0.299c0.421,0.228,0.843,0.454,1.277,0.656l0.126,0.064
		l0.606,0.249c1.622,0.691,3.318,1.182,5.046,1.502l6.845-11.871C25.685,35.888,24.853,35.979,24,35.979z"/>
	<path fill="#EEC75E" d="M47.916,22.345l-0.032-0.395c-0.17-2.004-0.993-4.905-1.676-6.851H32.046
		c2.421,2.194,3.952,5.354,3.952,8.881c0,3.808-1.776,7.192-4.536,9.389L23.026,48c2.966,0,6.959-0.535,9.833-1.685l0.098-0.032
		l0.152-0.064c0.981-0.405,1.948-0.85,2.892-1.396c0.845-0.487,1.636-1.033,2.399-1.602l0.043-0.035
		c0.736-0.556,1.424-1.148,2.079-1.772l0.104-0.088l0.33-0.338c1.452-1.452,2.698-3.059,3.716-4.788l0.116-0.171l0.207-0.42
		c0.328-0.595,0.631-1.202,0.905-1.82l0.354-0.832c0.234-0.587,0.438-1.181,0.626-1.781l0.246-0.774
		c0.23-0.835,0.418-1.679,0.557-2.531l0.059-0.485c0.104-0.732,0.178-1.47,0.216-2.213l0.013-0.596
		C47.982,23.835,47.968,23.09,47.916,22.345z"/>
	<path fill="#E2584C" d="M44.774,11.982c-0.504-0.87-1.066-1.681-1.656-2.464l-0.194-0.24c-0.53-0.685-1.092-1.336-1.688-1.948
		l-0.4-0.413c-0.653-0.642-1.33-1.251-2.038-1.807l-0.156-0.132c-0.791-0.609-1.619-1.156-2.472-1.657l-0.171-0.114l-0.65-0.337
		c-0.374-0.203-0.747-0.405-1.133-0.587c-0.37-0.172-0.744-0.325-1.118-0.479l-0.939-0.375c-0.455-0.163-0.913-0.301-1.374-0.442
		l-0.766-0.222c-0.5-0.129-1.007-0.231-1.51-0.329l-0.714-0.142c-0.49-0.079-0.983-0.129-1.477-0.175L25.51,0.036
		c-0.423-0.027-0.845-0.024-1.271-0.03L23.199,0l-0.811,0.059c-1.791,0.12-3.582,0.439-5.34,0.972l-0.365,0.099
		c-0.446,0.144-0.885,0.319-1.327,0.492L14.51,1.955c-0.362,0.155-0.721,0.336-1.08,0.515c-0.35,0.171-0.697,0.344-1.04,0.534
		L12,3.203l-0.576,0.373C11.084,3.785,10.748,4,10.417,4.228C10.092,4.454,9.772,4.685,9.46,4.922L8.635,5.581
		c-0.34,0.285-0.671,0.574-0.995,0.875L7.03,7.052C6.674,7.41,6.327,7.772,5.997,8.147l-0.223,0.27l6.824,11.841
		c1.568-4.801,6.077-8.275,11.403-8.275C24.001,11.982,44.774,11.982,44.774,11.982z"/>
</g>
</svg>
