<?xml version="1.0" encoding="utf-8"?>
<!-- Generator: Adobe Illustrator 16.0.0, SVG Export Plug-In . SVG Version: 6.00 Build 0)  -->
<!DOCTYPE svg PUBLIC "-//W3C//DTD SVG 1.1//EN" "http://www.w3.org/Graphics/SVG/1.1/DTD/svg11.dtd">
<svg version="1.1" id="Layer_1" xmlns="http://www.w3.org/2000/svg" xmlns:xlink="http://www.w3.org/1999/xlink" x="0px" y="0px"
	 viewBox="0 0 802 82" enable-background="new 0 0 802 82" xml:space="preserve">
<g>
	<g>
		<path fill="#27A6D1" d="M262.601,74.91l-33.084-4.789V43.582h33.084V74.91z"/>
		<path fill="#3DB39E" d="M311.517,38.421h-43.635l0.016-32.103l43.62-6.316V38.421z"/>
		<path fill="#F3B45A" d="M311.517,81.998l-43.651-6.322l0.051-32.09h43.6V81.998z"/>
		<path fill="#E2584C" d="M262.601,38.421h-33.084V11.879l33.084-4.792V38.421z"/>
	</g>
	<g>
		<path fill="#3DB39E" d="M121,25.658c-2.833,0-5.13,2.007-5.13,4.489v19.199c0,2.48,2.297,4.492,5.13,4.492
			c2.831,0,5.13-2.012,5.13-4.492V30.146C126.13,27.667,123.831,25.658,121,25.658z M159.805,6.881l4.483-4.471
			c0.555-0.552,0.555-1.442,0-1.997c-0.555-0.552-1.447-0.552-2.002,0l-5.518,5.508c-1.974-0.482-4.055-0.75-6.221-0.75
			c-2.141,0-4.204,0.265-6.155,0.734l-5.508-5.493c-0.554-0.552-1.45-0.552-2.002,0c-0.554,0.552-0.554,1.445,0,1.997l4.46,4.448
			c-7.442,2.854-12.614,9.042-12.614,16.232c0,0.087,43.63,0.005,43.63,0C172.363,15.918,167.22,9.746,159.805,6.881z
			 M144.129,17.972c-1.419,0-2.567-1.145-2.567-2.562c0-1.414,1.147-2.562,2.567-2.562s2.566,1.147,2.566,2.562
			C146.698,16.824,145.543,17.972,144.129,17.972z M156.964,17.972c-1.42,0-2.566-1.145-2.566-2.562
			c0-1.414,1.146-2.562,2.566-2.562c1.419,0,2.566,1.147,2.566,2.562C159.531,16.824,158.38,17.972,156.964,17.972z M180.037,25.658
			c-2.834,0-5.133,2.007-5.133,4.489v19.199c0,2.48,2.3,4.492,5.133,4.492c2.834,0,5.128-2.015,5.128-4.492V30.146
			C185.165,27.667,182.865,25.658,180.037,25.658z M128.73,56.376c0,4.235,3.434,7.663,7.674,7.679v13.454
			c0,2.481,2.297,4.491,5.13,4.491c2.831,0,5.127-2.01,5.127-4.491V64.055h7.71v13.454c0,2.481,2.297,4.491,5.13,4.491
			c2.831,0,5.128-2.01,5.128-4.491V64.055h0.033c4.252,0,7.699-3.439,7.699-7.679V25.65h-43.63v30.726H128.73z"/>
	</g>
	<g>
		<g>
			<path fill="#27A6D1" d="M400.517,0c-22.55,0-41,18.45-41,41s18.45,41,41,41c22.549,0,41-18.45,41-41S423.066,0,400.517,0z
				 M400.517,74.313c-18.45,0-33.313-14.863-33.313-33.313c0-18.45,14.862-33.313,33.313-33.313
				c18.45,0,33.312,14.862,33.312,33.313S418.966,74.313,400.517,74.313z"/>
			<path fill="#E2584C" d="M421.785,19.731l-15.888,26.649l-10.761-10.762L421.785,19.731z"/>
			<path fill="#E4E6E6" d="M379.249,62.269l26.649-15.888l-10.761-10.762L379.249,62.269z"/>
		</g>
	</g>
	<g>
		<g>
			<path fill="#2395BC" d="M520.467,1.202c21.242,0,38.391,17.148,38.391,38.391c0,21.243-17.148,38.39-38.391,38.39
				c-21.243,0-38.391-17.146-38.391-38.39C482.076,18.35,499.224,1.202,520.467,1.202z"/>
			<path fill="#EB8840" d="M527.121,80.03c19.451-3.327,34.295-19.963,34.295-40.438l-0.256,0.512
				c0.512-3.839,0.512-7.422-0.256-10.238c-0.256,2.304-0.512,3.583-1.023,4.095c0-0.256,0-2.56-0.768-5.63
				c-0.256-2.304-0.768-4.607-1.535-6.655c0.256,1.024,0.256,1.792,0.256,2.56c-3.072-7.934-10.238-17.916-28.41-17.66
				c0,0,6.398,0.768,9.215,5.119c0,0-3.072-0.768-5.375,0.512c2.814,1.023,5.375,2.303,7.422,3.583h0.256
				c0.512,0.256,1.023,0.768,1.535,1.023c3.84,2.815,7.422,6.654,7.166,11.517c-1.023-1.536-2.047-2.56-3.582-2.815
				c1.791,6.91,1.791,12.541,0.512,16.893c-1.023-3.072-1.791-4.607-2.561-5.375c1.025,9.213-0.256,15.868-4.35,20.219
				c0.768-2.56,1.023-4.863,1.023-6.654c-4.863,7.166-10.238,11.005-16.381,11.261c-2.303,0-4.605-0.256-6.91-1.024
				c-3.07-1.023-5.887-2.814-8.446-5.374c3.841,0.256,7.679-0.256,10.751-2.048l5.119-3.326l0,0c0.768-0.256,1.279-0.256,2.047,0
				c1.279-0.256,1.791-0.769,1.279-2.048c-0.512-0.769-1.535-1.536-2.814-2.304c-2.561-1.279-5.375-1.023-8.191,0.768
				c-2.814,1.536-5.374,1.536-7.935-0.256c-1.535-1.023-3.326-2.559-4.862-4.606l-0.512-1.023c-0.256,2.304,0,4.862,1.023,8.445l0,0
				l0,0c-1.023-3.327-1.28-6.142-1.023-8.445l0,0c0-1.792,0.768-3.071,2.304-3.071h-0.512h0.768c1.791,0.256,3.582,0.512,5.888,1.28
				c0.256-2.047,0-4.351-1.537-6.654l0,0c2.049-2.048,3.84-3.328,5.375-4.095c0.768-0.256,1.023-1.023,1.279-1.792l0,0l0,0l0,0
				c0.514-1.024,0.256-1.536-0.256-2.047c-1.535,0-2.814,0-4.35-0.256l0,0c-0.512-0.256-1.28-0.768-2.304-1.536l-2.305-2.303
				l-0.768-0.512l0,0l0,0l0,0l-0.256-0.256l0.256-0.256c0.256-1.792,0.768-3.327,1.536-4.607l0.256-0.256
				c0.768-1.279,2.304-2.559,4.352-4.095c-4.096,0.512-7.679,2.303-11.006,5.375c-2.56-0.768-5.887-0.512-9.47,1.024l-0.512,0.256
				l0,0l0.512-0.256l0,0c-2.303-1.024-3.84-4.095-4.607-9.214c-3.07,2.815-4.35,8.19-4.35,15.612l-0.768,1.28l-0.256,0.256l0,0l0,0
				l0,0c-0.513,0.768-1.024,1.792-1.793,3.071c-1.023,2.047-1.535,3.583-1.535,5.119l0,0l0,0v0.512l0,0c0,0.255,0,0.768,0,1.023
				l2.304-1.792c-0.769,2.304-1.536,4.607-1.792,6.911v1.023l-0.768-0.767c0,8.702,2.815,16.892,7.422,23.546l0.256,0.256
				l0.256,0.256c3.328,4.607,7.678,8.445,12.797,11.518c3.583,2.047,7.422,3.582,11.518,4.606l0.769,0.256
				c0.768,0.256,1.791,0.256,2.559,0.512c0.768,0,1.279,0.256,2.049,0.256h0.768h1.279h1.279h1.023h1.793
				c1.023,0,2.047-0.256,3.07-0.256C526.354,80.03,527.121,80.03,527.121,80.03z M552.971,30.123v0.256V30.123L552.971,30.123z"/>
		</g>
	</g>
	<g>
		<path fill="#CDD1D3" d="M44.5,12.462C47.585,9.159,49.672,4.573,49.101,0c-4.444,0.159-9.832,2.609-13.022,5.912
			c-2.86,2.924-5.364,7.598-4.696,12.081C36.342,18.329,41.41,15.76,44.5,12.462z M53.966,44.045
			c-0.095-10.253,8.117-15.177,8.481-15.415c-4.617-6.962-11.807-7.915-14.367-8.022c-6.123-0.643-11.938,3.708-15.046,3.708
			c-3.096,0-7.884-3.624-12.962-3.526c-6.675,0.11-12.826,3.997-16.254,10.158c-6.935,12.393-1.777,30.752,4.98,40.805
			c3.303,4.922,7.236,10.442,12.4,10.242c4.986-0.199,6.865-3.315,12.88-3.315c6.018,0,7.702,3.315,12.967,3.216
			c5.356-0.1,8.747-5.016,12.021-9.953c3.79-5.707,5.353-11.232,5.441-11.512C64.393,60.363,54.077,56.305,53.966,44.045z"/>
	</g>
	<g>
		<g>
			<g>
				<path fill="#27A6D1" d="M631.891,20.222c-3.285,3.56-4.93,7.942-5.477,12.597c9.857,0,19.443,0,29.027,0c0-0.821,0-1.369,0-2.19
					c-0.273-3.012-0.822-6.024-2.465-8.763c-2.191-3.56-5.75-5.477-9.857-6.024c-6.025-1.095-11.775,0-17.252,2.191
					c-8.217,3.012-15.063,7.941-20.539,14.514c-0.822,1.095-1.643,2.464-2.738,3.833c0-0.821,0-1.095,0.273-1.643
					c1.096-7.667,3.834-15.062,9.037-21.086c6.025-7.12,13.691-11.501,23.002-13.144c9.037-1.369,17.527,0,25.469,4.655
					c7.393,4.108,12.322,10.406,15.336,18.348c1.643,4.381,2.463,9.311,2.738,13.966c0,3.012,0,6.024,0,9.037
					c0,0.274,0,0.548,0,1.095c-17.252,0-34.23,0-51.482,0c0,4.108,1.369,7.942,4.107,10.955c3.285,3.56,7.668,5.202,12.049,6.023
					c9.857,1.369,18.895-0.273,27.385-5.203c0.273,0,0.547-0.273,0.547-0.273s0,0,0.273,0c0,0.273,0,0.548,0,0.822
					c0,5.203,0,10.405,0,15.608c0,0.548-0.273,0.821-0.82,1.095c-6.025,3.013-12.598,4.93-19.443,5.203
					c-4.381,0.274-8.764,0.274-12.871-0.547c-12.869-2.738-23.277-12.049-25.74-25.468c-2.738-15.335,4.654-29.302,19.168-35.6
					C631.617,20.222,631.617,20.222,631.891,20.222z"/>
			</g>
		</g>
	</g>
	<g>
		<path fill="#27A6D1" d="M760.518,25.593c8.49,0,15.373,6.887,15.373,15.373c0,8.494-6.883,15.373-15.373,15.373
			c-8.486,0-15.373-6.882-15.373-15.373C745.145,32.48,752.031,25.593,760.518,25.593z"/>
		<path fill="#3DB39E" d="M760.518,61.465c-10.371,0-18.922-7.707-20.283-17.709l-14.131-24.502l-0.016-0.036l-1.58,2.283
			c-0.391,0.715-0.77,1.44-1.117,2.18l-0.756,1.768c-0.252,0.61-0.5,1.228-0.723,1.857c-0.252,0.7-0.469,1.407-0.676,2.117
			l-0.457,1.632c-0.189,0.761-0.352,1.522-0.496,2.288l-0.277,1.617c-0.113,0.75-0.199,1.496-0.266,2.242l-0.135,1.786
			c-0.033,0.682-0.045,1.36-0.045,2.042s0.01,1.363,0.045,2.043l0.135,1.785c0.068,0.746,0.158,1.496,0.266,2.242l0.277,1.616
			c0.148,0.767,0.307,1.526,0.496,2.288l0.457,1.632c0.209,0.705,0.424,1.417,0.676,2.116c0.223,0.625,0.473,1.24,0.723,1.857
			c0.246,0.59,0.48,1.182,0.756,1.766c0.348,0.74,0.727,1.461,1.119,2.183l0.51,1.002l0.236,0.366
			c0.451,0.771,0.947,1.507,1.449,2.242l0.805,1.196c0.484,0.661,1.016,1.292,1.545,1.927l1.061,1.271
			c0.463,0.505,0.957,0.987,1.443,1.472c0.486,0.488,0.965,0.99,1.473,1.444l1.271,1.065c0.635,0.525,1.266,1.056,1.926,1.543
			l1.188,0.809c0.738,0.506,1.479,1.002,2.242,1.451l0.363,0.235l0.998,0.511c0.719,0.389,1.441,0.775,2.182,1.121l0.213,0.11
			l1.037,0.425c2.771,1.182,5.668,2.018,8.619,2.568l11.695-20.282C763.395,61.309,761.975,61.465,760.518,61.465z"/>
		<path fill="#EEC75E" d="M801.373,38.173l-0.055-0.676c-0.289-3.423-1.695-8.378-2.863-11.704h-24.193
			c4.137,3.749,6.752,9.147,6.752,15.173c0,6.502-3.035,12.285-7.75,16.039L758.852,82c5.068,0,11.891-0.914,16.801-2.877
			l0.166-0.054l0.262-0.11c1.674-0.694,3.328-1.455,4.939-2.388c1.443-0.831,2.793-1.763,4.098-2.736l0.074-0.06
			c1.256-0.95,2.432-1.962,3.553-3.027l0.174-0.152l0.566-0.576c2.48-2.482,4.609-5.224,6.348-8.18l0.197-0.291l0.355-0.719
			c0.559-1.016,1.076-2.053,1.547-3.108l0.605-1.422c0.4-1.002,0.748-2.017,1.068-3.044l0.422-1.322
			c0.393-1.427,0.713-2.867,0.951-4.324l0.1-0.83c0.178-1.251,0.303-2.509,0.367-3.779l0.023-1.018
			C801.488,40.717,801.463,39.444,801.373,38.173z"/>
		<path fill="#E2584C" d="M796.006,20.469c-0.859-1.486-1.82-2.872-2.83-4.209l-0.33-0.41c-0.906-1.17-1.867-2.283-2.883-3.328
			l-0.686-0.705c-1.115-1.097-2.27-2.137-3.482-3.087l-0.266-0.226c-1.352-1.04-2.766-1.975-4.223-2.831l-0.293-0.195l-1.109-0.576
			c-0.641-0.346-1.277-0.692-1.936-1.002c-0.633-0.295-1.271-0.556-1.91-0.82l-1.605-0.641c-0.777-0.279-1.561-0.515-2.348-0.756
			l-1.307-0.379c-0.855-0.22-1.719-0.395-2.58-0.561L767,0.502c-0.84-0.136-1.682-0.221-2.523-0.3l-1.381-0.141
			c-0.723-0.046-1.443-0.041-2.17-0.051L759.146,0l-1.383,0.1c-3.059,0.205-6.119,0.75-9.123,1.66l-0.623,0.169
			c-0.762,0.246-1.512,0.546-2.266,0.84l-1.445,0.571c-0.619,0.264-1.232,0.574-1.846,0.879c-0.596,0.292-1.191,0.587-1.775,0.912
			l-0.668,0.341l-0.982,0.636c-0.582,0.359-1.158,0.725-1.725,1.114c-0.553,0.387-1.1,0.782-1.633,1.187l-1.408,1.125
			c-0.582,0.487-1.148,0.981-1.699,1.494l-1.045,1.02c-0.607,0.61-1.201,1.23-1.764,1.871l-0.381,0.461l11.66,20.228
			c2.678-8.201,10.381-14.137,19.48-14.137C760.52,20.469,796.006,20.469,796.006,20.469z"/>
	</g>
</g>
</svg>
