<?xml version="1.0" encoding="utf-8"?>
<!-- Generator: Adobe Illustrator 16.0.0, SVG Export Plug-In . SVG Version: 6.00 Build 0)  -->
<!DOCTYPE svg PUBLIC "-//W3C//DTD SVG 1.1//EN" "http://www.w3.org/Graphics/SVG/1.1/DTD/svg11.dtd">
<svg version="1.1" id="Layer_1" xmlns="http://www.w3.org/2000/svg" xmlns:xlink="http://www.w3.org/1999/xlink" x="0px" y="0px"
	 viewBox="0 0 48 48" enable-background="new 0 0 48 48" xml:space="preserve">
<g>
	<g>
		<path fill="#2395BC" d="M23.971,0.702c12.436,0,22.474,10.038,22.474,22.474c0,12.434-10.038,22.472-22.474,22.472
			c-12.434,0-22.472-10.037-22.472-22.472C1.499,10.74,11.537,0.702,23.971,0.702z"/>
		<path fill="#EB8840" d="M27.866,46.846C39.252,44.897,47.94,35.16,47.94,23.175l-0.148,0.299c0.299-2.247,0.299-4.344-0.151-5.992
			c-0.149,1.349-0.3,2.097-0.599,2.397c0-0.149,0-1.499-0.449-3.296c-0.15-1.348-0.449-2.696-0.898-3.895
			c0.15,0.6,0.15,1.049,0.15,1.498C44.046,9.542,39.852,3.698,29.214,3.849c0,0,3.745,0.449,5.395,2.996c0,0-1.799-0.45-3.146,0.3
			c1.647,0.598,3.146,1.348,4.345,2.097h0.15c0.299,0.15,0.598,0.45,0.898,0.599c2.247,1.648,4.344,3.896,4.194,6.742
			c-0.6-0.899-1.198-1.499-2.097-1.647c1.048,4.045,1.048,7.34,0.3,9.889c-0.6-1.799-1.049-2.697-1.499-3.146
			c0.6,5.393-0.15,9.288-2.547,11.835c0.449-1.498,0.599-2.847,0.599-3.895c-2.847,4.195-5.992,6.441-9.589,6.592
			c-1.348,0-2.696-0.15-4.045-0.6c-1.796-0.599-3.446-1.647-4.943-3.146c2.249,0.149,4.495-0.149,6.292-1.198l2.998-1.947l0,0
			c0.449-0.15,0.748-0.15,1.197,0c0.75-0.15,1.049-0.45,0.75-1.199c-0.301-0.45-0.899-0.899-1.648-1.349
			c-1.499-0.749-3.146-0.599-4.795,0.449c-1.646,0.899-3.146,0.899-4.645-0.149c-0.898-0.598-1.946-1.498-2.847-2.695l-0.299-0.6
			c-0.15,1.349,0,2.846,0.599,4.943l0,0l0,0c-0.599-1.947-0.75-3.596-0.599-4.943l0,0c0-1.049,0.449-1.798,1.348-1.798h-0.299h0.449
			c1.049,0.15,2.097,0.3,3.446,0.749c0.15-1.198,0-2.547-0.898-3.895l0,0c1.199-1.199,2.247-1.948,3.146-2.397
			c0.449-0.15,0.599-0.599,0.749-1.049l0,0l0,0l0,0c0.301-0.6,0.149-0.899-0.15-1.198c-0.898,0-1.646,0-2.545-0.15l0,0
			c-0.301-0.149-0.75-0.449-1.351-0.899l-1.348-1.348l-0.45-0.299l0,0l0,0l0,0l-0.15-0.15l0.15-0.149
			c0.15-1.049,0.45-1.948,0.899-2.697l0.149-0.15c0.449-0.749,1.349-1.498,2.548-2.396c-2.398,0.3-4.495,1.348-6.443,3.146
			c-1.499-0.45-3.445-0.3-5.542,0.6l-0.3,0.149l0,0l0.3-0.149l0,0c-1.348-0.6-2.249-2.397-2.698-5.394
			c-1.797,1.648-2.545,4.794-2.545,9.139l-0.451,0.75l-0.149,0.149l0,0l0,0l0,0c-0.3,0.45-0.6,1.049-1.05,1.798
			c-0.598,1.198-0.898,2.097-0.898,2.997l0,0l0,0v0.3l0,0c0,0.149,0,0.449,0,0.599l1.349-1.049c-0.45,1.349-0.899,2.697-1.048,4.046
			v0.598L0,23.176c0,5.095,1.647,9.889,4.344,13.783l0.15,0.149l0.15,0.151c1.948,2.695,4.494,4.942,7.491,6.741
			c2.097,1.199,4.344,2.098,6.742,2.696l0.449,0.15c0.45,0.149,1.05,0.149,1.499,0.299c0.449,0,0.748,0.151,1.199,0.151h0.449h0.749
			h0.748h0.599h1.05c0.6,0,1.198-0.151,1.798-0.151C27.417,46.846,27.866,46.846,27.866,46.846z M42.997,17.632v0.15V17.632
			L42.997,17.632z"/>
	</g>
</g>
</svg>
