<?xml version="1.0" encoding="utf-8"?>
<!-- Generator: Adobe Illustrator 24.3.0, SVG Export Plug-In . SVG Version: 6.00 Build 0)  -->
<svg version="1.1" id="Layer_1" xmlns="http://www.w3.org/2000/svg" xmlns:xlink="http://www.w3.org/1999/xlink" x="0px" y="0px"
	 viewBox="0 0 100 32" style="enable-background:new 0 0 100 32;" xml:space="preserve">
<style type="text/css">
	.st0{fill:#EF3E42;}
</style>
<g>
	<polygon class="st0" points="19.5,0.2 14.3,0.2 6.9,17.7 12.1,17.7 	"/>
	<polygon class="st0" points="9.9,6.6 4.7,6.6 0,17.7 5.2,17.7 	"/>
	<polygon points="26.9,3.6 40.9,3.6 37.5,0.2 23.2,0.2 23.2,17.7 26.9,17.7 26.9,10 37.2,10 37.2,6.6 26.9,6.6 	"/>
	<polygon points="52.6,8.9 61.3,0.2 56.4,0.2 50.2,6.5 43.9,0.2 39,0.2 47.7,8.9 38.7,17.8 43.7,17.8 50.1,11.3 56.6,17.7 
		61.6,17.7 	"/>
	<path d="M77.2,2.3c-1.7-1.6-4.7-2.1-6.9-2.1h-7.4l-2,2v13.3l2.3,2.3h7.6c2.1,0,4.9-0.6,6.5-2c1.5-1.3,2.8-2.8,2.8-6.6
		C80,5.4,78.6,3.6,77.2,2.3 M64.8,3.6h5.4c1.3,0,3.2,0.4,4,1.2c0.8,0.8,1.7,1.8,1.7,4.3c0,2.1-0.9,3.4-1.6,4.1
		c-0.7,0.7-2.4,1.1-3.6,1.1h-5.8V3.6z"/>
	<path d="M97.2,2.3c-1.7-1.6-4.7-2.1-6.9-2.1h-7.4l-2,2v13.3l2.3,2.3h7.6c2.1,0,4.9-0.6,6.5-2c1.5-1.3,2.8-2.8,2.8-6.6
		C100,5.4,98.6,3.6,97.2,2.3 M84.8,3.6h5.4c1.3,0,3.2,0.4,4,1.2c0.8,0.8,1.7,1.8,1.7,4.3c0,2.1-0.9,3.4-1.6,4.1
		c-0.7,0.7-2.4,1.1-3.6,1.1h-5.8V3.6z"/>
	<path class="st0" d="M100,31.7v-1h-7.6v-3.2h7.2v-1h-7.2v-2.9h7.6v-1h-8.6v9.1H100z M90,31.7v-1h-6.8v-8.1h-1.1v9.1H90z M79.9,22.6
		h-1.1v9.1h1.1V22.6z M75.7,27.8c0.3,0.2,0.4,0.7,0.4,1.4c0,0.6-0.1,1-0.4,1.2c-0.3,0.2-0.8,0.3-1.7,0.3h-5.7v-3.2H74
		C74.9,27.5,75.4,27.6,75.7,27.8 M76.5,26.3c0.2-0.3,0.3-0.7,0.3-1.4c0-0.5-0.1-0.9-0.2-1.2c-0.1-0.3-0.3-0.5-0.6-0.7
		c-0.2-0.1-0.5-0.3-0.9-0.3c-0.4-0.1-1-0.1-1.7-0.1h-6.3v9.1h6c1.6,0,2.6-0.2,3.1-0.5c0.5-0.3,0.8-0.9,0.8-1.7v-1
		c0-0.6-0.1-1-0.4-1.3c-0.3-0.3-0.7-0.4-1.3-0.5C75.9,26.7,76.3,26.5,76.5,26.3 M73.1,23.6h0.3c0.7,0,1.1,0,1.4,0.1
		c0.3,0,0.5,0.1,0.6,0.2c0.1,0.1,0.2,0.2,0.3,0.4c0.1,0.2,0.1,0.4,0.1,0.8c0,0.6-0.1,0.9-0.4,1.1c-0.2,0.2-1,0.3-2.1,0.3h-5v-2.8
		H73.1z M63,23.7c0.3,0.1,0.5,0.3,0.7,0.5c0.1,0.2,0.2,0.4,0.3,0.6c0.1,0.2,0.1,0.6,0.1,1.1v2.4v0.3c0,0.5,0,0.8-0.1,1.1
		c-0.1,0.2-0.1,0.4-0.3,0.6c-0.2,0.2-0.4,0.4-0.7,0.5c-0.3,0.1-0.7,0.2-1.3,0.2h-4c-0.6,0-1-0.1-1.3-0.2c-0.3-0.1-0.5-0.3-0.7-0.5
		c-0.1-0.2-0.2-0.4-0.3-0.6c-0.1-0.2-0.1-0.6-0.1-1.2v-2.2v-0.2c0-0.5,0-0.9,0.1-1.2c0.1-0.2,0.1-0.4,0.3-0.6
		c0.2-0.2,0.4-0.4,0.7-0.5c0.3-0.1,0.7-0.2,1.3-0.2h4C62.3,23.5,62.7,23.6,63,23.7 M61.2,31.8c0.9,0,1.6,0,2.1-0.1
		c0.4-0.1,0.8-0.3,1.1-0.5c0.3-0.2,0.5-0.6,0.7-1c0.1-0.4,0.2-1,0.2-1.7v-2.5c0-0.7-0.1-1.3-0.2-1.7c-0.1-0.4-0.4-0.8-0.7-1
		c-0.3-0.2-0.6-0.4-1.1-0.5c-0.5-0.1-1.1-0.1-2.1-0.1h-2.9c-0.9,0-1.6,0-2.1,0.1c-0.5,0.1-0.8,0.3-1.1,0.5c-0.3,0.3-0.5,0.6-0.7,1.1
		c-0.1,0.4-0.2,1.1-0.2,1.8v2.5c0,0.7,0.1,1.3,0.2,1.7c0.1,0.4,0.4,0.8,0.7,1c0.3,0.2,0.6,0.4,1.1,0.5c0.4,0.1,1.1,0.1,2.1,0.1H61.2
		z M39.6,23.7l5.4,8h0.8l5.4-8v8h1.1v-9.1h-1.6l-5.3,7.9l-5.3-7.9h-1.6v9.1h1.1V23.7z"/>
</g>
</svg>
