<?xml version="1.0" encoding="utf-8"?>
<!-- Generator: Adobe Illustrator 16.0.0, SVG Export Plug-In . SVG Version: 6.00 Build 0)  -->
<!DOCTYPE svg PUBLIC "-//W3C//DTD SVG 1.1//EN" "http://www.w3.org/Graphics/SVG/1.1/DTD/svg11.dtd">
<svg version="1.1" id="Layer_1" xmlns="http://www.w3.org/2000/svg" xmlns:xlink="http://www.w3.org/1999/xlink" x="0px" y="0px"
	 viewBox="0 0 48 48" enable-background="new 0 0 48 48" xml:space="preserve">
<g>
	<g>
		<g>
			<path fill="#27A6D1" d="M18.951,11.836c-1.923,2.084-2.886,4.649-3.207,7.375c5.77,0,11.382,0,16.992,0c0-0.481,0-0.802,0-1.282
				c-0.16-1.763-0.481-3.527-1.443-5.129c-1.282-2.084-3.365-3.207-5.77-3.527c-3.528-0.641-6.894,0-10.099,1.283
				c-4.811,1.763-8.817,4.648-12.023,8.496c-0.481,0.641-0.961,1.442-1.604,2.243c0-0.48,0-0.641,0.161-0.961
				c0.642-4.488,2.244-8.817,5.291-12.343c3.526-4.167,8.014-6.732,13.464-7.694c5.289-0.802,10.259,0,14.909,2.725
				c4.326,2.405,7.213,6.092,8.977,10.74c0.962,2.564,1.441,5.451,1.604,8.175c0,1.763,0,3.527,0,5.291c0,0.16,0,0.32,0,0.641
				c-10.1,0-20.037,0-30.137,0c0,2.404,0.802,4.648,2.404,6.412c1.924,2.084,4.488,3.045,7.054,3.526
				c5.77,0.801,11.06-0.161,16.029-3.047c0.161,0,0.321-0.159,0.321-0.159s0,0,0.158,0c0,0.159,0,0.32,0,0.481
				c0,3.045,0,6.091,0,9.136c0,0.321-0.158,0.481-0.479,0.642c-3.526,1.763-7.374,2.886-11.381,3.046
				c-2.565,0.16-5.13,0.16-7.534-0.32C15.104,45.98,9.012,40.531,7.57,32.675c-1.602-8.977,2.726-17.152,11.221-20.838
				C18.791,11.836,18.791,11.836,18.951,11.836z"/>
		</g>
	</g>
</g>
</svg>
