<?xml version="1.0" encoding="utf-8"?>
<!-- Generator: Adobe Illustrator 16.0.0, SVG Export Plug-In . SVG Version: 6.00 Build 0)  -->
<!DOCTYPE svg PUBLIC "-//W3C//DTD SVG 1.1//EN" "http://www.w3.org/Graphics/SVG/1.1/DTD/svg11.dtd">
<svg version="1.1" id="Layer_1" xmlns="http://www.w3.org/2000/svg" xmlns:xlink="http://www.w3.org/1999/xlink" x="0px" y="0px"
	 viewBox="0 0 48 48" enable-background="new 0 0 48 48" xml:space="preserve">
<g>
	<path fill="#CED1D3" d="M31.016,7.295C32.822,5.361,34.043,2.677,33.709,0c-2.601,0.093-5.755,1.527-7.623,3.461
		c-1.674,1.711-3.14,4.447-2.749,7.072C26.239,10.729,29.207,9.226,31.016,7.295z M36.558,25.782
		c-0.057-6.002,4.75-8.884,4.964-9.023c-2.703-4.076-6.912-4.633-8.409-4.696c-3.586-0.376-6.989,2.17-8.809,2.17
		c-1.812,0-4.615-2.121-7.587-2.063c-3.907,0.064-7.508,2.339-9.515,5.946c-4.06,7.255-1.04,18.001,2.916,23.886
		c1.934,2.881,4.235,6.112,7.258,5.995c2.919-0.116,4.019-1.94,7.539-1.94c3.524,0,4.51,1.94,7.592,1.882
		c3.135-0.058,5.119-2.936,7.036-5.824c2.219-3.343,3.134-6.576,3.185-6.74C42.66,35.334,36.621,32.958,36.558,25.782z"/>
</g>
</svg>
