<?xml version="1.0" encoding="utf-8"?>
<!-- Generator: Adobe Illustrator 24.3.0, SVG Export Plug-In . SVG Version: 6.00 Build 0)  -->
<svg version="1.1" id="Layer_1" xmlns="http://www.w3.org/2000/svg" xmlns:xlink="http://www.w3.org/1999/xlink" x="0px" y="0px"
	 viewBox="0 0 802 82" style="enable-background:new 0 0 802 82;" xml:space="preserve">
<style type="text/css">
	.st0{fill:#3DB39E;}
	.st1{fill:#CDD1D3;}
</style>
<path class="st0" d="M121,25.7c-2.8,0-5.1,2-5.1,4.5v19.2c0,2.5,2.3,4.5,5.1,4.5c2.8,0,5.1-2,5.1-4.5V30.1
	C126.1,27.7,123.8,25.7,121,25.7z M159.8,6.9l4.5-4.5c0.6-0.6,0.6-1.4,0-2c-0.6-0.6-1.4-0.6-2,0l-5.5,5.5c-2-0.5-4.1-0.8-6.2-0.8
	c-2.1,0-4.2,0.3-6.2,0.7l-5.5-5.5c-0.6-0.6-1.4-0.6-2,0c-0.6,0.6-0.6,1.4,0,2l4.5,4.4c-7.4,2.9-12.6,9-12.6,16.2
	c0,0.1,43.6,0,43.6,0C172.4,15.9,167.2,9.7,159.8,6.9z M144.1,18c-1.4,0-2.6-1.1-2.6-2.6c0-1.4,1.1-2.6,2.6-2.6s2.6,1.1,2.6,2.6
	C146.7,16.8,145.5,18,144.1,18z M157,18c-1.4,0-2.6-1.1-2.6-2.6c0-1.4,1.1-2.6,2.6-2.6c1.4,0,2.6,1.1,2.6,2.6
	C159.5,16.8,158.4,18,157,18z M180,25.7c-2.8,0-5.1,2-5.1,4.5v19.2c0,2.5,2.3,4.5,5.1,4.5c2.8,0,5.1-2,5.1-4.5V30.1
	C185.2,27.7,182.9,25.7,180,25.7z M128.7,56.4c0,4.2,3.4,7.7,7.7,7.7v13.5c0,2.5,2.3,4.5,5.1,4.5c2.8,0,5.1-2,5.1-4.5V64.1h7.7v13.5
	c0,2.5,2.3,4.5,5.1,4.5c2.8,0,5.1-2,5.1-4.5V64.1h0c4.3,0,7.7-3.4,7.7-7.7V25.6h-43.6L128.7,56.4L128.7,56.4z"/>
<path class="st1" d="M44.5,12.5c3.1-3.3,5.2-7.9,4.6-12.5c-4.4,0.2-9.8,2.6-13,5.9c-2.9,2.9-5.4,7.6-4.7,12.1
	C36.3,18.3,41.4,15.8,44.5,12.5z M54,44c-0.1-10.3,8.1-15.2,8.5-15.4c-4.6-7-11.8-7.9-14.4-8C42,20,36.1,24.3,33,24.3
	c-3.1,0-7.9-3.6-13-3.5c-6.7,0.1-12.8,4-16.3,10.2c-6.9,12.4-1.8,30.8,5,40.8C12.1,76.7,16,82.2,21.2,82c5-0.2,6.9-3.3,12.9-3.3
	c6,0,7.7,3.3,13,3.2c5.4-0.1,8.7-5,12-10c3.8-5.7,5.4-11.2,5.4-11.5C64.4,60.4,54.1,56.3,54,44z"/>
</svg>
