<?xml version="1.0" encoding="utf-8"?>
<!-- Generator: Adobe Illustrator 16.0.0, SVG Export Plug-In . SVG Version: 6.00 Build 0)  -->
<!DOCTYPE svg PUBLIC "-//W3C//DTD SVG 1.1//EN" "http://www.w3.org/Graphics/SVG/1.1/DTD/svg11.dtd">
<svg version="1.1" id="Layer_1" xmlns="http://www.w3.org/2000/svg" xmlns:xlink="http://www.w3.org/1999/xlink" x="0px" y="0px"
	 viewBox="0 0 434 82" enable-background="new 0 0 434 82" xml:space="preserve">
<g>
	<g>
		<g>
			<path fill="#686868" d="M44.417,59.982l-1.969-28.099c-0.227-3.332-0.378-5.982-0.378-8.785c-0.606,3.029-1.06,4.923-1.969,8.103
				L31.77,59.98h-9.012L15.26,32.339c-0.682-2.575-1.59-6.286-2.12-9.315c0,3.105-0.152,6.21-0.379,9.466l-1.818,27.49H0.416
				L5.339,7.349h13.556l6.892,26.355c0.984,3.787,1.363,5.604,1.817,8.332c0.454-2.728,1.06-5.454,1.894-8.559l7.119-26.128h13.48
				l4.695,52.633H44.417L44.417,59.982z"/>
			<path fill="#686868" d="M72.59,43.775v0.304c0,5.981,2.954,9.392,8.18,9.392c3.483,0,6.74-1.289,9.844-3.863l3.939,6.061
				c-4.469,3.637-9.164,5.377-14.617,5.377c-11.134,0-18.328-7.876-18.328-20.069c0-6.967,1.44-11.586,4.847-15.373
				c3.181-3.56,7.043-5.226,12.194-5.226c4.467,0,8.709,1.515,11.208,4.09c3.56,3.635,5.15,8.861,5.15,16.964v2.346H72.59V43.775z
				 M84.481,35.9c0-2.877-0.303-4.393-1.212-5.832c-0.985-1.514-2.423-2.272-4.468-2.272c-3.862,0-6.058,3.029-6.058,8.406v0.152
				h11.738V35.9z"/>
			<path fill="#686868" d="M113.337,60.893c-5.15,0-9.239-2.271-10.452-5.681c-0.605-1.667-0.68-2.423-0.68-5.983V28.175h-3.863
				v-6.967h3.863c0-3.787,0-6.286,0.378-9.164l10.299-2.575c-0.378,3.559-0.605,7.801-0.605,11.739h9.089l-2.576,6.967h-6.513
				v19.464c0,4.922,0.909,6.209,4.392,6.209c0.91,0,1.817-0.228,3.635-0.757l1.288,6.058
				C118.639,60.361,115.987,60.893,113.337,60.893z"/>
			<path fill="#686868" d="M154.309,61.952c-2.349-0.985-4.469-2.728-5.452-4.695c-0.758,0.757-1.591,1.515-2.349,2.045
				c-1.893,1.363-4.62,2.12-7.8,2.12c-8.633,0-13.329-4.393-13.329-12.117c0-9.088,6.285-13.329,18.63-13.329
				c0.757,0,1.439,0,2.271,0.075v-1.59c0-4.317-0.832-5.755-4.544-5.755c-3.257,0-7.043,1.59-11.208,4.392l-4.317-7.271
				c2.044-1.287,3.559-2.044,6.286-3.18c3.787-1.591,7.042-2.272,10.602-2.272c6.514,0,10.981,2.423,12.497,6.74
				c0.53,1.591,0.757,2.803,0.68,6.968l-0.227,13.026c-0.077,4.24,0.227,6.059,3.635,8.634L154.309,61.952z M145.675,43.02
				c-7.042,0-9.466,1.287-9.466,5.906c0,3.029,1.894,5.074,4.467,5.074c1.894,0,3.787-0.984,5.302-2.65l0.152-8.33H145.675
				L145.675,43.02z"/>
			<path fill="#686868" d="M198.462,16.133H185.89v43.85h-10.754v-43.85h-12.874V7.349h37.941L198.462,16.133z"/>
			<path fill="#686868" d="M223.305,30.068c-0.984-0.53-1.818-0.757-2.953-0.757c-2.272,0-4.316,1.06-6.209,3.256v27.416h-10.149
				V34.083c0-5.226-0.604-9.164-1.438-11.36l9.088-2.423c0.909,1.591,1.439,3.333,1.59,5.528c2.196-2.954,5.302-5.528,9.087-5.528
				c1.517,0,2.195,0.151,3.787,0.833L223.305,30.068z"/>
			<path fill="#686868" d="M256.549,61.952c-2.347-0.985-4.467-2.728-5.451-4.695c-0.759,0.757-1.591,1.515-2.349,2.045
				c-1.894,1.363-4.62,2.12-7.801,2.12c-8.634,0-13.327-4.393-13.327-12.117c0-9.088,6.283-13.329,18.629-13.329
				c0.759,0,1.438,0,2.271,0.075v-1.59c0-4.317-0.834-5.755-4.543-5.755c-3.258,0-7.045,1.59-11.209,4.392l-4.316-7.271
				c2.045-1.287,3.559-2.044,6.285-3.18c3.787-1.591,7.044-2.272,10.604-2.272c6.514,0,10.98,2.423,12.495,6.74
				c0.53,1.591,0.759,2.803,0.683,6.968l-0.228,13.026c-0.076,4.24,0.228,6.059,3.634,8.634L256.549,61.952z M247.916,43.02
				c-7.043,0-9.466,1.287-9.466,5.906c0,3.029,1.893,5.074,4.468,5.074c1.895,0,3.787-0.984,5.301-2.65l0.151-8.33H247.916
				L247.916,43.02z"/>
			<path fill="#686868" d="M292.372,59.982c-0.302-0.605-0.453-1.211-0.604-2.271c-2.5,2.195-5.453,3.255-8.938,3.255
				c-9.846,0-16.055-7.647-16.055-19.69c0-12.117,6.738-20.447,16.584-20.447c2.804,0,4.998,0.681,6.893,2.196
				c-0.15-0.833-0.304-3.483-0.304-5.755V3.941l10.073,1.59V45.82c0,9.543,0.758,12.646,1.438,14.162H292.372z M290.102,31.432
				c-1.895-1.666-3.711-2.499-5.528-2.499c-4.544,0-6.513,3.787-6.513,12.42c0,8.331,1.742,11.057,7.041,11.057
				c1.896,0,4.017-1.289,5-2.499V31.432z"/>
			<path fill="#686868" d="M319.335,43.775v0.304c0,5.981,2.953,9.392,8.179,9.392c3.483,0,6.74-1.289,9.847-3.863l3.938,6.061
				c-4.468,3.637-9.163,5.377-14.617,5.377c-11.132,0-18.325-7.876-18.325-20.069c0-6.967,1.438-11.586,4.848-15.373
				c3.181-3.56,7.043-5.226,12.192-5.226c4.468,0,8.707,1.515,11.207,4.09c3.561,3.635,5.149,8.861,5.149,16.964v2.346h-22.416
				L319.335,43.775L319.335,43.775z M331.225,35.9c0-2.877-0.303-4.393-1.211-5.832c-0.983-1.514-2.424-2.272-4.469-2.272
				c-3.863,0-6.059,3.029-6.059,8.406v0.152h11.737L331.225,35.9L331.225,35.9z"/>
			<path fill="#686868" d="M368.258,30.068c-0.983-0.53-1.815-0.757-2.953-0.757c-2.271,0-4.315,1.06-6.209,3.256v27.416h-10.146
				V34.083c0-5.226-0.606-9.164-1.44-11.36l9.09-2.423c0.907,1.591,1.438,3.333,1.591,5.528c2.195-2.954,5.301-5.528,9.088-5.528
				c1.515,0,2.194,0.151,3.787,0.833L368.258,30.068z"/>
		</g>
	</g>
	<g>
		<path fill="#F28B27" d="M393.438,81.627c-3.703,0-5.092-0.117-8.795-0.811l-3.359-11.457c4.4,1.158,7.523,1.621,10.877,1.621
			c12.27,0,20.947-6.945,20.947-16.895c0-7.406-5.094-12.268-12.613-12.268c-4.744,0-9.488,0.922-16.893,3.24l3.703-43.973h39.459
			l-2.316,13.19h-22.68l-1.621,16.084c2.432-0.462,3.354-0.575,5.441-0.575c14.346,0,24.301,9.254,24.301,22.45
			C429.889,69.359,414.727,81.627,393.438,81.627z"/>
	</g>
</g>
</svg>
