<?xml version="1.0" encoding="utf-8"?>
<!-- Generator: Adobe Illustrator 16.0.0, SVG Export Plug-In . SVG Version: 6.00 Build 0)  -->
<!DOCTYPE svg PUBLIC "-//W3C//DTD SVG 1.1//EN" "http://www.w3.org/Graphics/SVG/1.1/DTD/svg11.dtd">
<svg version="1.1" id="Layer_1" xmlns="http://www.w3.org/2000/svg" xmlns:xlink="http://www.w3.org/1999/xlink" x="0px" y="0px"
	 width="400px" height="68px" viewBox="40 16 400 68" enable-background="new 40 16 400 68" xml:space="preserve">
<g>
	<path fill="#8FC641" d="M392.8,45c-2,1.601-5.2,2.4-9.6,2.4h-2h-2.4L382,29.8h2h1.6c3.602,0,6,0.4,8,1.601c1.2,0.8,3.2,2.8,3.2,6
		C396.4,41.4,394.4,43.8,392.8,45 M140.8,67H108l2-11.6h20.4l2.4-12.8h-20.4l2-11.2h32.8L140.8,67z M410.4,21.4
		c-4.802-3.2-12-4.8-21.602-4.8H364L354.8,67H322l2-11.6h19.6l2.4-12.8h-19.6l2-11.2H348.8l2.8-14.8H310l-8.8,48H286l8.8-48h-21.6
		l-8.8,48H249.6l8.801-48H236.8L228,67h-32.8l2-11.6h20l2.4-12.8H200L202,31h20.4l2.8-14.8H96.4l-7.2,40l-14.4-40H52L40,81.4h21.2
		l7.2-41.2l14,41.2h76.4L168,31h12l-9.2,50.4H372l6-32l9.6,32h21.2l-9.6-26l2.398-0.4c4.802-1.2,8.802-3.2,11.602-6.8s4-8,4-13.2
		C417.2,29,415.2,24.601,410.4,21.4"/>
	<path fill="#8FC641" d="M428,73.8h2.8c0.8,0,1.2,0,1.602-0.398c0.398,0,0.398-0.4,0.8-0.801c0-0.399,0.398-0.801,0.398-0.801
		c0-0.398-0.398-0.8-0.398-1.199c-0.4-0.399-0.8-0.399-1.602-0.399H428.4L428,73.8z M426.8,79.8L426.4,69.4l4.398-0.4
		c0.8,0,1.602,0,2,0c0.4,0,0.8,0.4,1.2,0.8c0.4,0.4,0.4,0.801,0.4,1.602c0,0.8,0,1.199-0.802,2c-0.398,0.398-1.198,0.8-2,1.199
		c0.4,0,0.802,0.399,0.802,0.399c0.398,0.4,0.8,0.8,1.198,1.2l2,2.8H434l-1.6-2c-0.4-0.399-0.802-1.2-1.2-1.2
		c-0.4-0.398-0.4-0.398-0.8-0.8c-0.4,0-0.4-0.399-0.802-0.399c0,0-0.398,0-0.8,0h-1.6L427.598,79L426.8,79.8z"/>
	<path fill="#8FC641" d="M422.4,74.601c0-2,0.8-4,2-5.602c1.6-1.6,3.198-2.398,5.6-2.8c4.4-0.399,8,3.2,8.4,7.601v0.399
		c0,4.399-3.2,7.601-7.602,8C426.4,82.601,422.8,79,422.4,74.601 M430,64.601c-2.4,0-4.8,1.199-6.8,3.199
		c-1.602,2-2.4,4.399-2.4,6.801c0.4,5.199,4.8,9.199,10,9.199c5.2-0.399,9.2-4.801,9.2-10l0,0C439.6,68.601,435.2,64.601,430,64.601
		"/>
</g>
</svg>
