<?xml version="1.0" encoding="utf-8"?>
<!-- Generator: Adobe Illustrator 16.0.0, SVG Export Plug-In . SVG Version: 6.00 Build 0)  -->
<!DOCTYPE svg PUBLIC "-//W3C//DTD SVG 1.1//EN" "http://www.w3.org/Graphics/SVG/1.1/DTD/svg11.dtd">
<svg version="1.1" id="Layer_1" xmlns="http://www.w3.org/2000/svg" xmlns:xlink="http://www.w3.org/1999/xlink" x="0px" y="0px"
	 viewBox="0 0 48 48" enable-background="new 0 0 48 48" xml:space="preserve">
<g>
	<g>
		<path fill="#27A6D1" d="M24.001,0C10.8,0,0,10.8,0,24s10.8,24,24.001,24C37.2,48,48,37.2,48,24S37.2,0,24.001,0z M24.001,43.5
			C13.2,43.5,4.5,34.8,4.5,24c0-10.8,8.7-19.5,19.501-19.5C34.8,4.5,43.499,13.199,43.499,24S34.8,43.5,24.001,43.5z"/>
		<path fill="#E2584C" d="M36.45,11.55l-9.301,15.6l-6.299-6.3L36.45,11.55z"/>
		<path fill="#E4E6E6" d="M11.551,36.449l15.599-9.3l-6.299-6.299L11.551,36.449z"/>
	</g>
</g>
</svg>
