<?xml version="1.0" encoding="utf-8"?>
<!-- Generator: Adobe Illustrator 25.2.1, SVG Export Plug-In . SVG Version: 6.00 Build 0)  -->
<svg version="1.1" id="Layer_1" xmlns="http://www.w3.org/2000/svg" xmlns:xlink="http://www.w3.org/1999/xlink" x="0px" y="0px"
	 viewBox="0 0 229.1 65" style="enable-background:new 0 0 229.1 65;" xml:space="preserve">
<style type="text/css">
	.st0{fill:#F15E27;}
	.st1{fill:#221F1F;}
</style>
<path class="st0" d="M52.8,26.4v16.2L34.5,25.4v32.1L26.4,65V0L52.8,26.4z"/>
<path class="st1" d="M0,26.4v16.2l18.2-17.2v32.1l8.2,7.5V0L0,26.4z"/>
<path class="st1" d="M71.9,42.7v-12l-5,12h-1.2l-5-12v12h-2.8V26.5h4l4.4,10.7l4.4-10.7h4v16.2H71.9z"/>
<path class="st1" d="M78.2,42.8V29h2.4v13.8H78.2z"/>
<path class="st1" d="M91.4,42.8l-3.1-5.1H86v5.1h-2.4V29h6.1c2.7,0,4.5,1.8,4.5,4.3c0,2.5-1.6,3.8-3.3,4.1l3.4,5.4H91.4z M91.6,33.3
	c0-1.3-1-2.2-2.4-2.2H86v4.4h3.3C90.6,35.5,91.6,34.6,91.6,33.3z"/>
<path class="st1" d="M104.4,42.8l-3.1-5.1H99v5.1h-2.4V29h6.1c2.7,0,4.5,1.8,4.5,4.3c0,2.5-1.6,3.8-3.3,4.1l3.4,5.4H104.4z
	 M104.6,33.3c0-1.3-1-2.2-2.4-2.2H99v4.4h3.3C103.6,35.5,104.6,34.6,104.6,33.3z"/>
<path class="st1" d="M108.9,35.9c0-4.1,2.9-7.1,7.1-7.1c4.1,0,7.1,3,7.1,7.1S120.1,43,116,43C111.8,43,108.9,40,108.9,35.9z
	 M120.5,35.9c0-2.9-1.8-5-4.6-5c-2.8,0-4.6,2.1-4.6,5c0,2.8,1.8,5,4.6,5C118.7,40.9,120.5,38.7,120.5,35.9z"/>
<path class="st1" d="M133.2,42.8l-3.1-5.1h-2.4v5.1h-2.4V29h6.1c2.7,0,4.5,1.8,4.5,4.3c0,2.5-1.6,3.8-3.3,4.1l3.4,5.4H133.2z
	 M133.4,33.3c0-1.3-1-2.2-2.4-2.2h-3.3v4.4h3.3C132.4,35.5,133.4,34.6,133.4,33.3z"/>
<path class="st1" d="M146.9,42.8V31.1h-4.2V29h10.8v2.1h-4.2v11.7H146.9z"/>
<path class="st1" d="M163.5,42.8l-3.1-5.1H158v5.1h-2.4V29h6.1c2.7,0,4.5,1.8,4.5,4.3c0,2.5-1.6,3.8-3.3,4.1l3.4,5.4H163.5z
	 M163.7,33.3c0-1.3-1-2.2-2.4-2.2H158v4.4h3.3C162.7,35.5,163.7,34.6,163.7,33.3z"/>
<path class="st1" d="M178.2,42.8l-1-2.6h-6.3l-1,2.6h-2.8l5.4-13.8h3l5.4,13.8H178.2z M174.1,31.4l-2.5,6.6h5L174.1,31.4z"/>
<path class="st1" d="M182.5,42.8V29h5.1c4.3,0,7.2,2.9,7.2,6.9c0,4.1-2.9,6.9-7.2,6.9H182.5z M192.4,35.9c0-2.7-1.7-4.8-4.7-4.8
	h-2.7v9.5h2.7C190.6,40.6,192.4,38.5,192.4,35.9z"/>
<path class="st1" d="M197.2,42.8V29h9.4v2.1h-7v3.6h6.9v2.1h-6.9v3.8h7v2.1H197.2z"/>
<path class="st1" d="M217,42.8l-3.1-5.1h-2.4v5.1h-2.4V29h6.1c2.7,0,4.5,1.8,4.5,4.3c0,2.5-1.6,3.8-3.3,4.1l3.4,5.4H217z
	 M217.2,33.3c0-1.3-1-2.2-2.4-2.2h-3.3v4.4h3.3C216.2,35.5,217.2,34.6,217.2,33.3z"/>
</svg>
