<?xml version="1.0" encoding="utf-8"?>
<!-- Generator: Adobe Illustrator 16.0.0, SVG Export Plug-In . SVG Version: 6.00 Build 0)  -->
<!DOCTYPE svg PUBLIC "-//W3C//DTD SVG 1.1//EN" "http://www.w3.org/Graphics/SVG/1.1/DTD/svg11.dtd">
<svg version="1.1" id="Layer_1" xmlns="http://www.w3.org/2000/svg" xmlns:xlink="http://www.w3.org/1999/xlink" x="0px" y="0px"
	 width="340px" height="300px" viewBox="160 15 340 300" enable-background="new 160 15 340 300" xml:space="preserve">
<g>
	<rect x="193.155" y="114.821" fill="#707487" width="232.905" height="141.769"/>
	<g>
		<path fill="#AFB9D2" d="M446.313,266.718h-273.41c-2.796,0-5.063-2.267-5.063-5.063v-5.063c0-2.797,2.268-5.064,5.063-5.064
			h273.41c2.796,0,5.063,2.268,5.063,5.064v5.063C451.376,264.451,449.108,266.718,446.313,266.718z"/>
		<path fill="#AFB9D2" d="M446.313,119.886h-273.41c-2.796,0-5.063-2.267-5.063-5.063v-5.063c0-2.796,2.268-5.063,5.063-5.063
			h273.41c2.796,0,5.063,2.267,5.063,5.063v5.063C451.376,117.62,449.108,119.886,446.313,119.886z"/>
	</g>
	<g>
		<path fill="#C7CFE2" d="M451.376,276.844H167.839c-2.796,0-5.063-2.267-5.063-5.063v-5.063c0-2.797,2.268-5.063,5.063-5.063
			h283.537c2.796,0,5.063,2.267,5.063,5.063v5.063C456.438,274.578,454.172,276.844,451.376,276.844z"/>
		<path fill="#C7CFE2" d="M451.376,109.761H167.839c-2.796,0-5.063-2.268-5.063-5.063V97.56c0-1.844,1.003-3.542,2.617-4.434
			L304.716,16.26c3.045-1.68,6.737-1.68,9.782,0l139.323,76.868c1.614,0.891,2.616,2.589,2.616,4.433v7.137
			C456.438,107.493,454.172,109.761,451.376,109.761z"/>
	</g>
	<path fill="#8F96AC" d="M198.218,130.013h-20.252c-2.796,0-5.063-2.267-5.063-5.063v-5.063h30.379v5.063
		C203.281,127.746,201.014,130.013,198.218,130.013z"/>
	<rect x="177.966" y="130.011" fill="#AFB9D2" width="20.252" height="121.515"/>
	<g>
		<path fill="#8F96AC" d="M177.966,241.402h20.252c2.796,0,5.063,2.267,5.063,5.063v5.063h-30.379v-5.063
			C172.902,243.669,175.17,241.402,177.966,241.402z"/>
		<path fill="#8F96AC" d="M319.733,130.013H299.48c-2.796,0-5.063-2.267-5.063-5.063v-5.063h30.38v5.063
			C324.797,127.746,322.53,130.013,319.733,130.013z"/>
	</g>
	<rect x="299.48" y="130.011" fill="#AFB9D2" width="20.253" height="121.515"/>
	<g>
		<path fill="#8F96AC" d="M299.48,241.402h20.253c2.797,0,5.063,2.267,5.063,5.063v5.063h-30.38v-5.063
			C294.417,243.669,296.685,241.402,299.48,241.402z"/>
		<path fill="#8F96AC" d="M279.229,130.013h-20.253c-2.796,0-5.063-2.267-5.063-5.063v-5.063h30.379v5.063
			C284.291,127.746,282.024,130.013,279.229,130.013z"/>
	</g>
	<rect x="258.976" y="130.011" fill="#AFB9D2" width="20.253" height="121.515"/>
	<g>
		<path fill="#8F96AC" d="M258.976,241.402h20.253c2.796,0,5.063,2.267,5.063,5.063v5.063h-30.379v-5.063
			C253.913,243.669,256.18,241.402,258.976,241.402z"/>
		<path fill="#8F96AC" d="M238.723,130.013h-20.252c-2.796,0-5.063-2.267-5.063-5.063v-5.063h30.379v5.063
			C243.786,127.746,241.52,130.013,238.723,130.013z"/>
	</g>
	<rect x="218.47" y="130.011" fill="#AFB9D2" width="20.253" height="121.515"/>
	<g>
		<path fill="#8F96AC" d="M218.47,241.402h20.253c2.796,0,5.063,2.267,5.063,5.063v5.063h-30.379v-5.063
			C213.407,243.669,215.674,241.402,218.47,241.402z"/>
		<path fill="#8F96AC" d="M360.239,130.013h-20.252c-2.797,0-5.064-2.267-5.064-5.063v-5.063h30.379v5.063
			C365.302,127.746,363.035,130.013,360.239,130.013z"/>
	</g>
	<rect x="339.987" y="130.011" fill="#AFB9D2" width="20.252" height="121.515"/>
	<g>
		<path fill="#8F96AC" d="M339.987,241.402h20.252c2.796,0,5.063,2.267,5.063,5.063v5.063h-30.379v-5.063
			C334.923,243.669,337.19,241.402,339.987,241.402z"/>
		<path fill="#8F96AC" d="M441.249,130.013h-20.252c-2.797,0-5.063-2.267-5.063-5.063v-5.063h30.379v5.063
			C446.313,127.746,444.046,130.013,441.249,130.013z"/>
	</g>
	<rect x="420.997" y="130.011" fill="#AFB9D2" width="20.252" height="121.515"/>
	<g>
		<path fill="#8F96AC" d="M420.997,241.402h20.252c2.797,0,5.063,2.267,5.063,5.063v5.063h-30.379v-5.063
			C415.934,243.669,418.2,241.402,420.997,241.402z"/>
		<path fill="#8F96AC" d="M400.744,130.013h-20.253c-2.795,0-5.063-2.267-5.063-5.063v-5.063h30.379v5.063
			C405.808,127.746,403.541,130.013,400.744,130.013z"/>
	</g>
	<rect x="380.491" y="130.011" fill="#AFB9D2" width="20.252" height="121.515"/>
	<path fill="#8F96AC" d="M380.491,241.402h20.252c2.797,0,5.064,2.267,5.064,5.063v5.063h-30.38v-5.063
		C375.429,243.669,377.695,241.402,380.491,241.402z"/>
	<path fill="#AFB9D2" d="M309.607,30.909l115.387,63.662H194.22L309.607,30.909"/>
	<g>
		<path fill="#8F96AC" d="M350.113,84.444h-81.012c-2.796,0-5.063-2.267-5.063-5.063l0,0c0-2.796,2.268-5.063,5.063-5.063h81.011
			c2.795,0,5.063,2.267,5.063,5.063l0,0C355.176,82.178,352.909,84.444,350.113,84.444z"/>
		<path fill="#8F96AC" d="M324.797,69.255h-30.38c-2.796,0-5.063-2.267-5.063-5.063l0,0c0-2.796,2.268-5.063,5.063-5.063h30.38
			c2.796,0,5.063,2.267,5.063,5.063l0,0C329.859,66.988,327.593,69.255,324.797,69.255z"/>
	</g>
	<g>
		<circle fill="#1565C0" cx="413.338" cy="231.111" r="80.195"/>
		<path fill="#D5D6DB" d="M497.225,231.109c0-20.755-7.607-40.352-21.356-55.746l0.145-0.146l-2.971-3.007
			c-0.008-0.008-0.013-0.017-0.02-0.024l-3.07-3.107l-0.151,0.153c-15.494-14.173-35.344-22.017-56.468-22.017
			c-21.122,0-40.971,7.842-56.466,22.017l-0.15-0.153l-3.071,3.107c-0.007,0.008-0.013,0.017-0.02,0.022l-2.97,3.007l0.144,0.147
			c-13.75,15.396-21.359,34.992-21.359,55.745c0,21.404,8.126,40.897,21.367,55.734l-0.151,0.154l2.992,3.03
			c0.104,0.104,0.217,0.191,0.321,0.294c0.472,0.475,0.992,0.895,1.478,1.358c13.411,12.834,30.283,20.745,48.51,22.763
			c0.285,0.031,0.558,0.097,0.844,0.125c2.816,0.283,5.662,0.433,8.532,0.433s5.715-0.149,8.531-0.433
			c0.285-0.028,0.559-0.093,0.842-0.125c18.317-2.027,35.271-10,48.714-22.946c0.413-0.396,0.862-0.757,1.268-1.163
			c0.106-0.106,0.225-0.198,0.331-0.306l2.994-3.03l-0.153-0.154C489.1,272.006,497.225,252.513,497.225,231.109z M462.12,288.313
			c-0.648,0.558-1.309,1.097-1.975,1.631c-1.252,0.996-2.532,1.959-3.846,2.877c-0.58,0.406-1.164,0.806-1.754,1.195
			c-1.453,0.955-2.942,1.858-4.464,2.715c-0.525,0.296-1.051,0.594-1.583,0.877c-1.604,0.852-3.247,1.634-4.917,2.371
			c-0.522,0.23-1.039,0.47-1.565,0.688c-1.682,0.695-3.404,1.312-5.145,1.886c-0.571,0.188-1.134,0.395-1.71,0.569
			c-0.876,0.265-1.784,0.454-2.673,0.688c5.492-6.961,10.063-16.861,13.332-28.812c6.412,3.079,12.414,7.061,17.818,11.933
			C463.132,287.392,462.642,287.87,462.12,288.313z M389.779,302.548c-1.73-0.573-3.443-1.185-5.117-1.878
			c-0.536-0.221-1.063-0.466-1.595-0.699c-1.658-0.732-3.29-1.511-4.883-2.355c-0.545-0.29-1.082-0.594-1.62-0.899
			c-1.508-0.848-2.984-1.744-4.426-2.69c-0.603-0.396-1.198-0.805-1.79-1.219c-1.299-0.908-2.566-1.86-3.805-2.847
			c-0.681-0.544-1.354-1.096-2.018-1.664c-0.515-0.44-0.997-0.91-1.498-1.361c5.403-4.874,11.407-8.856,17.819-11.935
			c3.268,11.95,7.838,21.851,13.33,28.812c-0.887-0.234-1.793-0.423-2.665-0.688C390.93,302.948,390.358,302.737,389.779,302.548z
			 M358.518,182.718c0.909,0.791,1.831,1.559,2.769,2.305c1.175,0.936,2.373,1.829,3.59,2.696c0.973,0.693,1.952,1.378,2.949,2.027
			c1.252,0.812,2.527,1.571,3.817,2.313c1.021,0.591,2.042,1.181,3.087,1.726c1.329,0.692,2.688,1.318,4.051,1.936
			c0.011,0.007,0.021,0.01,0.03,0.016c-1.951,9.481-3.118,19.948-3.363,31.061h-37.187c0.954-16.874,7.41-32.75,18.62-45.438
			C357.408,181.838,357.98,182.251,358.518,182.718z M465.385,185.021c0.937-0.746,1.857-1.512,2.768-2.303
			c0.537-0.467,1.109-0.88,1.636-1.36c11.209,12.686,17.664,28.563,18.618,45.438h-37.185c-0.245-11.112-1.412-21.578-3.363-31.06
			c0.008-0.003,0.015-0.008,0.021-0.011c1.368-0.62,2.731-1.248,4.064-1.944c1.042-0.541,2.059-1.129,3.078-1.717
			c1.292-0.745,2.57-1.506,3.825-2.321c0.997-0.646,1.971-1.327,2.942-2.02C463.008,186.854,464.208,185.958,465.385,185.021z
			 M437.541,190.551c-0.951,0.323-1.894,0.668-2.858,0.952c-1.378,0.405-2.782,0.729-4.187,1.056c-0.92,0.215-1.83,0.464-2.76,0.644
			c-1.568,0.304-3.162,0.506-4.756,0.709c-0.794,0.102-1.575,0.251-2.374,0.327c-0.979,0.094-1.975,0.09-2.961,0.146v-37.503
			c7.705,3.388,15.334,15.533,20.114,33.591C437.687,190.496,437.614,190.526,437.541,190.551z M409.021,194.384
			c-0.986-0.056-1.983-0.052-2.962-0.146c-0.802-0.076-1.585-0.226-2.381-0.328c-1.59-0.202-3.182-0.406-4.747-0.708
			c-0.935-0.181-1.847-0.431-2.771-0.646c-1.399-0.325-2.799-0.647-4.174-1.052c-0.969-0.286-1.915-0.632-2.87-0.957
			c-0.071-0.024-0.141-0.051-0.209-0.075c4.779-18.058,12.408-30.203,20.113-33.591V194.384L409.021,194.384z M389.476,199.757
			c1.534,0.454,3.099,0.812,4.661,1.177c1.034,0.241,2.054,0.525,3.1,0.729c1.749,0.338,3.524,0.562,5.302,0.789
			c0.892,0.114,1.768,0.285,2.664,0.371c1.263,0.12,2.546,0.135,3.819,0.2v23.773H384.07c0.234-10.121,1.258-19.483,2.893-27.862
			C387.801,199.211,388.629,199.507,389.476,199.757z M409.021,235.42v23.789c-7.594,0.384-14.994,1.739-22.058,4.075
			c-1.636-8.381-2.659-17.74-2.894-27.864H409.021L409.021,235.42z M409.021,267.818v37.519
			c-7.706-3.389-15.335-15.536-20.116-33.598C395.34,269.534,402.085,268.21,409.021,267.818z M417.646,267.818
			c6.937,0.392,13.683,1.716,20.116,3.921c-4.78,18.063-12.41,30.21-20.116,33.598V267.818z M417.646,259.209V235.42H442.6
			c-0.234,10.124-1.258,19.483-2.895,27.864C432.64,260.948,425.239,259.593,417.646,259.209z M417.646,226.795v-23.772
			c1.274-0.065,2.557-0.081,3.819-0.202c0.894-0.086,1.768-0.255,2.655-0.369c1.78-0.228,3.561-0.451,5.313-0.791
			c1.041-0.202,2.056-0.485,3.085-0.725c1.568-0.367,3.139-0.725,4.679-1.181c0.846-0.249,1.672-0.547,2.508-0.822
			c1.637,8.379,2.66,17.74,2.896,27.861L417.646,226.795L417.646,226.795z M462.425,176.284c-0.826,0.714-1.669,1.402-2.521,2.077
			c-1.044,0.828-2.105,1.627-3.186,2.396c-0.878,0.622-1.763,1.23-2.663,1.813c-1.116,0.723-2.255,1.404-3.404,2.064
			c-0.917,0.527-1.836,1.05-2.772,1.537c-0.681,0.353-1.383,0.66-2.073,0.992c-3.279-11.97-7.863-21.879-13.372-28.832
			c11.522,3.007,22.194,8.692,31.213,16.828C463.238,175.531,462.842,175.923,462.425,176.284z M380.864,187.164
			c-0.689-0.332-1.391-0.638-2.07-0.989c-0.939-0.488-1.861-1.015-2.781-1.543c-1.147-0.659-2.283-1.339-3.396-2.061
			c-0.901-0.584-1.788-1.192-2.667-1.815c-1.08-0.768-2.141-1.566-3.185-2.394c-0.851-0.676-1.693-1.364-2.52-2.078
			c-0.417-0.361-0.813-0.753-1.223-1.123c9.021-8.137,19.69-13.822,31.213-16.829C388.726,165.285,384.142,175.194,380.864,187.164z
			 M375.447,235.42c0.245,11.113,1.412,21.581,3.363,31.062c-7.899,3.577-15.228,8.414-21.793,14.394
			c-10.855-12.271-17.74-28.067-18.732-45.455H375.447z M447.857,266.481c1.951-9.48,3.119-19.948,3.364-31.062h37.16
			c-0.992,17.387-7.876,33.185-18.731,45.453C463.085,274.896,455.757,270.059,447.857,266.481z"/>
	</g>
</g>
</svg>
