<svg width="106" height="64" viewBox="0 0 106 64" fill="none" xmlns="http://www.w3.org/2000/svg">
<rect width="106" height="64" rx="10" fill="#222222"/>
<g clip-path="url(#clip0)">
<path fill-rule="evenodd" clip-rule="evenodd" d="M82.6052 54.5469V54.668H82.7182C82.7395 54.6684 82.7605 54.6631 82.779 54.6526C82.7939 54.642 82.8026 54.6245 82.8016 54.6062C82.8024 54.5881 82.7939 54.571 82.779 54.561C82.7607 54.55 82.7397 54.5447 82.7182 54.5455H82.6052V54.5469ZM82.7194 54.4609C82.768 54.458 82.8159 54.4719 82.8553 54.5005C82.8873 54.5266 82.905 54.5665 82.903 54.6078C82.9044 54.6432 82.8905 54.6776 82.8647 54.702C82.8344 54.7283 82.7963 54.7443 82.7562 54.7472L82.9078 54.92H82.791L82.6516 54.7484H82.6064V54.92H82.5086V54.4613H82.721L82.7194 54.4609ZM82.6891 55.0783C82.7404 55.0789 82.7912 55.0685 82.8382 55.048C82.8834 55.0286 82.9245 55.0006 82.9595 54.9658C82.9943 54.931 83.0222 54.8899 83.0417 54.8445C83.0814 54.7484 83.0814 54.6404 83.0417 54.5443C83.022 54.4991 82.9941 54.458 82.9595 54.423C82.9245 54.3882 82.8834 54.3603 82.8382 54.3408C82.7908 54.3215 82.7402 54.3117 82.6891 54.3123C82.6372 54.3119 82.5857 54.3215 82.5375 54.3408C82.4913 54.3599 82.4491 54.3878 82.4135 54.423C82.304 54.5353 82.2721 54.703 82.3325 54.8477C82.351 54.8931 82.3785 54.9344 82.4135 54.969C82.4493 55.004 82.4913 55.0319 82.5375 55.0512C82.5855 55.0716 82.637 55.0818 82.6891 55.0814V55.0783ZM82.6891 54.202C82.8224 54.2018 82.9504 54.2541 83.0456 54.3475C83.0914 54.3923 83.1278 54.4458 83.1529 54.505C83.2052 54.6273 83.2052 54.7661 83.1529 54.8886C83.1272 54.9472 83.0908 55.0006 83.0456 55.0459C82.999 55.0905 82.9449 55.1265 82.8857 55.152C82.8236 55.1784 82.7568 55.1919 82.6891 55.1915C82.6209 55.1919 82.5533 55.1786 82.4902 55.152C82.4304 55.1271 82.3757 55.0911 82.3291 55.0459C82.2839 54.9991 82.2479 54.9438 82.2234 54.8835C82.1711 54.761 82.1711 54.6222 82.2234 54.4997C82.2483 54.4407 82.2849 54.3872 82.3307 54.3424C82.3767 54.2964 82.4314 54.2604 82.4917 54.2362C82.5546 54.2097 82.6225 54.1963 82.6907 54.1969L82.6891 54.202ZM36.2546 52.4299C36.2546 51.5552 36.8279 50.8364 37.7645 50.8364C38.6597 50.8364 39.2639 51.5242 39.2639 52.4299C39.2639 53.3359 38.6597 54.0237 37.7645 54.0237C36.8279 54.0237 36.2546 53.3049 36.2546 52.4299ZM40.2843 52.4299V49.9403H39.202V50.5468C38.8587 50.0985 38.338 49.8176 37.6299 49.8176C36.2349 49.8176 35.1402 50.9117 35.1402 52.4313C35.1402 53.9509 36.2343 55.0451 37.6299 55.0451C38.3377 55.0451 38.8587 54.7635 39.202 54.3156V54.92H40.2831V52.4299H40.2843ZM76.8545 52.4299C76.8545 51.5552 77.4276 50.8364 78.3647 50.8364C79.2608 50.8364 79.864 51.5242 79.864 52.4299C79.864 53.3359 79.2608 54.0237 78.3647 54.0237C77.428 54.0237 76.8545 53.3049 76.8545 52.4299ZM80.8854 52.4299V47.9419H79.8021V50.5468C79.4588 50.0985 78.9382 49.8176 78.2302 49.8176C76.835 49.8176 75.7403 50.9117 75.7403 52.4313C75.7403 53.9509 76.8345 55.0451 78.2302 55.0451C78.9382 55.0451 79.4588 54.7635 79.8021 54.3156V54.92H80.8854V52.4299ZM53.7173 50.7851C54.4147 50.7851 54.8628 51.2226 54.977 51.9925H52.3945C52.5102 51.2737 52.9464 50.7851 53.7175 50.7851H53.7173ZM53.7392 49.8148C52.2805 49.8148 51.2601 50.8761 51.2601 52.4286C51.2601 54.0113 52.3214 55.0423 53.8117 55.0423C54.5612 55.0423 55.248 54.8551 55.8519 54.3447L55.3215 53.5428C54.9043 53.8762 54.373 54.0634 53.8735 54.0634C53.1761 54.0634 52.541 53.7404 52.3849 52.8442H56.0806C56.0912 52.7097 56.102 52.5739 56.102 52.4282C56.0912 50.8765 55.1318 49.8144 53.7386 49.8144L53.7392 49.8148ZM66.8059 52.4282C66.8059 51.5533 67.379 50.8346 68.3157 50.8346C69.2111 50.8346 69.815 51.5224 69.815 52.4282C69.815 53.334 69.2111 54.0219 68.3157 54.0219C67.379 54.0219 66.8055 53.3031 66.8055 52.4282H66.8059ZM70.8353 52.4282V49.9403H69.7535V50.5468C69.4091 50.0985 68.8896 49.8176 68.1814 49.8176C66.7865 49.8176 65.6917 50.9117 65.6917 52.4313C65.6917 53.9509 66.7859 55.0451 68.1814 55.0451C68.8896 55.0451 69.4091 54.7635 69.7535 54.3156V54.92H70.8355V52.4299L70.8353 52.4282ZM60.6937 52.4282C60.6937 53.9381 61.7448 55.0419 63.3491 55.0419C64.0986 55.0419 64.5982 54.8752 65.1383 54.4486L64.6184 53.5736C64.212 53.8656 63.7854 54.0219 63.3145 54.0219C62.4504 54.0113 61.8152 53.3865 61.8152 52.4282C61.8152 51.4699 62.4504 50.8455 63.3145 50.8346C63.7842 50.8346 64.2109 50.9908 64.6184 51.2827L65.1383 50.408C64.5972 49.9812 64.0978 49.8144 63.3491 49.8144C61.7448 49.8144 60.6937 50.918 60.6937 52.4282V52.4282ZM74.6466 49.8144C74.0221 49.8144 73.6155 50.1064 73.3344 50.5439V49.9403H72.2617V54.9173H73.3452V52.1274C73.3452 51.3038 73.6991 50.846 74.4067 50.846C74.6383 50.8427 74.8683 50.8854 75.0834 50.9713L75.4171 49.9513C75.1776 49.8569 74.8652 49.8154 74.646 49.8154L74.6466 49.8144ZM45.6353 50.336C45.1146 49.9928 44.397 49.8154 43.6056 49.8154C42.3446 49.8154 41.5328 50.4198 41.5328 51.4087C41.5328 52.2202 42.1372 52.7209 43.2502 52.877L43.7614 52.9498C44.3549 53.0331 44.6351 53.1895 44.6351 53.4704C44.6351 53.8554 44.2409 54.075 43.5007 54.075C42.751 54.075 42.2099 53.8353 41.8452 53.5542L41.3366 54.3982C41.9301 54.8355 42.6798 55.0441 43.4916 55.0441C44.929 55.0441 45.7621 54.3672 45.7621 53.4195C45.7621 52.5446 45.1064 52.0871 44.0232 51.9309L43.513 51.8568C43.0445 51.7963 42.6692 51.7019 42.6692 51.3682C42.6692 51.0045 43.0231 50.7855 43.6169 50.7855C44.2521 50.7855 44.8671 51.025 45.1685 51.2121L45.637 50.3372L45.6353 50.336ZM59.6005 49.8162C58.9761 49.8162 58.5695 50.1084 58.2895 50.5456V49.9403H57.2168V54.9173H58.2992V52.1274C58.2992 51.3038 58.6531 50.846 59.3607 50.846C59.5923 50.8427 59.8223 50.8854 60.0374 50.9713L60.371 49.9513C60.1316 49.8569 59.8192 49.8154 59.5999 49.8154L59.6005 49.8162ZM50.3645 49.9403H48.5946V48.4305H47.5005V49.9403H46.4911V50.9296H47.5005V53.2001C47.5005 54.3548 47.9488 55.0425 49.2291 55.0425C49.6988 55.0425 50.2399 54.897 50.5832 54.6577L50.2706 53.7309C49.9475 53.9181 49.5936 54.0125 49.3123 54.0125C48.7712 54.0125 48.5946 53.6788 48.5946 53.1794V50.9304H50.3645V49.9403ZM34.1831 54.9186V51.7951C34.1831 50.6188 33.4334 49.8272 32.225 49.8166C31.5896 49.806 30.9343 50.0038 30.4756 50.7021C30.1323 50.1502 29.5912 49.8166 28.8307 49.8166C28.2991 49.8166 27.7797 49.9727 27.3729 50.5557V49.9403H26.2897V54.9173H27.3813V52.1576C27.3813 51.2937 27.8605 50.8346 28.6005 50.8346C29.3191 50.8346 29.6828 51.3032 29.6828 52.1468V54.9167H30.777V52.1571C30.777 51.2931 31.2764 50.8341 31.9948 50.8341C32.7339 50.8341 33.0866 51.3026 33.0866 52.1462V54.9161L34.1831 54.9186Z" fill="white"/>
<path fill-rule="evenodd" clip-rule="evenodd" d="M83.2225 38.3626V37.6348H83.0329L82.8137 38.1342L82.5957 37.6348H82.4056V38.3626H82.54V37.8143L82.7451 38.2873H82.8847L83.0896 37.8131V38.3626H83.2231H83.2225ZM82.02 38.3626V37.7594H82.2626V37.6366H81.6427V37.7594H81.8853V38.3626H82.02Z" fill="#F79410"/>
<path fill-rule="evenodd" clip-rule="evenodd" d="M61.6801 41.484H45.2782V12.0075H61.6805L61.6801 41.484Z" fill="#FF5F00"/>
<path fill-rule="evenodd" clip-rule="evenodd" d="M46.3179 26.7465C46.3179 20.7671 49.1177 15.4408 53.4771 12.0081C50.1778 9.40658 46.0948 7.99373 41.8932 8.00002C31.5409 8.00002 23.1491 16.3929 23.1491 26.7465C23.1491 37.0998 31.5409 45.4927 41.8932 45.4927C46.0948 45.499 50.178 44.0862 53.4775 41.4846C49.1183 38.0526 46.3179 32.726 46.3179 26.7465" fill="#EB001B"/>
<path fill-rule="evenodd" clip-rule="evenodd" d="M83.808 26.7465C83.808 37.0998 75.4162 45.4927 65.0641 45.4927C60.8619 45.4988 56.7783 44.0862 53.4782 41.4846C57.839 38.052 60.6388 32.726 60.6388 26.7465C60.6388 20.7668 57.839 15.4408 53.4782 12.0081C56.7781 9.40659 60.8617 7.99394 65.0637 8.00003C75.416 8.00003 83.8078 16.393 83.8078 26.7465" fill="#F79410"/>
</g>
<defs>
<clipPath id="clip0">
<rect width="60.9494" height="47.3832" fill="white" transform="translate(23 8)"/>
</clipPath>
</defs>
</svg>
