<?xml version="1.0" encoding="utf-8"?>
<!-- Generator: Adobe Illustrator 20.1.0, SVG Export Plug-In . SVG Version: 6.00 Build 0)  -->
<svg version="1.1" id="Layer_1" xmlns="http://www.w3.org/2000/svg" xmlns:xlink="http://www.w3.org/1999/xlink" x="0px" y="0px"
	 viewBox="0 0 120 78" style="enable-background:new 0 0 120 78;" xml:space="preserve">
<style type="text/css">
	.st0{fill:#29ABE2;}
	.st1{fill:#E93D27;}
	.st2{fill:#FFC72B;}
	.st3{fill:#862165;}
</style>
<g>
	<path class="st0" d="M-62.8-30.5l-0.4,0c-0.4,0-0.8,0.1-1.1,0.3c-0.3,0.2-0.6,0.4-0.9,0.7c-0.3,0.3-0.5,0.6-0.6,1
		c-0.1,0.4-0.2,0.8-0.2,1.2l0.6,14.5c0,0.4,0.1,0.7,0.3,1c0.2,0.3,0.4,0.5,0.6,0.7c0.3,0.2,0.5,0.3,0.9,0.4c0.3,0.1,0.7,0.1,1,0
		l3.1-0.5l4-0.7l3-0.5c-0.1,0-0.2,0-0.3-0.1c-0.1,0-0.2,0-0.3-0.1c-0.1,0-0.2-0.1-0.3-0.1c-0.1,0-0.2-0.1-0.3-0.1
		c-0.2-0.1-0.4-0.2-0.6-0.3c-0.2-0.1-0.4-0.2-0.5-0.3c-0.2-0.1-0.3-0.3-0.4-0.4c-0.1-0.1-0.3-0.3-0.4-0.4c-0.2-0.2-0.4-0.5-0.5-0.8
		c-0.2-0.3-0.4-0.7-0.6-1.1c-0.2-0.4-0.4-0.8-0.6-1.3c-0.2-0.5-0.4-1-0.7-1.6L-62.8-30.5z"/>
	<path class="st1" d="M-48.6-31.2l-9.1,0.4L-54-21c0.2,0.4,0.3,0.8,0.4,1.2c0.1,0.3,0.3,0.7,0.4,0.9c0.1,0.3,0.2,0.5,0.3,0.7
		c0.1,0.2,0.2,0.3,0.2,0.4c0.1,0.2,0.2,0.3,0.4,0.5c0.1,0.1,0.3,0.3,0.4,0.4c0.2,0.1,0.3,0.2,0.5,0.3c0.2,0.1,0.4,0.1,0.6,0.1
		c0.1,0,0.1,0,0.2,0c0.1,0,0.1,0,0.2,0c0.1,0,0.1,0,0.2,0c0.1,0,0.2,0,0.2,0c0.1,0,0.3-0.1,0.4-0.1c0.1,0,0.3-0.1,0.4-0.1
		c0.2-0.1,0.3-0.1,0.5-0.2c0.2-0.1,0.3-0.2,0.5-0.2c0.3-0.1,0.5-0.3,0.7-0.4c0.2-0.2,0.4-0.3,0.6-0.5c0.2-0.2,0.3-0.3,0.5-0.5
		c0.1-0.2,0.2-0.3,0.3-0.5c0.1-0.2,0.2-0.4,0.2-0.5c0.1-0.2,0.1-0.4,0.1-0.5c0-0.2,0.1-0.4,0.1-0.5c0-0.2,0-0.4,0-0.5
		c0-0.2-0.1-0.4-0.1-0.6c0-0.2-0.1-0.5-0.2-0.8c-0.1-0.3-0.2-0.6-0.3-0.9c-0.1-0.3-0.2-0.7-0.3-1.1L-48.6-31.2z"/>
	<path class="st2" d="M-41.2-31.6l-3.1,0.1l1.2,4.3c0.2,0.6,0.3,1.1,0.5,1.6c0.1,0.5,0.2,1,0.3,1.4c0.1,0.4,0.2,0.8,0.2,1.1
		c0.1,0.3,0.1,0.6,0.1,0.9c0,0.3,0,0.5,0,0.8c0,0.2,0,0.5,0,0.7c0,0.2-0.1,0.5-0.1,0.7c-0.1,0.2-0.1,0.5-0.2,0.7
		c-0.1,0.2-0.2,0.4-0.3,0.7c-0.1,0.2-0.2,0.4-0.3,0.7c-0.1,0.2-0.3,0.4-0.4,0.6c-0.2,0.2-0.3,0.4-0.5,0.6c-0.2,0.2-0.4,0.4-0.6,0.6
		c-0.2,0.2-0.5,0.4-0.7,0.6c-0.3,0.2-0.5,0.4-0.8,0.6c-0.3,0.2-0.6,0.4-1,0.6c-0.2,0.1-0.4,0.2-0.6,0.3c-0.2,0.1-0.4,0.2-0.5,0.3
		c-0.2,0.1-0.3,0.2-0.5,0.3c-0.2,0.1-0.3,0.2-0.5,0.2l6.9-1.2c0.3,0,0.5-0.2,0.8-0.3c0.2-0.2,0.5-0.4,0.6-0.6
		c0.2-0.2,0.3-0.5,0.5-0.8c0.1-0.3,0.2-0.6,0.2-0.9l0.7-12.3c0-0.3,0-0.7-0.1-1c-0.1-0.3-0.2-0.6-0.4-0.8c-0.2-0.2-0.4-0.4-0.6-0.5
		C-40.7-31.5-41-31.6-41.2-31.6"/>
	<path class="st0" d="M-125.1-24.8c-0.7-0.4-1.4-0.7-2.2-0.9c-0.8-0.2-1.6-0.3-2.4-0.3c-1.5,0-2.8,0.5-3.7,1.5c-0.9,1-1.4,2.3-1.4,4
		c0,1.7,0.4,3.1,1.3,4.1c0.9,1,2.2,1.5,3.8,1.5c0.9,0,1.7-0.1,2.5-0.4c0.8-0.3,1.5-0.6,2.2-1.1l0.9,4c-0.7,0.4-1.6,0.7-2.7,0.9
		c-1.1,0.2-2.1,0.4-3.2,0.4c-1.4,0-2.7-0.2-3.9-0.6c-1.2-0.4-2.2-1-3-1.8c-0.8-0.8-1.5-1.8-1.9-2.9c-0.5-1.2-0.7-2.5-0.7-4
		c0-1.5,0.2-2.8,0.7-3.9c0.4-1.2,1.1-2.2,1.9-3c0.8-0.8,1.9-1.5,3.1-1.9c1.2-0.4,2.5-0.7,4-0.7c1.1,0,2.1,0.1,3.2,0.4
		c1,0.2,1.9,0.6,2.8,1L-125.1-24.8z"/>
	<path class="st0" d="M-113.6-26l-2.4,7h4.7L-113.6-26z M-104.5-11.6h-4.5l-1.3-3.8h-6.7l-1.3,3.8h-4.5l6.4-17.9h5.7L-104.5-11.6z"
		/>
	<path class="st0" d="M-96.6-15c0.8,0,1.5-0.1,2-0.4c0.5-0.3,0.8-0.7,0.8-1.3c0-0.3-0.1-0.6-0.2-0.8c-0.2-0.2-0.4-0.4-0.7-0.6
		c-0.3-0.2-0.7-0.3-1.1-0.5c-0.5-0.1-1-0.3-1.6-0.5c-0.7-0.2-1.3-0.4-2-0.7c-0.7-0.3-1.3-0.6-1.9-1c-0.6-0.4-1-0.9-1.4-1.5
		c-0.4-0.6-0.5-1.4-0.5-2.3c0-1.7,0.6-3,1.8-4c1.2-1,2.9-1.5,5.1-1.5c1.4,0,2.7,0.1,3.8,0.4c1.1,0.3,2.1,0.7,2.9,1.1l-0.9,3.8
		c-0.9-0.5-1.9-0.9-2.9-1.1c-1-0.3-2-0.4-2.9-0.4c-1.6,0-2.4,0.5-2.4,1.5c0,0.3,0.1,0.5,0.3,0.8c0.2,0.2,0.5,0.4,0.8,0.6
		c0.3,0.2,0.7,0.3,1.2,0.5c0.5,0.1,1,0.3,1.5,0.4c0.7,0.2,1.4,0.4,2,0.7c0.7,0.3,1.3,0.6,1.8,1c0.5,0.4,1,0.9,1.3,1.5
		c0.3,0.6,0.5,1.3,0.5,2.2c0,0.9-0.2,1.6-0.5,2.4c-0.3,0.7-0.8,1.3-1.4,1.8c-0.6,0.5-1.4,0.9-2.3,1.2c-0.9,0.3-2,0.4-3.1,0.4
		c-1.3,0-2.6-0.2-3.8-0.5c-1.2-0.3-2.2-0.7-3.1-1.2l0.9-3.8c0.9,0.5,1.9,0.9,2.9,1.2C-98.8-15.1-97.7-15-96.6-15"/>
	<polygon class="st0" points="-74.6,-11.6 -74.6,-18.8 -81.8,-18.8 -81.8,-11.6 -86.4,-11.6 -86.4,-29.6 -81.8,-29.6 -81.8,-22.6 
		-74.6,-22.6 -74.6,-29.6 -70.1,-29.6 -70.1,-11.6 	"/>
</g>
<path class="st3" d="M89.5,25.3l8.3-1.5v31.9h-8.3V25.3z M101.7,25.3v30.5h8.3V23.8L101.7,25.3z M77.7,55.7H86V32.4h-8.3V55.7z
	 M22.7,35.7c-1.1-0.1-3.5-0.2-3.5-2.4c0-2.6,3.5-2.6,4.8-2.6c2.3,0,5.3,0.7,7.4,1.3c0,0,1.2,0.4,2.2,0.9l0.1,0v-0.1v-7.2l-0.1,0
	c-2.5-0.9-5.5-1.7-10.9-1.7c-9.4,0-12.7,5.5-12.7,10.1c0,2.7,1.2,9.1,11.9,9.8c0.9,0.1,3.3,0.2,3.3,2.5c0,1.9-2,3-5.3,3
	c-3.6,0-7.2-0.9-9.3-1.8v7.5c3.2,0.8,6.8,1.3,11.1,1.3c9.2,0,13.3-5.2,13.3-10.3C35,40,30.4,36.2,22.7,35.7z M73,32
	c-7.7,0.2-11.6,3.7-11.6,10.6v13.1h8.4V45c0-4.1,0.5-5.9,5.4-6v-6.8C74.4,32,73,32,73,32z M50.4,32.3c-0.2,0.5-1.5,4.2-4.7,8.1V23.8
	l-8.6,1.7v30.2h8.6v-9.3c2.5,3.7,3.7,9.3,3.7,9.3h10.3c-1-4.2-5.5-12-5.5-12c4-5.1,5.8-10.5,6-11.4H50.4z M81.8,30.1
	c2.3,0,4.1-1.8,4.1-4.1c0-2.3-1.8-4.1-4.1-4.1c-2.3,0-4.1,1.8-4.1,4.1C77.7,28.3,79.6,30.1,81.8,30.1z"/>
</svg>
